<?xml version="1.0" standalone="no"?>
<!DOCTYPE svg PUBLIC "-//W3C//DTD SVG 20010904//EN"
 "http://www.w3.org/TR/2001/REC-SVG-20010904/DTD/svg10.dtd">
<svg version="1.0" xmlns="http://www.w3.org/2000/svg"
 width="512.000000pt" height="512.000000pt" viewBox="0 0 512.000000 512.000000"
 preserveAspectRatio="xMidYMid meet">
<metadata>
Created by potrace 1.11, written by Peter Selinger 2001-2013
</metadata>
<g transform="translate(0.000000,512.000000) scale(0.100000,-0.100000)"
fill="#000000" stroke="none">
<path d="M3248 4418 c-143 -19 -261 -75 -349 -168 -52 -54 -125 -173 -141
-230 -62 -218 -73 -295 -72 -520 1 -284 38 -465 127 -615 110 -188 284 -278
537 -278 127 1 291 58 379 133 l23 20 -22 71 c-21 64 -23 89 -23 282 1 362 3
399 28 462 21 51 22 56 6 64 -9 5 -93 9 -188 10 -212 0 -217 -2 -183 -80 22
-52 23 -64 24 -357 2 -278 0 -304 -16 -319 -35 -31 -155 5 -209 64 -58 62
-109 184 -124 293 -4 30 -9 64 -11 75 -13 62 -4 374 13 450 4 17 7 35 8 40 7
64 58 173 110 233 101 116 289 124 415 16 75 -64 84 -56 75 75 -11 182 -15
235 -21 254 -6 18 -26 21 -59 8 -11 -4 -42 -2 -71 5 -63 17 -181 22 -256 12z"/>
<path d="M1592 4394 c-14 -10 -14 -16 0 -55 9 -24 20 -60 24 -79 8 -40 7
-1441 -1 -1492 -3 -18 -13 -50 -21 -70 -21 -48 -13 -68 28 -69 171 -4 371 0
380 9 8 8 4 27 -13 64 l-23 53 0 735 c0 404 2 753 5 775 3 22 13 54 22 72 17
32 14 62 -7 64 -79 7 -382 2 -394 -7z"/>
<path d="M952 2472 c-22 -3 -23 -7 -17 -44 6 -35 8 -460 2 -543 l-2 -30 147
-3 146 -2 11 32 c22 70 24 105 6 112 -9 3 -21 3 -26 0 -6 -3 -34 -8 -64 -10
l-55 -5 -1 73 c-1 178 2 336 7 376 4 23 2 43 -2 43 -23 3 -132 4 -152 1z"/>
<path d="M475 2451 c-46 -22 -67 -44 -83 -91 -16 -45 -15 -92 4 -138 17 -45
38 -65 118 -116 65 -41 80 -69 60 -107 -21 -42 -79 -52 -134 -24 -51 26 -63
12 -55 -64 4 -36 9 -69 11 -73 9 -14 199 -1 230 15 74 39 117 117 110 198 -7
69 -31 104 -117 169 -78 60 -98 90 -73 115 21 21 63 19 101 -5 45 -27 62 -10
56 62 -2 29 -5 58 -8 64 -7 21 -174 17 -220 -5z"/>
<path d="M1534 2455 c-1 -5 -5 -35 -8 -65 -4 -46 -15 -106 -52 -285 -2 -11 -6
-31 -9 -45 -3 -14 -7 -36 -10 -50 -12 -63 -18 -87 -30 -111 -8 -14 -10 -30 -7
-36 9 -14 122 -21 122 -8 0 6 4 4 9 -3 16 -26 55 0 45 30 -3 11 -3 35 0 53 7
33 8 34 51 33 42 0 45 -2 51 -34 3 -19 4 -43 1 -54 -7 -29 10 -38 88 -44 93
-8 102 -1 81 55 -24 65 -108 499 -102 525 3 12 0 26 -7 32 -17 14 -127 22
-127 9 0 -6 -5 -5 -13 2 -16 13 -78 10 -83 -4z m122 -357 c-20 -13 -28 9 -20
58 l8 49 11 -50 c8 -35 8 -52 1 -57z"/>
<path d="M2059 2434 c-7 -9 -8 -23 -2 -41 11 -33 10 -472 -1 -525 -5 -21 -4
-39 0 -39 5 -1 35 -3 67 -4 31 -2 64 -5 71 -8 23 -9 39 19 31 50 -8 31 -13
225 -7 261 3 12 9 22 14 22 5 0 7 -4 4 -8 -3 -5 11 -33 30 -63 l36 -54 -3
-104 c-4 -117 -11 -108 85 -111 90 -3 89 -3 80 28 -11 39 -14 479 -4 527 11
51 1 63 -58 65 -109 3 -131 -5 -112 -40 10 -19 16 -97 8 -105 -3 -3 -24 26
-47 64 -24 39 -48 75 -55 80 -21 17 -123 21 -137 5z"/>
<path d="M149 2436 c-3 -3 -27 -6 -54 -8 -28 -2 -53 -7 -57 -13 -5 -6 -8 -5
-8 4 0 11 -3 11 -16 1 -11 -10 -14 -23 -9 -51 6 -33 7 -458 2 -534 l-2 -30 80
3 c59 2 83 8 92 19 9 12 10 20 2 29 -7 9 -10 107 -8 295 2 259 -1 305 -22 285z"/>
<path d="M4965 2411 c-139 -11 -205 -71 -205 -187 0 -71 35 -120 122 -174 77
-47 93 -71 72 -111 -24 -47 -86 -55 -152 -20 -33 18 -45 -8 -37 -81 4 -35 9
-65 11 -68 11 -10 171 3 208 18 53 21 72 38 104 91 35 61 37 152 3 200 -23 32
-122 111 -139 111 -14 0 -32 25 -37 49 -9 47 48 65 112 34 33 -15 36 -15 48 0
21 29 1 152 -24 145 -3 0 -42 -4 -86 -7z"/>
<path d="M2674 2396 c-3 -9 -2 -28 3 -43 8 -24 8 -440 1 -528 -3 -29 -2 -30
52 -36 55 -6 159 -4 193 3 10 3 27 12 37 21 11 9 20 14 20 10 0 -4 13 6 30 22
47 45 72 124 73 230 1 149 -36 235 -122 289 -47 30 -78 37 -189 43 -77 4 -93
2 -98 -11z m214 -149 c28 -30 46 -115 40 -197 -6 -74 -27 -119 -64 -137 l-24
-11 0 184 c0 197 3 209 48 161z"/>
<path d="M4498 2375 c-2 -3 -61 -5 -131 -6 -139 -1 -152 -6 -138 -55 10 -35 7
-512 -3 -536 -11 -25 19 -34 104 -31 41 1 106 3 143 3 76 1 79 4 92 93 8 55
-4 65 -52 45 -17 -7 -51 -12 -75 -10 l-45 4 -1 64 c-1 54 2 64 16 65 26 2 25
2 59 -4 56 -11 69 26 54 147 -1 5 -16 5 -33 1 -18 -4 -48 -9 -65 -11 l-33 -4
2 50 c2 36 7 50 18 51 38 3 72 1 111 -5 27 -4 45 -3 49 4 10 16 -16 121 -32
131 -15 10 -32 11 -40 4z"/>
<path d="M3695 2349 c-4 -10 -2 -26 3 -36 10 -21 8 -498 -3 -529 -9 -29 2 -34
84 -39 87 -4 106 7 91 51 -14 40 -9 210 6 207 6 -1 23 -4 38 -7 14 -2 29 -7
34 -10 23 -14 35 15 35 78 0 37 -3 69 -6 72 -7 7 -36 7 -79 -1 l-38 -8 0 55 0
55 49 -3 c27 -1 63 -5 80 -9 41 -9 49 11 30 84 l-14 56 -42 0 c-24 1 -43 -3
-43 -8 0 -4 -6 -5 -12 0 -7 4 -57 8 -110 9 -86 0 -98 -2 -103 -17z"/>
<path d="M930 1475 c-10 -26 -8 -81 4 -92 3 -4 16 -1 29 5 75 38 86 0 24 -80
-59 -75 -77 -116 -84 -188 l-5 -60 53 -1 c75 -1 130 -1 156 0 17 1 23 10 31
48 6 26 8 51 6 55 -3 4 -32 5 -66 1 l-60 -6 15 29 c9 16 36 56 61 89 25 33 46
69 47 80 5 64 0 89 -25 114 -23 23 -36 26 -102 28 -71 3 -75 2 -84 -22z"/>
<path d="M1976 1481 c-13 -8 -35 -33 -48 -55 -20 -36 -23 -55 -23 -146 0 -88
4 -111 22 -146 26 -48 41 -62 82 -74 69 -20 139 29 162 113 13 48 15 147 4
198 -22 105 -119 158 -199 110z m88 -123 c23 -113 -16 -264 -42 -165 -10 36
-8 151 2 185 10 29 32 18 40 -20z"/>
<path d="M2996 1479 c-11 -9 -31 -19 -43 -23 -29 -9 -33 -63 -5 -73 9 -4 19
-10 22 -14 5 -7 5 -251 0 -274 -7 -30 2 -35 60 -35 41 0 60 4 61 13 4 99 -4
404 -12 412 -16 16 -59 13 -83 -6z"/>
<path d="M3917 1482 c-44 -27 -71 -93 -64 -161 2 -32 11 -67 18 -78 18 -29 59
-51 92 -49 35 2 42 -7 21 -28 -14 -15 -18 -15 -44 0 -46 28 -62 14 -55 -48 4
-29 8 -54 10 -56 1 -2 30 -3 63 -3 70 -1 101 15 134 69 19 32 22 50 23 152 0
92 -4 122 -18 152 -31 62 -120 87 -180 50z m79 -94 c15 -24 14 -75 -2 -89 -19
-16 -34 2 -34 43 0 49 19 74 36 46z"/>
<path d="M520 924 c-84 -69 -94 -88 -65 -118 19 -19 40 -12 88 31 20 18 40 33
45 33 4 0 27 -19 52 -42 99 -90 188 -124 307 -115 90 7 157 36 239 105 l61 51
44 -40 c95 -86 180 -121 289 -121 98 0 166 26 254 97 38 30 71 55 74 55 2 0
27 -20 56 -45 167 -143 396 -136 541 15 16 16 31 30 34 30 3 0 26 -18 51 -41
101 -90 198 -125 314 -115 86 8 152 37 233 105 l63 51 42 -37 c24 -21 49 -44
56 -51 46 -43 153 -76 240 -74 102 3 218 56 286 131 11 12 24 21 29 21 5 0 33
-20 62 -45 97 -82 191 -116 305 -110 89 5 152 35 252 118 l48 40 40 -37 c43
-38 59 -43 78 -24 26 26 12 55 -49 106 -34 29 -65 52 -69 52 -5 0 -32 -19 -61
-42 -97 -79 -134 -105 -170 -117 -119 -39 -216 -13 -334 90 -44 38 -87 69 -96
69 -18 0 -42 -17 -108 -78 -63 -57 -122 -84 -201 -90 -96 -7 -151 15 -242 92
-115 98 -104 97 -195 21 -90 -75 -139 -101 -205 -110 -94 -13 -181 20 -270
100 -52 47 -90 75 -102 75 -6 0 -38 -25 -71 -56 -88 -82 -143 -107 -235 -108
-94 -1 -141 19 -238 103 -39 33 -77 61 -84 61 -11 0 -103 -69 -162 -122 -61
-55 -212 -65 -301 -21 -25 13 -139 103 -155 124 -3 3 -14 11 -26 17 -17 9 -27
7 -54 -13 -19 -14 -36 -28 -39 -33 -14 -18 -99 -80 -136 -98 -64 -30 -175 -26
-245 8 -30 15 -69 40 -85 55 -67 62 -106 93 -118 93 -7 0 -37 -21 -67 -46z"/>
</g>
</svg>
