<svg xmlns="http://www.w3.org/2000/svg" width="320.599" height="61" viewBox="0 0 320.599 61">
  <g id="brand-igislandfes-2019" transform="translate(0.5 0.5)">
    <path id="パス_1" data-name="パス 1" d="M657.326,376.561a.769.769,0,0,1-.391-.39,1.065,1.065,0,0,1-.1-.489,1.373,1.373,0,0,1,.2-.587,2.128,2.128,0,0,0,.293-.488c.1-.1.1-.392.2-.587a2.137,2.137,0,0,0,.293-.488c.1-.2,0-.393.1-.588a1.388,1.388,0,0,1,.2-.585v-.684a3.75,3.75,0,0,1,.2-.587c0-.2-.1-.391-.1-.587a1.224,1.224,0,0,0,.1-.585v-1.173c0-.2.1-.39.1-.684v-.585c0-.294-.1-.294-.1-.588V366.3c0-.293.1-.293.1-.585s-.1-.294-.1-.489V362.88c0-.293.1-.293.1-.585s-.1-.293-.1-.587v-.585c0-.294.1-.294.1-.588s-.1-.293-.1-.585V358.19c0-.294.1-.294.1-.587s-.1-.293-.1-.585v-2.347c0-.293.1-.293.1-.587s-.1-.293-.1-.585.1-.293.1-.587v-1.172c0-.294-.1-.294-.1-.587v-.587c0-.294.1-.294.1-.587v-1.172c0-.293-.1-.293-.1-.587s.1-.293.1-.587v-1.172c0-.294-.1-.294-.1-.587s.1-.293.1-.587V344.7c0-.293-.1-.293-.1-.587v-.587c0-.293.1-.293.1-.585s-.1-.294-.1-.587.1-.294.1-.587-.1-.294-.1-.587.1-.293.1-.585v-1.173c0-.293-.1-.293-.1-.587s.1-.293.1-.585v-.588c0-.293-.1-.293-.1-.585v-4.006c0-.293.1-.293.1-.587V331.9c0-.294-.1-.294-.1-.588v-.585c0-.293.1-.293.1-.585V327.8c0-.3-.1-.3-.1-.588s.1-.293.1-.585v-.684c0-.2-.1-.391-.1-.587s.1-.392,0-.587v-.585a1.229,1.229,0,0,1-.1-.587v-.684c0-.2-.2-.39-.2-.489a1.431,1.431,0,0,0-.1-.683c0-.2-.1-.391-.1-.588a1.386,1.386,0,0,1-.2-.585c-.1-.2-.2-.293-.293-.488l-.293-.587a.728.728,0,0,1-.1-.489c-.1-.1,0-.293.1-.489l.293-.293c.2-.1.293-.2.488-.2h12.313c.2,0,.293.1.489.2.1,0,.2.2.293.39a.586.586,0,0,1,.1.392,1.229,1.229,0,0,1-.1.587,2.123,2.123,0,0,0-.293.489,1.39,1.39,0,0,0-.2.585,2.128,2.128,0,0,0-.293.488,1308.81,1308.81,0,0,1-.2,1.173,6.328,6.328,0,0,0-.2.684v.587c0,.2-.1.392-.1.587v.585c0,.2-.1.392-.1.587s.1.391.1.587c0,.293-.1.489-.1.684,0,.293.1.293.1.585v.588c0,.293-.1.293-.1.585s.1.293.1.587-.1.293-.1.585v1.759c0,.294.1.294.1.588v1.074c0,.293-.1.293-.1.585s.1.293.1.588v1.172c0,.293-.1.293-.1.585s.1.294.1.588-.1.293-.1.585v1.759c0,.294.1.294.1.587s-.1.293-.1.585.1.3.1.588v1.759c0,.293-.1.293-.1.587s.1.293.1.585-.1.293-.1.587v.587c0,.293.1.293.1.585s-.1.294-.1.587v.587c0,.294.1.294.1.587s-.1.293-.1.585.1.294.1.587V349.4c0,.293-.1.293-.1.585v.587c0,.294.1.294.1.587v1.759c0,.294-.1.294-.1.587v1.759c0,.294.1.294.1.587s-.1.293-.1.585.1.293.1.588-.1.293-.1.585v.587c0,.293.1.293.1.585s-.1.294-.1.588v1.171c0,.294.1.294.1.588v1.172c0,.293-.1.293-.1.585v1.076c0,.293.1.293.1.587s-.1.293-.1.585.1.294.1.588v.585c0,.293-.1.293-.1.585s.1.294.1.588v.585c0,.294-.1.489-.1.684s.1.39.1.585V370.5a1.228,1.228,0,0,1,.1.587v.684c0,.2.1.391.1.587a1.238,1.238,0,0,1,.1.585l.293.588a.745.745,0,0,0,.2.488c.1.2.1.39.2.587l.293.585a.741.741,0,0,1,.2.489,1.631,1.631,0,0,1-.2.489c-.1.1-.2.293-.293.39-.2,0-.294.1-.489.1H657.814A.731.731,0,0,1,657.326,376.561Z" transform="translate(-656.837 -317.343)" fill="#2ca6e0" stroke="rgba(0,0,0,0)" stroke-width="1"/>
    <path id="パス_2" data-name="パス 2" d="M686.723,347.271v-1.759a1.245,1.245,0,0,0,.1-.587v-1.173c0-.2.1-.39.1-.585v-1.173c0-.2.1-.391.1-.587s.1-.39.1-.585v-.588c0-.2.1-.39.1-.585.1-.2,0-.39,0-.587a1.372,1.372,0,0,0,.2-.585v-.587a1676.295,1676.295,0,0,1,.2-1.172,1.245,1.245,0,0,0,.1-.587,1.4,1.4,0,0,0,.2-.587,1.242,1.242,0,0,0,.1-.587c.1-.2.1-.293.2-.488,0-.2.1-.39.1-.588a1.237,1.237,0,0,0,.1-.585c.1-.2.1-.39.2-.587a1.387,1.387,0,0,1,.2-.585.746.746,0,0,1,.2-.489c.1-.2.1-.392.2-.587s.1-.39.2-.585.1-.391.2-.588c0-.1.2-.293.294-.488a1.4,1.4,0,0,1,.2-.587,1.649,1.649,0,0,1,.2-.488c.1-.2.293-.293.39-.488a.747.747,0,0,1,.2-.49l.294-.585c.1-.2.2-.293.294-.489s.293-.293.39-.488.1-.392.293-.489c.1-.2.2-.294.294-.489.2-.1.293-.293.39-.39.2-.2.2-.39.293-.587.2-.1.294-.294.489-.392a1.743,1.743,0,0,1,.392-.488c.1-.1.293-.2.39-.293l.488-.489c.1-.1.294-.2.391-.293l.489-.489a2.078,2.078,0,0,1,.489-.294,2.136,2.136,0,0,1,.488-.293c.1-.1.293-.2.488-.39a2.17,2.17,0,0,1,.49-.294c.1-.1.293-.1.488-.2a2.129,2.129,0,0,0,.488-.293l.587-.294c.2-.1.293-.2.489-.293a1.392,1.392,0,0,0,.587-.2,1.223,1.223,0,0,1,.585-.1,1.392,1.392,0,0,1,.587-.2.748.748,0,0,1,.489-.2c.2-.1.39-.1.587-.2.2,0,.39-.1.585-.1a17604.914,17604.914,0,0,0,1.173-.2c.2-.1.39-.1.585-.2a1.226,1.226,0,0,0,.587-.1c.2,0,.391.1.587,0h.587c.2,0,.39-.1.585-.1h2.933c.2,0,.39.1.585.1h.587a1.434,1.434,0,0,0,.585.1,1.915,1.915,0,0,0,.684.1,1.4,1.4,0,0,0,.587.2,1.238,1.238,0,0,0,.585.1c.2,0,.391.2.588.2s.39.1.585.1.391.1.587.1.39-.2.585-.2c.2-.1.393-.1.588-.2a.745.745,0,0,1,.488-.2c.1-.1.293,0,.489.1a.523.523,0,0,1,.39.293.731.731,0,0,1,.1.488v.587a1.245,1.245,0,0,1,.1.587,1.226,1.226,0,0,0,.1.587c0,.293-.1.293-.1.585.1.2,0,.2.1.49a1.238,1.238,0,0,0,.1.585v.587a1.237,1.237,0,0,0,.1.585v.587a1.24,1.24,0,0,0,.1.587c0,.2-.1.2-.1.488a1.245,1.245,0,0,1,.1.587,1.24,1.24,0,0,0,.1.587v1.172a1.243,1.243,0,0,1,.1.588V329c0,.293.1.293.1.585a1.229,1.229,0,0,1-.1.587.97.97,0,0,1-.488.392,1.245,1.245,0,0,1-.587.1c-.2-.1-.391-.1-.489-.293l-.39-.392c-.2-.2-.293-.391-.39-.489-.2-.1-.3-.293-.49-.39-.1-.1-.2-.294-.39-.392s-.293-.2-.488-.293-.294-.2-.489-.293-.293-.2-.489-.293-.391-.1-.489-.2a1.386,1.386,0,0,0-.585-.2,1.64,1.64,0,0,0-.489-.2,1.386,1.386,0,0,0-.587-.2c-.2,0-.39-.1-.585-.1a1.386,1.386,0,0,1-.587-.2h-.488c-.2,0-.393.1-.588.1s-.39-.1-.585-.1a1.242,1.242,0,0,0-.587.1c-.2,0-.39.1-.586.1a821.028,821.028,0,0,0-1.173.2c-.2,0-.39.2-.587.2-.2.1-.39.1-.587.2a2.175,2.175,0,0,1-.488.3c-.1.1-.391.1-.489.2a2.135,2.135,0,0,0-.488.293,1.7,1.7,0,0,1-.489.39l-.391.392c-.2.2-.39.293-.488.39a2.134,2.134,0,0,1-.391.489,1.714,1.714,0,0,1-.39.489c-.1.1-.2.293-.293.39a2.162,2.162,0,0,1-.391.488,2.118,2.118,0,0,1-.294.489l-.293.587a2.117,2.117,0,0,0-.293.489c-.1.2-.1.39-.2.585a2.133,2.133,0,0,0-.293.488,1.389,1.389,0,0,1-.2.588,1.648,1.648,0,0,1-.2.488c0,.2-.1.392-.1.587a1.386,1.386,0,0,0-.2.587c-.1.2-.1.391-.2.587,0,.2-.1.293-.2.488v.587a1852.747,1852.747,0,0,1-.2,1.172,1.382,1.382,0,0,0-.2.587,1.237,1.237,0,0,1-.1.585v.588a1.387,1.387,0,0,1-.2.585c0,.2.1.391.1.587a1.24,1.24,0,0,0-.1.587c0,.2-.1.391-.1.587a1.237,1.237,0,0,1-.1.585V346.1c0,.2-.1.39-.1.587s.1.391.1.587-.1.39-.1.585v1.173c0,.2.1.391.1.587v1.173c0,.2.1.39.1.585v1.172a1.25,1.25,0,0,0,.1.588,1.237,1.237,0,0,0,.1.585c0,.2-.1.39,0,.585,0,.2.1.392.1.587s.1.391.1.587v.587a1.239,1.239,0,0,1,.1.585.876.876,0,0,1,.1.49,1.386,1.386,0,0,1,.2.585c0,.2.1.39.1.587a1.237,1.237,0,0,1,.1.585,1.4,1.4,0,0,1,.2.588c.1.2.2.293.2.488a1.224,1.224,0,0,1,.1.585l.293.588c.1.2.1.293.2.488s.1.391.2.587.2.293.293.488a2.133,2.133,0,0,0,.293.488c.1.2.1.393.2.588a2.13,2.13,0,0,1,.392.488,2.192,2.192,0,0,1,.294.489,2.128,2.128,0,0,1,.293.488c.2.1.293.294.39.392a1.717,1.717,0,0,1,.391.489,2.133,2.133,0,0,1,.488.293l.391.39a2.067,2.067,0,0,0,.587.391c.1.1.293.1.488.2s.294.2.489.294l.587.293a1.068,1.068,0,0,1,.489.1,1.387,1.387,0,0,0,.585.2,1.226,1.226,0,0,0,.587.1c.2,0,.39.1.587.1h.585a1.24,1.24,0,0,0,.587-.1c.2,0,.293-.2.39-.294a1.741,1.741,0,0,0,.391-.488,1.042,1.042,0,0,0,.2-.588v-.488c0-.2-.1-.293-.1-.488v-2.15c0-.2.1-.39.1-.585s-.1-.393-.1-.588v-1.172c0-.2.1-.39.1-.587s-.1-.392-.1-.587v-4.689c0-.2.1-.392.1-.587a4.253,4.253,0,0,1-.1-.489v-4.105a1.574,1.574,0,0,1,0-.683c0-.2-.1-.39-.1-.587v-.585a1.227,1.227,0,0,0-.1-.587v-.587c-.1-.293-.2-.39-.2-.585a1.921,1.921,0,0,1-.1-.685c-.1-.2-.2-.293-.293-.488l-.293-.587c-.1-.2-.2-.293-.294-.488a1.07,1.07,0,0,1-.1-.49,4.225,4.225,0,0,1,.1-.488.769.769,0,0,1,.391-.39.732.732,0,0,1,.488-.1c.2,0,.391-.1.588-.1h1.172c.2,0,.39.1.585.1s.392-.1.587-.1h2.443c.2,0,.392.1.587.1h.585c.2,0,.393-.1.588-.1h1.759c.2,0,.391.1.587.1s.39-.1.585-.1h1.271c.2,0,.293.1.489.2.1,0,.293.2.39.293a1.237,1.237,0,0,1,.1.585,1.656,1.656,0,0,1-.2.49,2.133,2.133,0,0,0-.293.488l-.294.587a1.237,1.237,0,0,0-.1.585,1.391,1.391,0,0,0-.2.588c-.1.2-.1.39-.2.585a1.245,1.245,0,0,1-.1.587v.587a1.239,1.239,0,0,0-.1.585v.587a1.224,1.224,0,0,1-.1.585c0,.294.1.49.1.685s-.1.39-.1.585c0,.294.1.294.1.587s-.1.293-.1.587.1.294.1.587-.1.293-.1.585.1.293.1.587v.587c0,.293-.1.293-.1.587v3.517c0,.294.1.294.1.587s-.1.293-.1.585v.587c0,.294.1.294.1.587s-.1.293-.1.587v.585c0,.293.1.293.1.588s-.1.293-.1.585v1.759c0,.2.1.392.1.587v.585a1.248,1.248,0,0,0,.1.588v.585a1.391,1.391,0,0,0,.2.587v.585a1.4,1.4,0,0,1,.2.588c.1.2.2.293.293.488a1.383,1.383,0,0,0,.2.587c.1.2.2.293.293.488a.8.8,0,0,1,.1.684,1.387,1.387,0,0,1-.2.587,2.142,2.142,0,0,0-.489.293,1.713,1.713,0,0,1-.488.39c-.1.2-.294.2-.489.393-.1.1-.294.2-.391.293a2.127,2.127,0,0,0-.488.39c-.2.1-.39.1-.587.2l-.39.391a1.386,1.386,0,0,0-.587.2c-.1.1-.294.1-.489.2s-.293.293-.488.293c-.2.1-.391.1-.588.2s-.293.2-.488.294a1.387,1.387,0,0,0-.585.2.746.746,0,0,0-.489.2,1.245,1.245,0,0,0-.587.1c-.2,0-.392.1-.587.1-.2.1-.39.1-.585.2-.2,0-.294.1-.489.1-.2.1-.392.1-.587.2a1.245,1.245,0,0,0-.587.1h-.585a1.24,1.24,0,0,1-.587.1h-2.834a1.238,1.238,0,0,1-.585-.1h-.587a286.716,286.716,0,0,1-1.173-.2h-.585c-.2,0-.39-.1-.587-.1a2200.841,2200.841,0,0,1-1.172-.2c-.2-.1-.391-.1-.587-.2a13200.779,13200.779,0,0,0-1.173-.39,4.223,4.223,0,0,0-.488-.1,1.392,1.392,0,0,0-.587-.2,2.115,2.115,0,0,1-.489-.3c-.2-.1-.39-.1-.587-.2s-.293-.293-.488-.293l-.585-.293a2.228,2.228,0,0,0-.49-.294c-.2-.1-.293-.2-.488-.293a2.174,2.174,0,0,1-.489-.293c-.2-.1-.293-.293-.488-.39l-.392-.393a2.146,2.146,0,0,1-.489-.293,1.712,1.712,0,0,0-.488-.39c-.1-.2-.293-.293-.39-.39l-.489-.489c-.1-.1-.2-.294-.391-.391a2.174,2.174,0,0,0-.293-.489c-.1-.2-.293-.293-.392-.488-.2-.1-.2-.293-.293-.488s-.293-.294-.39-.49a2.134,2.134,0,0,1-.293-.488,2.1,2.1,0,0,1-.393-.488c-.1-.1-.1-.294-.2-.489s-.293-.293-.39-.489-.1-.391-.2-.587-.2-.293-.2-.488l-.294-.587c0-.2-.1-.293-.2-.489l-.294-.585c-.1-.2-.1-.391-.2-.587a4.226,4.226,0,0,1-.1-.488,1.4,1.4,0,0,1-.2-.588c-.1-.2-.1-.39-.2-.585,0-.2-.1-.39-.1-.587-.1-.2-.1-.39-.2-.488a1.393,1.393,0,0,0-.2-.587c0-.2-.1-.391-.1-.587a775.975,775.975,0,0,1-.2-1.173c0-.2-.1-.39-.1-.585s-.1-.391-.1-.587-.1-.39-.1-.585a1.248,1.248,0,0,1-.1-.588c0-.2-.1-.39-.1-.585a1.244,1.244,0,0,0-.1-.587v-.587a376.824,376.824,0,0,1-.2-1.172v-1.173c0-.2-.1-.39-.1-.585s.1-.392.1-.587-.1-.39-.1-.585c-.1-.2,0-.393,0-.588s-.1-.39-.1-.585v-2.345Z" transform="translate(-650.273 -317.466)" fill="#2ca6e0" stroke="rgba(0,0,0,0)" stroke-width="1"/>
    <path id="パス_3" data-name="パス 3" d="M767.478,369.567c0-.059.03-.118.03-.178s-.03-.12-.03-.179v-.535c0-.06.03-.118.03-.178v-.537a.386.386,0,0,0,.029-.179c.029-.06,0-.12,0-.177s.029-.12.029-.179a1.277,1.277,0,0,1,.029-.149c0-.06.03-.12.03-.179.029-.06,0-.12,0-.179a.421.421,0,0,0,.06-.178v-.179a.435.435,0,0,0,.06-.177.416.416,0,0,1,.06-.179v-.179a.426.426,0,0,1,.059-.178,1.341,1.341,0,0,0,.031-.149.434.434,0,0,0,.06-.179.386.386,0,0,0,.029-.179c.031-.06.031-.12.06-.178s.06-.09.089-.15c0-.057.03-.117.03-.177.029-.06.029-.12.06-.179,0-.06.06-.089.06-.149a.449.449,0,0,0,.059-.179c.029-.06.06-.089.089-.149,0-.06.06-.12.06-.178a.674.674,0,0,0,.089-.15c.031-.059.031-.118.06-.149.031-.06.031-.12.06-.177s.089-.091.12-.151a.222.222,0,0,1,.06-.148.434.434,0,0,0,.06-.178c.029-.06.088-.09.118-.15s.029-.118.06-.149l.089-.178a.628.628,0,0,0,.089-.15c.031-.06.06-.089.09-.149s.089-.089.118-.149a.593.593,0,0,0,.09-.148c.029-.06.089-.089.12-.149a.727.727,0,0,0,.088-.15c.03-.059.06-.089.09-.149a.507.507,0,0,1,.118-.149c.031-.029.06-.089.09-.12a.658.658,0,0,1,.118-.149.535.535,0,0,1,.12-.149.465.465,0,0,1,.089-.12c.06-.06.089-.12.12-.148.029-.06.089-.089.12-.149a.745.745,0,0,0,.089-.149c.029-.06.089-.09.12-.12.058-.06.058-.12.118-.149.029-.06.06-.09.089-.149.06-.03.089-.09.149-.12a.633.633,0,0,1,.09-.149c.029-.06.089-.09.118-.12.031-.06.09-.09.12-.148l.118-.12a.3.3,0,0,1,.12-.149c.031-.06.06-.09.089-.149.06-.03.09-.09.12-.12.06-.06.09-.12.12-.149.029-.06.06-.09.089-.15a.485.485,0,0,0,.118-.149l.12-.12.09-.178a.453.453,0,0,1,.118-.12.6.6,0,0,1,.09-.148c.029-.06.059-.089.089-.149a.675.675,0,0,1,.089-.15.688.688,0,0,1,.09-.149l.088-.178c.031-.06.031-.12.06-.149.031-.06.031-.12.06-.179a.416.416,0,0,0,.06-.179c.029-.06.06-.089.06-.149s.029-.12.029-.179v-.356c0-.06.03-.12.03-.178a.373.373,0,0,1-.03-.179.386.386,0,0,1-.029-.179.407.407,0,0,1-.06-.177c-.029-.06-.029-.12-.06-.179s-.06-.089-.06-.149a.3.3,0,0,0-.118-.149.676.676,0,0,0-.089-.15c-.031-.059-.09-.089-.12-.118-.06-.06-.119-.09-.149-.12l-.179-.089c-.029-.03-.089-.03-.149-.06-.058,0-.118-.06-.178-.06a.386.386,0,0,0-.179-.029c-.06-.031-.12,0-.178,0a.538.538,0,0,0-.357,0c-.06,0-.12-.031-.179-.031a.37.37,0,0,1-.178.031c-.06,0-.119.029-.179.029s-.089.06-.149.06-.118.029-.178.029a.372.372,0,0,1-.179.03l-.178.089a.416.416,0,0,0-.179.06.491.491,0,0,0-.149.06c-.06.029-.089.089-.149.089l-.178.089a.689.689,0,0,1-.149.09.677.677,0,0,1-.15.089.3.3,0,0,1-.149.12c-.029.029-.089.06-.12.12-.059.029-.088.089-.118.117a.218.218,0,0,1-.178.06.4.4,0,0,1-.179-.028c-.031-.032-.089-.06-.12-.12a.387.387,0,0,1-.029-.179v-.178c.029-.09,0-.09.029-.179v-.149c0-.089.031-.089.031-.179V354.2c0-.09.029-.09.029-.179a.394.394,0,0,1,.029-.179c0-.088-.029-.088-.029-.177a.384.384,0,0,1,.029-.179v-.178a.374.374,0,0,0,.031-.179v-.179a.382.382,0,0,0,.029-.178v-.179c0-.088.031-.088.031-.179s-.031-.088,0-.177v-.179a.222.222,0,0,1,.06-.149c.029-.06.06-.089.118-.089a.133.133,0,0,1,.15-.03c.059,0,.088.03.148.03.06.029.09.089.15.089a.378.378,0,0,0,.178.029h.357a.272.272,0,0,0,.149-.029h.179c.06-.03.118-.03.178-.06h.178a.386.386,0,0,0,.179-.029c.06,0,.12,0,.149-.03.06,0,.118-.029.178-.029a.373.373,0,0,0,.179-.03.386.386,0,0,0,.179-.029h.178c.06,0,.12-.03.178-.03.031,0,.09.03.15,0h.893c.06,0,.119.03.179.03h.178c.06,0,.12.029.179.029s.118.03.178.03.12.029.179.029c.06.03.12,0,.178.03a.227.227,0,0,1,.149.059.372.372,0,0,1,.179.03.412.412,0,0,1,.178.06.386.386,0,0,0,.179.029.692.692,0,0,1,.149.09.425.425,0,0,1,.178.059c.06.03.09.06.15.09a.69.69,0,0,1,.149.089.294.294,0,0,1,.148.12.68.68,0,0,1,.15.088c.058.032.089.06.149.089.029.06.089.09.118.15.06.029.09.089.119.118a.538.538,0,0,1,.12.15l.118.118c.031.06.09.09.12.15a.693.693,0,0,0,.089.149.429.429,0,0,0,.06.178c.03.06.06.09.09.148s.028.12.059.179c0,.06.06.089.06.149.029.06.029.12.06.179a.43.43,0,0,0,.059.179.37.37,0,0,0,.03.178c0,.06.029.089.029.149a.372.372,0,0,1,.031.179.387.387,0,0,0,.029.179v.356a.369.369,0,0,1,.031.178c0,.06.029.12.029.179s-.029.12-.029.179v.357a.372.372,0,0,0-.031.179c0,.057-.029.117-.029.177a.372.372,0,0,0-.031.179.386.386,0,0,0-.029.179c-.03.059-.03.118-.06.178,0,.06-.029.089-.06.149,0,.06-.06.12-.06.179-.029.06-.06.089-.06.149l-.088.179c-.03.06-.03.088-.06.148l-.09.179c-.029.029-.029.089-.059.149s-.09.089-.12.149-.031.12-.06.149c-.029.06-.089.089-.119.149a.635.635,0,0,1-.089.15.69.69,0,0,1-.118.149c-.03.06-.06.089-.09.149a.6.6,0,0,1-.089.148c-.029.06-.089.089-.12.149a.69.69,0,0,0-.089.149c-.059.03-.059.09-.118.15-.031.029-.06.089-.12.118a.672.672,0,0,1-.089.15.552.552,0,0,1-.119.149l-.12.118a.672.672,0,0,1-.089.15.507.507,0,0,0-.118.149c-.031.028-.06.088-.12.148-.031.032-.09.06-.12.12a.639.639,0,0,0-.089.149c-.03.06-.09.089-.119.12-.06.06-.06.118-.12.149-.029.06-.089.089-.119.12a.62.62,0,0,1-.088.149.512.512,0,0,0-.12.149c-.029.06-.089.088-.12.148-.029.032-.06.091-.12.12a.507.507,0,0,1-.118.149.66.66,0,0,0-.09.149.508.508,0,0,1-.118.15c-.029.029-.06.089-.089.118-.031.06-.09.09-.12.15s-.06.089-.089.149c-.06.06-.06.118-.09.149a.527.527,0,0,0-.118.149c-.031.06-.06.088-.09.148s-.088.091-.118.149-.06.09-.089.15-.06.089-.089.149-.09.089-.12.149-.03.12-.06.179a.6.6,0,0,0-.089.149,28.866,28.866,0,0,0-.179.3c-.029.06-.029.12-.059.179a.6.6,0,0,0-.09.148c0,.06-.06.089-.06.149l-.089.179c0,.06-.029.089-.06.149a.432.432,0,0,0-.06.179c-.029.06-.029.118-.06.178a.233.233,0,0,0-.059.149.373.373,0,0,0-.03.179c-.029.06-.029.12-.06.179a.49.49,0,0,0,0,.207.423.423,0,0,0,.06.178c.06.06.089.12.149.15a.515.515,0,0,0,.208.029c.09,0,.09-.029.179-.029h.178c.089,0,.089.029.179.029h.209c.089,0,.089-.029.178-.029s.089.029.179.029.089-.029.178-.029h.357c.089,0,.089.029.179.029h.893c.06,0,.119-.029.179-.029s.12.029.178.029.12-.029.179-.029h.357a.37.37,0,0,1,.178-.03.386.386,0,0,0,.179-.029c.058,0,.118-.03.178-.03.06-.029.089-.029.149-.06a.386.386,0,0,0,.179-.029c.058-.029.118-.029.178-.06s.089-.029.149-.06l.178-.089a.228.228,0,0,1,.15-.06.33.33,0,0,1,.149.029c.029.03.06.09.089.12,0,.06.031.12,0,.149,0,.06-.029.12-.029.179s-.06.12-.06.179-.031.118-.031.178a.386.386,0,0,0-.029.179.417.417,0,0,0-.06.179v.177a.434.434,0,0,0-.06.179.381.381,0,0,0-.029.178c0,.06-.03.12-.03.179-.029.06-.029.12-.06.179,0,.06-.028.089-.058.149a.37.37,0,0,1-.029.177c0,.06-.03.12-.03.179a.386.386,0,0,0-.029.179.429.429,0,0,1-.06.178.372.372,0,0,1-.031.179.431.431,0,0,1-.059.179.724.724,0,0,1-.15.089c-.058.06-.089.089-.149.089s-.118-.029-.178-.029c-.06-.03-.12-.03-.179-.06h-.178c-.06,0-.118-.03-.178-.03-.06-.029-.12,0-.179-.029h-.715a1.275,1.275,0,0,1-.149-.029c-.06,0-.12.029-.179.029h-3.006c-.06,0-.12.029-.179.029s-.12-.029-.179-.029h-3.006C767.508,369.686,767.478,369.626,767.478,369.567Z" transform="translate(-632.538 -309.954)" fill="#2ca6e0" stroke="rgba(0,0,0,0)" stroke-width="1"/>
    <path id="パス_4" data-name="パス 4" d="M804.066,360.634V360.1a.381.381,0,0,0,.029-.178v-.179c0-.06.03-.12.03-.179V359.2c0-.06.029-.12.029-.178v-.179a.372.372,0,0,1,.031-.179v-.357a.4.4,0,0,0,.028-.179,1.473,1.473,0,0,1,.03-.149c0-.06.029-.12.029-.177s.03-.12.03-.179a.386.386,0,0,1,.029-.179.367.367,0,0,1,.031-.178.416.416,0,0,1,.06-.179v-.179c0-.059.059-.118.059-.178a.372.372,0,0,1,.031-.179c0-.06.029-.088.029-.148a.416.416,0,0,0,.06-.179c.031-.059.031-.118.06-.178a.416.416,0,0,1,.06-.179c0-.029,0-.12.029-.149.03-.06.03-.12.06-.179a.407.407,0,0,0,.06-.177c.031-.032.031-.12.06-.149l.089-.179a.222.222,0,0,1,.06-.149.433.433,0,0,0,.06-.179c.029-.06.058-.089.089-.149l.089-.179a.528.528,0,0,1,.06-.149c.03-.06.089-.089.12-.149s.029-.12.06-.148c.029-.06.088-.091.118-.151s.06-.088.089-.148.09-.089.12-.149c.029-.029.06-.089.12-.12a.693.693,0,0,1,.089-.149.878.878,0,0,0,.268-.268l.118-.12a1.823,1.823,0,0,0,.149-.118c.031-.03.09-.06.12-.09a.537.537,0,0,1,.149-.117.631.631,0,0,1,.149-.091c.06-.028.089-.088.149-.117s.09-.06.149-.09.12-.029.179-.06a.678.678,0,0,1,.149-.089c.06-.029.12-.029.178-.06.06,0,.09-.029.15-.06.059,0,.118-.06.178-.06a.381.381,0,0,1,.178-.029.386.386,0,0,1,.179-.029c.029-.03.089-.03.149-.03.06-.029.12-.029.179-.06h.178a.386.386,0,0,1,.179-.029c.059,0,.118-.03.178-.03h.179c.06,0,.12.03.178.03h.357a.387.387,0,0,0,.179.029.367.367,0,0,1,.178.03c.06,0,.12.029.179.029.059.03.118.03.178.06.06,0,.089.029.149.029.06.03.12.03.178.06a.433.433,0,0,1,.179.06c.06,0,.089.06.149.06l.178.089c.06.03.09.06.15.09a.228.228,0,0,1,.149.06.665.665,0,0,1,.149.117l.179.091.118.117a.534.534,0,0,1,.149.12c.029.03.089.06.12.089a.511.511,0,0,1,.118.15.53.53,0,0,1,.15.118c.029.03.089.06.118.12a1.9,1.9,0,0,0,.119.149c.029.03.06.09.089.12.029.06.089.089.12.149s.089.09.12.148a.393.393,0,0,0,.089.151.649.649,0,0,0,.089.148c.03.06.059.089.089.149a.434.434,0,0,1,.06.179.63.63,0,0,1,.089.149c.031.06.06.089.089.149s.031.12.06.179.06.089.09.149.029.12.059.179.031.117.06.149c.031.06.031.117.06.177a.418.418,0,0,1,.06.179c.03.06.06.089.06.149a.429.429,0,0,1,.059.179.37.37,0,0,1,.03.178.433.433,0,0,1,.06.179c.029.028.029.088.029.148a.372.372,0,0,1,.031.179.383.383,0,0,1,.029.178.433.433,0,0,1,.06.179c0,.06.029.12.029.179a.367.367,0,0,1,.031.178.386.386,0,0,1,.029.179.434.434,0,0,0,.06.179v.177a.308.308,0,0,0,.031.149v.179c0,.06.029.12.029.179a.378.378,0,0,1,.029.178v.179c0,.06.031.12.031.179v.357a.377.377,0,0,1,.029.177.373.373,0,0,0,.03.179v.179c0,.06-.03.118-.03.178a.373.373,0,0,1,.03.179v.357c0,.06.029.12.029.179s-.029.12-.029.177v.716c0,.06-.03.12-.03.179v.356c0,.06-.029.118-.029.178v.359c0,.06-.031.118-.031.178s-.029.12-.029.179v.177a.416.416,0,0,1-.06.179v.357c-.029.06-.06.09-.06.15a.383.383,0,0,1-.029.178.372.372,0,0,1-.031.179c0,.06-.029.12-.029.178a.433.433,0,0,1-.06.179.386.386,0,0,1-.029.179.363.363,0,0,1-.031.177c0,.06-.029.09-.06.149a.386.386,0,0,1-.029.179c0,.06-.03.12-.03.179-.029.06-.029.12-.059.178s-.06.09-.06.15a.378.378,0,0,0-.029.178l-.09.179c-.029.06-.029.12-.06.148a.431.431,0,0,1-.059.179c-.031.06-.06.089-.09.149s-.029.12-.06.178a.507.507,0,0,0-.059.15l-.09.178c-.029.06-.06.09-.089.148s-.059.091-.089.151-.089.088-.12.148-.029.12-.089.149a29.3,29.3,0,0,1-.179.3c-.029.06-.089.09-.118.15-.03.029-.09.059-.119.118-.059.03-.089.09-.149.12a.513.513,0,0,1-.12.149c-.029.03-.059.09-.118.12a.409.409,0,0,0-.12.12c-.06.028-.089.088-.149.117a.689.689,0,0,1-.149.09l-.12.12c-.059.029-.118.029-.178.089-.06.029-.09.029-.149.06a.673.673,0,0,0-.15.089.407.407,0,0,1-.178.06c-.06.029-.089.06-.149.089s-.12.03-.179.06a.434.434,0,0,0-.178.06,1.334,1.334,0,0,0-.149.029.37.37,0,0,1-.178.03.433.433,0,0,1-.179.06c-.06,0-.118.029-.178.029s-.12.03-.179.03-.119-.03-.179-.03a.365.365,0,0,1-.178.03c-.058,0-.118.029-.178.029s-.12-.029-.179-.029h-.178c-.06,0-.12-.03-.179-.03a.381.381,0,0,1-.178-.029h-.179c-.06,0-.089-.03-.149-.06h-.179c-.06-.03-.118-.03-.178-.06a.406.406,0,0,1-.178-.06.228.228,0,0,1-.15-.06.423.423,0,0,0-.178-.06.6.6,0,0,1-.149-.089c-.06-.029-.12-.029-.179-.06s-.089-.06-.149-.089-.089-.089-.149-.12a.633.633,0,0,1-.149-.089c-.059-.03-.089-.06-.149-.09a.293.293,0,0,0-.149-.117c-.029-.032-.06-.091-.119-.12-.029-.06-.089-.089-.118-.12-.06-.06-.119-.089-.149-.118a.536.536,0,0,0-.119-.15.636.636,0,0,1-.089-.149c-.06-.029-.09-.089-.12-.12a.664.664,0,0,0-.089-.149.514.514,0,0,1-.12-.149.637.637,0,0,1-.089-.149c-.029-.06-.089-.088-.12-.148s-.029-.091-.059-.151a.752.752,0,0,0-.119-.148c-.031-.06-.031-.12-.06-.178a.628.628,0,0,1-.089-.15c-.031-.059-.031-.118-.06-.178a.225.225,0,0,1-.06-.149.417.417,0,0,1-.06-.179c-.029-.06-.059-.088-.089-.148s-.029-.12-.06-.179-.029-.12-.06-.178c0-.031-.029-.12-.029-.15-.031-.059-.031-.118-.06-.178a.434.434,0,0,1-.06-.179c-.029-.06-.029-.12-.06-.149,0-.06-.029-.12-.029-.179-.031-.06,0-.117-.031-.177a.43.43,0,0,0-.059-.179v-.179a.406.406,0,0,1-.06-.178c-.031-.06,0-.12-.031-.179,0-.06-.029-.12-.029-.178s-.03-.12-.03-.179a.329.329,0,0,0-.029-.149v-.179a.373.373,0,0,1-.03-.179.386.386,0,0,1-.028-.177v-.179c0-.06-.031-.118-.031-.178s-.029-.12-.029-.179v-.357c0-.06-.03-.12-.03-.179v-.177c0-.06-.029-.12-.029-.179s.029-.12.029-.179v-.178c0-.06-.029-.12-.029-.179v-.535Zm5.33-6.015a.379.379,0,0,0-.178.029c-.06,0-.09.03-.15.03l-.178.089c-.06.029-.089.06-.149.089a.533.533,0,0,0-.149.12c-.03.029-.06.089-.12.12a.512.512,0,0,1-.12.149c-.029.028-.029.088-.06.148s-.088.089-.118.149a.416.416,0,0,1-.06.179c-.029.06-.029.089-.06.149a.43.43,0,0,0-.059.179c-.031.06-.031.12-.06.178,0,.06-.03.09-.03.15a.411.411,0,0,0-.06.177.386.386,0,0,0-.029.179c-.029.06-.029.12-.06.178a.385.385,0,0,1-.029.179.373.373,0,0,1-.03.179c0,.06-.029.089-.029.149v.178a.434.434,0,0,1-.06.179c0,.06.029.12,0,.179v.177a.372.372,0,0,0-.031.179.386.386,0,0,1-.029.179v.537a.379.379,0,0,0-.029.178v.356c-.029.06,0,.12,0,.179s-.029.12-.029.179v1.607c0,.06.029.12.029.179s-.029.12-.029.179a.382.382,0,0,0,.029.177v.537c0,.06.029.12.029.179v.178c0,.06.029.12.029.179v.356c0,.06.031.12.031.179v.178c0,.06.029.12.029.179.031.06.031.12.06.179,0,.059-.029.118,0,.178a1.232,1.232,0,0,0,.03.149.385.385,0,0,0,.029.179c0,.06.03.12.03.179.029.06.029.117.059.177,0,.06.03.12.03.179a.525.525,0,0,1,.06.149c.029.06.029.12.06.179a.384.384,0,0,1,.029.178.677.677,0,0,0,.089.15l.09.178c.029.06.06.088.088.148s.06.091.09.151.06.088.089.148c.06.029.089.089.149.12.03.059.09.089.12.118a.634.634,0,0,1,.149.09.425.425,0,0,0,.178.059c.06.031.09.06.15.09.059,0,.118.029.178.029h.357a.384.384,0,0,1,.178-.029.416.416,0,0,1,.179-.06c.031-.031.12-.06.149-.089.06-.03.12-.03.149-.09a.528.528,0,0,0,.149-.118c.031-.03.09-.06.12-.12a.749.749,0,0,0,.12-.148c.029-.032.029-.091.089-.151.029-.06.06-.088.089-.148a.634.634,0,0,1,.09-.149.416.416,0,0,1,.06-.179c0-.059.028-.118.028-.178.031-.06.06-.09.09-.149,0-.06.029-.12.029-.179a.372.372,0,0,0,.031-.179.422.422,0,0,0,.059-.177c.031-.06.031-.12.06-.179v-.179c.03-.059.03-.089.06-.149v-.178c0-.06.03-.12.03-.179a.386.386,0,0,1,.029-.179.369.369,0,0,1,.031-.178c0-.06-.031-.12,0-.179v-.356a.387.387,0,0,0,.029-.179v-.178c0-.06.029-.12.029-.179a.386.386,0,0,1,.029-.179V360.99c0-.057.03-.117.03-.177s-.03-.12-.03-.179v-1.073c0-.06-.029-.117-.029-.177v-.537c0-.06-.029-.12-.029-.179v-.178c0-.06-.029-.12-.029-.179v-.179a.367.367,0,0,0-.031-.177c0-.06-.029-.12-.029-.179a.373.373,0,0,0-.03-.179v-.149c0-.06,0-.149-.029-.178a.373.373,0,0,0-.03-.179c0-.06-.029-.12-.029-.179a.365.365,0,0,1-.031-.178.431.431,0,0,0-.059-.179c0-.06-.031-.12-.031-.177-.029-.06-.029-.12-.06-.15,0-.059-.029-.118-.029-.178l-.089-.179a.386.386,0,0,1-.029-.179.634.634,0,0,1-.09-.149c-.029-.06-.089-.089-.118-.149-.031-.028-.031-.12-.06-.148-.03-.06-.09-.089-.12-.149-.06-.03-.089-.09-.12-.12-.06-.029-.089-.089-.149-.12a.668.668,0,0,0-.149-.12c-.029-.029-.089-.029-.149-.059s-.119-.03-.179-.06c-.059,0-.118-.031-.178-.031h-.178A.372.372,0,0,0,809.4,354.619Z" transform="translate(-624.503 -309.954)" fill="#2ca6e0" stroke="rgba(0,0,0,0)" stroke-width="1"/>
    <path id="パス_5" data-name="パス 5" d="M843.8,357.112c0-.089-.031-.089-.031-.179s.031-.089.031-.178-.031-.09-.031-.179.031-.088.031-.179v-.148c0-.089-.031-.089-.031-.178v-.179c0-.089.031-.089.031-.179v-.178c0-.09-.031-.09-.031-.179a.268.268,0,0,0-.029-.148c0-.029-.031-.06-.09-.089-.029-.031-.089-.031-.118-.06-.06,0-.09.029-.15.029-.089.031-.089,0-.178.031a.87.87,0,0,1-.149.06.716.716,0,0,1-.149.057,1.132,1.132,0,0,0-.149.06h-.179c-.089.032-.06.06-.149.091a.692.692,0,0,1-.238.028l-.179-.088c-.06-.06-.118-.091-.178-.149a.5.5,0,0,1-.031-.21v-.685c0-.089.031-.089.031-.178s-.031-.09-.031-.148.031-.12.031-.179c.029-.032.029-.089.089-.149a.406.406,0,0,1,.12-.09.225.225,0,0,1,.149-.029.386.386,0,0,1,.179-.029c.059,0,.118-.03.178-.03.06-.029.089-.06.149-.06.06-.029.12-.029.178-.06a.431.431,0,0,0,.179-.059.225.225,0,0,1,.149-.06c.06-.03.12-.03.149-.06a.634.634,0,0,0,.149-.09l.179-.089c.06-.029.089-.06.148-.089s.09-.06.15-.09.089-.059.149-.089l.12-.12a.517.517,0,0,0,.149-.117.631.631,0,0,1,.149-.091l.118-.117a.531.531,0,0,1,.149-.12.633.633,0,0,1,.09-.149.291.291,0,0,1,.149-.12c.06,0,.12-.03.207-.03h1.52a1.235,1.235,0,0,1,.149.03.638.638,0,0,1,.149.089.524.524,0,0,1,.118.149c0,.06.031.12.031.179,0,.088-.031.088-.031.179s.031.088.031.177V353c0,.089-.031.089-.031.178s.031.09.031.179v.357c0,.088-.031.088-.031.179s.031.088.031.177v.716c0,.089-.031.089-.031.178s.031.09.031.179v.356c0,.09-.031.09-.031.179s.031.089.031.179v.713c0,.089-.031.089-.031.179v.178c0,.09.031.09.031.179v.357c0,.089-.031.089-.031.179s.031.089.031.177v.537c0,.09-.031.09-.031.179v.179c0,.089.031.089.031.178v.893c0,.09-.031.09-.031.179v.357c0,.089.031.089.031.179v.177c0,.091-.031.091-.031.179s.031.089.031.179-.031.089-.031.178v.359c0,.089.031.089.031.178s-.031.09-.031.179v.177c0,.09.031.09.031.179s-.031.089-.031.179.031.089.031.178-.031.09-.031.179.031.089.031.149v.179c0,.089-.031.089-.031.177s.031.091.031.179-.031.089-.031.179.031.089.031.178v.179c0,.089-.031.089-.031.178v.894c0,.089.031.089.031.178s-.031.09-.031.179v.179c0,.089.031.089.031.178v1.25c0,.09-.031.15-.031.21s.031.117.031.177v.357c0,.06.029.12.029.179v.209c0,.06.06.12.06.179s.031.12.031.178c.029.06.029.12.06.179,0,.06.029.12.029.179.029.057.06.088.089.148a.667.667,0,0,0,.12.149c.029.06,0,.12,0,.179.029.029,0,.089-.029.149l-.09.089c-.06.031-.089.06-.149.06h-1.25c-.06,0-.12.029-.178.029s-.12-.029-.179-.029h-2.144a.272.272,0,0,1-.149-.029c-.031-.031-.09-.06-.12-.12a.33.33,0,0,1-.029-.149.43.43,0,0,1,.059-.179.634.634,0,0,0,.09-.149c.029-.06.06-.09.089-.148s.03-.12.06-.179a.418.418,0,0,1,.06-.179c0-.059.029-.118.029-.178s.031-.12.031-.179.029-.12.029-.209c0-.06-.029-.12-.029-.179a.378.378,0,0,0,.029-.178V367.3c0-.06.031-.12.031-.21v-.357c0-.089-.031-.089-.031-.178v-.179c0-.088.031-.088.031-.179v-.177c0-.09-.031-.09-.031-.179s.031-.089.031-.178V364.08c0-.089-.031-.089-.031-.178s.031-.09.031-.179-.031-.089-.031-.179.031-.089.031-.177v-.179c0-.089-.031-.089-.031-.178v-.179c0-.089.031-.089.031-.179s-.031-.089-.031-.178.031-.09.031-.179v-1.609c0-.088-.031-.088-.031-.177s.031-.09.031-.179-.031-.089-.031-.178.031-.09.031-.179v-.179c0-.089-.031-.089-.031-.178s.031-.09.031-.179v-.179c0-.088-.031-.088-.031-.177V358.9c0-.089.031-.089.031-.178v-.179c0-.089-.031-.089-.031-.179v-.178c0-.09.031-.09.031-.179v-.535c-.031-.089,0-.089,0-.178Z" transform="translate(-616.216 -309.917)" fill="#2ca6e0" stroke="rgba(0,0,0,0)" stroke-width="1"/>
    <path id="パス_6" data-name="パス 6" d="M885.931,360.933v.177c0,.06.031.12.031.179s-.031.118-.031.178v.179c-.029.06,0,.12,0,.179V362c0,.06-.029.12-.029.179v.178c0,.06-.031.12-.031.179v.179c0,.06-.029.12-.029.178v.209c0,.06-.029.09-.029.15a.371.371,0,0,0-.029.177v.179c0,.06-.031.149-.031.179V364c-.029.059-.06.089-.06.149v.178c-.029.06-.029.12-.06.179,0,.06-.029.12-.029.179s-.029.117-.029.177a.433.433,0,0,1-.06.179c0,.06-.031.12-.031.178-.029.06-.029.12-.06.179a.387.387,0,0,1-.029.179c0,.06-.031.089-.06.149a.386.386,0,0,1-.029.179.407.407,0,0,0-.06.178c-.031.06-.031.12-.06.179,0,.06-.058.088-.058.148-.031.06-.031.12-.06.179l-.09.178c-.029.03-.029.09-.06.149l-.089.179a.631.631,0,0,0-.089.149c-.031.06-.031.09-.06.148s-.089.091-.12.151a.645.645,0,0,1-.089.148l-.089.178c-.029.03-.06.09-.12.15-.029.029-.06.089-.118.118a.537.537,0,0,1-.12.15l-.12.118c-.029.03-.06.09-.12.15a.671.671,0,0,1-.148.089.536.536,0,0,1-.12.149c-.031.028-.089.06-.12.088-.06.06-.12.06-.178.12-.031.029-.09.06-.12.089l-.178.09a.675.675,0,0,1-.15.089c-.058.029-.089.089-.149.089-.06.03-.12.03-.178.06s-.089.06-.149.09a.43.43,0,0,1-.179.059.412.412,0,0,1-.178.06c-.031.03-.09.03-.149.06-.06,0-.12.031-.179.031-.06.029-.118.029-.178.059h-.179a.416.416,0,0,1-.179.06.37.37,0,0,0-.178.03h-.178a.386.386,0,0,0-.179.029h-.178c-.06,0-.12.03-.179.03h-.178c-.06,0-.12-.03-.179-.03h-.207c-.06,0-.12-.029-.179-.029a.372.372,0,0,1-.179-.03h-.178a.406.406,0,0,1-.178-.06h-.179a.431.431,0,0,0-.179-.059c-.06-.031-.118-.031-.178-.06-.06,0-.12-.03-.178-.03h-.179a.5.5,0,0,0-.209.03.48.48,0,0,0-.149.06c-.06.029-.089.059-.149.059h-.179c-.029-.029-.089-.059-.118-.118v-.149a.37.37,0,0,0-.031-.179v-.179c-.029-.089,0-.089-.029-.177v-.151a.366.366,0,0,0-.03-.177c0-.089.03-.089,0-.179a.379.379,0,0,0-.029-.178v-.507a.366.366,0,0,1-.03-.177.393.393,0,0,0-.028-.179c0-.089.028-.089,0-.179v-.178c0-.09-.031-.09-.031-.179v-.328c0-.089-.029-.089-.029-.177-.03-.091,0-.091,0-.179a.386.386,0,0,1,.029-.179l.118-.118a.187.187,0,0,1,.179,0,.429.429,0,0,1,.179.059.512.512,0,0,0,.118.15c.029.029.06.089.089.117a.494.494,0,0,0,.149.12l.12.12.179.089c.029.031.06.09.118.12a.417.417,0,0,1,.179.06.228.228,0,0,0,.149.06c.06.029.089.06.149.089.06,0,.12.029.179.029.058.031.118.031.178.06.06,0,.089.03.149.06h.179c.058,0,.118.03.178.03h.357c.06,0,.12-.03.178-.03h.21a.422.422,0,0,1,.178-.06c.029-.029.089-.029.149-.06a.432.432,0,0,1,.179-.059.636.636,0,0,1,.149-.09c.06-.029.088-.06.148-.089a.51.51,0,0,0,.12-.149.532.532,0,0,0,.149-.12c.031-.028.06-.088.09-.12a.521.521,0,0,0,.118-.148c.031-.06.09-.089.12-.149.031-.03.031-.089.06-.149s.059-.09.089-.149l.089-.179a.225.225,0,0,0,.06-.149.435.435,0,0,0,.06-.179.228.228,0,0,0,.06-.149c.029-.06.029-.12.06-.179a.407.407,0,0,1,.06-.177c0-.06.029-.12.029-.179a.386.386,0,0,1,.029-.179,1.227,1.227,0,0,0,.031-.149.378.378,0,0,1,.029-.178c0-.06.031-.12.031-.179v-.356a.387.387,0,0,1,.029-.179c0-.06-.029-.089-.089-.12a.131.131,0,0,0-.149-.029c-.06.029-.09.089-.15.12a1.391,1.391,0,0,0-.149.029l-.178.088a.4.4,0,0,1-.179.06.217.217,0,0,1-.149.06.4.4,0,0,1-.178.06c-.06.029-.12.029-.178.06-.06,0-.12.029-.179.029a.372.372,0,0,1-.179.031c-.06,0-.118.029-.178.029s-.12.03-.178.03h-.179a.386.386,0,0,1-.179.029h-.715a.381.381,0,0,1-.178-.029c-.06,0-.12-.03-.178-.03s-.12-.029-.179-.029a1.223,1.223,0,0,1-.149-.031.434.434,0,0,0-.179-.06c-.06-.029-.12-.029-.179-.057a.453.453,0,0,1-.178-.06.628.628,0,0,0-.149-.091c-.06-.028-.089-.06-.149-.088a.632.632,0,0,1-.149-.089.656.656,0,0,1-.149-.09.6.6,0,0,1-.149-.089c-.06-.029-.089-.089-.149-.12-.03-.059-.09-.089-.118-.118a.515.515,0,0,1-.12-.15.688.688,0,0,0-.149-.118c-.031-.06-.06-.09-.09-.15-.029-.029-.06-.089-.118-.149a.634.634,0,0,1-.09-.149.508.508,0,0,0-.12-.148c-.029-.029-.029-.089-.059-.149a.631.631,0,0,0-.089-.149c-.031-.06-.031-.12-.06-.179s-.089-.089-.089-.149c-.031-.06-.031-.12-.06-.179s-.06-.089-.09-.149a.386.386,0,0,0-.029-.179.362.362,0,0,1-.031-.177l-.089-.179v-.179a.422.422,0,0,1-.06-.178.227.227,0,0,1-.029-.149.372.372,0,0,1-.031-.179.4.4,0,0,0-.028-.179.363.363,0,0,0-.031-.177V359.2c0-.06-.029-.12-.029-.178s-.031-.12-.031-.179V357.6c0-.059.031-.118.031-.178v-.179c0-.06.029-.118.029-.178a.372.372,0,0,1,.031-.179V356.7c0-.06.028-.117.028-.177.031-.06,0-.12.031-.179a.407.407,0,0,1,.06-.178.386.386,0,0,1,.029-.179c0-.06.031-.12.031-.179.029-.06.029-.12.058-.178a.372.372,0,0,1,.031-.179c0-.06.029-.088.06-.148a.416.416,0,0,1,.06-.179c.029-.06.029-.12.06-.178.029-.03.029-.12.059-.15a.428.428,0,0,1,.06-.178c.031-.06.06-.09.09-.149s.029-.12.058-.179.06-.089.089-.149a.627.627,0,0,1,.12-.148c.031-.06.031-.12.089-.151l.09-.177.118-.12c.03-.06.06-.089.09-.149a.536.536,0,0,0,.12-.149.4.4,0,0,1,.118-.12c.029-.06.089-.089.118-.149a.534.534,0,0,0,.15-.12.453.453,0,0,1,.118-.12c.031-.029.089-.06.149-.12a.77.77,0,0,1,.149-.089.793.793,0,0,1,.15-.12.734.734,0,0,1,.149-.088.621.621,0,0,1,.148-.089c.06-.031.09-.06.15-.09s.118-.029.178-.059.089-.06.149-.06l.179-.09a.417.417,0,0,0,.178-.06c.03,0,.12-.029.149-.029.06-.029.12-.029.179-.06.06,0,.12-.029.179-.029a.365.365,0,0,1,.178-.03h.178c.06-.029.119-.029.179-.06h.894c.058,0,.118.03.178.03h.178c.06,0,.12.029.179.029a.373.373,0,0,1,.179.03c.058,0,.118.029.178.029.06.03.118.03.149.06a.386.386,0,0,1,.179.029.433.433,0,0,1,.178.06c.059,0,.118.03.178.03.06.029.09.06.149.089a.722.722,0,0,1,.15.089l.178.09c.029.029.089.029.149.089.06.03.12.03.149.06.06.028.089.088.149.12a.677.677,0,0,0,.15.088c.028.06.088.089.118.12a.508.508,0,0,0,.149.118.516.516,0,0,0,.12.15c.029.029.089.06.118.118.031.03.06.09.12.15a.6.6,0,0,1,.089.149l.12.12a.7.7,0,0,0,.089.149c.031.06.089.089.12.149s.029.12.06.148l.089.179c.029.06.029.12.06.149.029.06.089.12.089.179a.223.223,0,0,1,.06.149l.089.178c.029.03.029.09.06.15a.422.422,0,0,1,.06.178c.029.06.029.12.059.179a.54.54,0,0,0,.06.148c0,.06.031.12.031.179.029.059.029.118.06.178a1.275,1.275,0,0,0,.029.149c.031.06.031.12.06.179v.179a.423.423,0,0,1,.06.177c0,.06.029.12.029.179.03.06,0,.12,0,.179a.407.407,0,0,1,.06.178v.179c0,.06.031.12.031.178.029.06,0,.12.029.179a1.277,1.277,0,0,0,.029.149v.207a1.464,1.464,0,0,1,.029.151.367.367,0,0,0,.031.177c0,.06-.031.12-.031.179a.367.367,0,0,1,.031.178c0,.06.029.12.029.179v1.072c0,.06.031.12.031.178v.716h-.031Zm-3.365-1.193v-.179c0-.06-.029-.117-.029-.177s.029-.12.029-.179v-.149c0-.06-.029-.12-.029-.179v-.715c0-.06-.031-.12-.031-.179s.031-.12.031-.177-.031-.12-.031-.179c-.028-.06,0-.12,0-.179a.4.4,0,0,0-.028-.178.372.372,0,0,0-.031-.179v-.149a.387.387,0,0,1-.029-.179c-.031-.06,0-.12-.031-.177,0-.06-.029-.12-.029-.179a.372.372,0,0,1-.031-.179.378.378,0,0,1-.029-.178.53.53,0,0,1-.06-.149c-.029-.06-.029-.12-.06-.179,0-.06-.029-.12-.029-.179a.685.685,0,0,0-.09-.149.563.563,0,0,0-.089-.148c-.029-.06-.029-.12-.06-.179l-.118-.118c-.06-.06-.089-.12-.12-.15a.632.632,0,0,0-.149-.089c-.029-.06-.089-.089-.12-.12a.428.428,0,0,0-.178-.06.632.632,0,0,1-.15-.089.383.383,0,0,1-.178-.029h-.357c-.06.029-.12.029-.178.06a.386.386,0,0,0-.179.029l-.178.089c-.03.031-.09.06-.12.09a.526.526,0,0,1-.149.118l-.118.12a.535.535,0,0,1-.15.12c-.029.06-.058.089-.089.149l-.089.179-.119.117a3697.984,3697.984,0,0,0-.12.359.639.639,0,0,0-.089.149c0,.06-.029.12-.029.179a.5.5,0,0,0-.06.149.423.423,0,0,0-.06.177c-.029.06,0,.12,0,.179l-.089.179v.178a.372.372,0,0,1-.031.179v.178c0,.06-.029.12-.029.179v.356c0,.06-.029.12,0,.179v.179a.383.383,0,0,0,.029.178v.179a.365.365,0,0,0,.031.178V359l.089.179a.362.362,0,0,0,.031.177.386.386,0,0,0,.029.179c0,.06.06.089.06.149.029.06.029.12.059.179a.491.491,0,0,1,.06.149.663.663,0,0,0,.12.149c.029.06.029.12.06.179a.5.5,0,0,0,.149.118.724.724,0,0,0,.089.15c.06.029.09.089.15.117l.118.12a.4.4,0,0,0,.178.06.78.78,0,0,1,.15.089.369.369,0,0,1,.178.03h.178a.568.568,0,0,0,.209-.03h.359c.06-.029.118-.029.178-.057a.44.44,0,0,0,.178-.06c.06-.032.12-.032.179-.06s.089-.06.149-.091l.178-.088a.676.676,0,0,1,.15-.089c.059-.03.089-.09.149-.12.029-.06.089-.089.12-.149a.553.553,0,0,0,.149-.12c.029-.029.06-.089.118-.12a.18.18,0,0,0,.029-.118Z" transform="translate(-608.813 -309.954)" fill="#2ca6e0" stroke="rgba(0,0,0,0)" stroke-width="1"/>
    <path id="パス_7" data-name="パス 7" d="M732.9,345.717a.419.419,0,0,1-.184-.154.43.43,0,0,1-.046-.215.363.363,0,0,1,.093-.228l.137-.278c.046-.049.046-.181.093-.272a.365.365,0,0,0,.091-.228l.138-.279a.561.561,0,0,1,.046-.268v-.262c0-.087.046-.223.046-.31v-.262c0-.089.045-.181.045-.268v-1.356c0-.132.046-.137.046-.268v-.744c0-.132-.046-.127-.046-.259s.046-.135.046-.267v-.262c0-.132-.046-.127-.046-.257s.046-.137.046-.268v-.262c0-.132-.046-.127-.046-.257v-.526c0-.13.046-.135.046-.267s-.046-.127-.046-.257.046-.137.046-.268-.046-.126-.046-.257.046-.137.046-.267-.046-.127-.046-.257.046-.137.046-.268V335.6c0-.132-.046-.127-.046-.257v-.526c0-.132.046-.137.046-.267v-.263c0-.13-.046-.126-.046-.257s.046-.135.046-.267V333.5c0-.132-.046-.127-.046-.259v-.263c0-.132.046-.137.046-.267s-.046-.127-.046-.259.046-.135.046-.267-.046-.127-.046-.257.046-.137.046-.268-.046-.126-.046-.257v-.262c0-.132.046-.137.046-.267s-.046-.127-.046-.259.046-.135.046-.267-.046-.126-.046-.257.046-.137.046-.267v-.263c0-.13-.046-.126-.046-.257s.046-.137.046-.267-.046-.127-.046-.257.046-.137.046-.268-.046-.126-.046-.257v-.262c0-.132.046-.137.046-.268s-.046-.126-.046-.257.046-.137.046-.267v-2.321c0-.13-.046-.126-.046-.257v-.524c0-.132.046-.137.046-.268s-.046-.126-.046-.257V322.21a.513.513,0,0,1-.045-.259.5.5,0,0,0-.046-.257.585.585,0,0,0-.046-.3.518.518,0,0,0-.045-.259.552.552,0,0,0-.093-.252c0-.087-.045-.126-.091-.209s-.046-.17-.091-.252l-.138-.248a.289.289,0,0,1-.093-.207.805.805,0,0,1,.093-.23c0-.043.091-.142.138-.189.091-.01.138-.059.229-.07l.276-.029.277-.029.276-.029.276-.029c.091-.01.183.024.276.016s.183-.063.276-.073l.276-.029.276-.028.276-.028.276-.027.277-.028.276-.027.276-.028.276-.027.277-.027.276-.027.276-.026.276-.026.276-.027c.091-.009.184.028.276.02s.184-.062.276-.071a.476.476,0,0,1,.231.067c.046,0,.091.079.138.118a.433.433,0,0,1,.046.216.551.551,0,0,1-.046.266,1.069,1.069,0,0,0-.138.232c-.046.09-.046.179-.093.271s-.091.139-.138.231a.563.563,0,0,1-.045.267.647.647,0,0,1-.093.271v.307a.559.559,0,0,0-.045.266c0,.089-.046.181-.046.267v.262c0,.089-.046.18-.046.267s.046.172.046.259v.307c0,.13-.046.135-.046.266s.046.128.046.259v.262c0,.132-.046.137-.046.267s.046.127.045.259-.045.135-.045.267v.262c0,.132.045.127.045.259s-.045.135-.045.267.045.127.045.215c0,.132-.045.135-.045.267v.262c0,.132.045.127.045.259s-.045.135-.045.267v.262c0,.132.045.127.045.259s-.045.135-.045.267.045.127.045.257v.526c0,.132-.045.135-.045.267v.524c0,.132.045.127.045.259s-.045.135-.045.267v.262c0,.132.045.127.045.259s-.045.135-.045.267v.524c0,.132.045.127.045.259s-.045.135-.045.267.045.127.045.259-.045.135-.045.266v.526c0,.131.045.127.045.259v.263c0,.132-.045.135-.045.267v.788c0,.13.045.127.045.257v1.576c0,.132-.045.135-.045.267s.045.127.045.259v.262c0,.13-.045.135-.045.267v.262c0,.132.045.127.045.259s-.045.135-.045.266v.263c0,.131.045.127.045.257v.263c0,.13-.045.135-.045.266s.045.128.045.259v.262c0,.132-.045.137-.045.224,0,.132.045.127.045.259s-.045.135-.045.267v.524c0,.132.046.127.046.259v.262c0,.132-.046.135-.046.267v.57c0,.087.046.17.046.259v.787a2.687,2.687,0,0,0,.091.3c0,.088.046.171.046.257a.5.5,0,0,0,.046.259.52.52,0,0,0,.045.26c.046.083.046.17.093.255s.091.122.138.2a.831.831,0,0,0,.138.206c.046.084.046.171.091.254a1.982,1.982,0,0,0-.045.224.542.542,0,0,1-.184.19.494.494,0,0,1-.231.066l-.276.026c-.091.009-.184.061-.276.07s-.184-.027-.276-.018l-.276.026-.276.027-.276.027-.277.027-.276.027-.276.027-.276.027-.277.028-.276.028-.276.028-.276.028-.276.028-.276.029-.276.028-.276.029-.276.029-.277.03-.276.029A.458.458,0,0,1,732.9,345.717Z" transform="translate(-640.183 -317.152)" fill="#2ca6e0" stroke="rgba(0,0,0,0)" stroke-width="1"/>
    <path id="パス_8" data-name="パス 8" d="M746.746,339.476a.384.384,0,0,1,.184-.185.714.714,0,0,1,.277-.106.368.368,0,0,1,.229.117c.091.039.138.081.229.117.093.083.137.166.184.209s.183.074.23.117a.9.9,0,0,0,.229.118,1.636,1.636,0,0,1,.23.117c.07.044.183.032.229.073l.276.116c.093.039.138.079.231.118a.632.632,0,0,1,.276.072,2.037,2.037,0,0,0,.229.03c.091.039.184.034.277.073a2.077,2.077,0,0,1,.229.031,30.433,30.433,0,0,1,.551.059.615.615,0,0,0,.277.028l.276-.015.276-.015.231-.012a.649.649,0,0,1,.276-.056l.276-.013c.091,0,.183-.054.276-.059a.619.619,0,0,1,.276-.057.879.879,0,0,1,.231-.1l.276-.144a.471.471,0,0,0,.229-.1c.07-.051.185-.11.229-.143.071-.051.185-.109.23-.141.071-.051.184-.1.231-.141.091-.091.134-.177.183-.227s.138-.093.23-.185c.045-.045.091-.135.138-.181a.808.808,0,0,0,.183-.228.984.984,0,0,0,.139-.223c.045-.089.091-.135.138-.224s.059-.179.091-.224c.05-.068.046-.176.091-.266a.738.738,0,0,0,.093-.222.553.553,0,0,0,.045-.265.54.54,0,0,0,.046-.265c0-.089.046-.178.046-.265v-.788c-.046-.087-.046-.173-.093-.259,0-.088-.045-.129-.091-.216a.6.6,0,0,0-.091-.259.32.32,0,0,0-.093-.215l-.138-.256-.184-.167c-.048-.045-.091-.171-.138-.213a.883.883,0,0,0-.138-.213,2.749,2.749,0,0,0-.23-.163.713.713,0,0,0-.183-.212c-.045-.04-.18-.074-.23-.121s-.138-.124-.183-.165c-.093-.04-.138-.126-.231-.166l-.183-.167-.277-.117c-.046-.041-.091-.128-.184-.166a1.7,1.7,0,0,1-.229-.165,1.485,1.485,0,0,0-.229-.12c-.093-.04-.138-.081-.23-.121a.726.726,0,0,1-.231-.163.938.938,0,0,0-.229-.12c-.09-.039-.138-.081-.229-.12s-.138-.08-.231-.12-.138-.081-.229-.12a1.407,1.407,0,0,0-.231-.162c-.044-.028-.161-.12-.229-.163-.044-.027-.161-.074-.23-.118-.043-.028-.137-.123-.184-.166a.889.889,0,0,0-.229-.163c-.046-.04-.138-.079-.184-.121-.091-.082-.182-.117-.229-.161s-.138-.082-.23-.163c-.045-.041-.134-.12-.184-.165s-.138-.123-.183-.163l-.23-.206c-.045-.04-.091-.127-.138-.167-.091-.083-.137-.166-.183-.209s-.138-.079-.184-.163c-.091-.083-.182-.117-.231-.162s-.091-.17-.138-.21a1.679,1.679,0,0,0-.138-.211,2.176,2.176,0,0,0-.184-.207c-.045-.085-.045-.173-.091-.257a.877.877,0,0,1-.138-.211c-.046-.084-.091-.126-.139-.21s-.045-.173-.09-.257-.093-.126-.139-.21a.572.572,0,0,0-.091-.256.306.306,0,0,0-.093-.215c0-.087,0-.218-.045-.26,0-.087-.046-.171-.046-.26a.553.553,0,0,1-.091-.256.513.513,0,0,0-.046-.26v-.262a.512.512,0,0,1-.046-.26.525.525,0,0,1-.045-.26V324.6c0-.087-.046-.172-.046-.26s.046-.178.046-.265a.558.558,0,0,1,.045-.266c0-.087-.045-.173,0-.262a.393.393,0,0,1,.046-.223c0-.087.046-.177.046-.266a.557.557,0,0,1,.045-.265c0-.088.046-.177.046-.266a.54.54,0,0,0,.046-.265.759.759,0,0,0,.093-.224l.138-.272a.341.341,0,0,1,.091-.223c.046-.091.046-.178.091-.268s.093-.137.138-.228a2.116,2.116,0,0,1,.138-.227c.05-.07.093-.182.138-.228.093-.093.093-.18.139-.227.091-.093.138-.184.183-.229a.721.721,0,0,1,.184-.187c.093-.093.135-.179.184-.229a1.051,1.051,0,0,1,.23-.189.724.724,0,0,1,.183-.187c.046-.045.179-.093.23-.144a2.4,2.4,0,0,1,.229-.188c.045-.033.16-.093.229-.144.045-.033.161-.093.23-.144a1.932,1.932,0,0,1,.231-.145,1.1,1.1,0,0,0,.229-.144.719.719,0,0,0,.277-.1c.091-.049.183-.054.229-.1a.7.7,0,0,1,.276-.1.592.592,0,0,1,.276-.059c.091-.05.184-.055.277-.1.091,0,.138-.051.229-.1l.276-.013a.639.639,0,0,1,.276-.057c.091,0,.184-.052.276-.057l.277-.013a.625.625,0,0,0,.276-.057l.276-.013.276-.013.276-.012.276-.013.23-.01a63.526,63.526,0,0,1,.551.065l.276-.012c.091,0,.184.034.277.03a.421.421,0,0,0,.229.035.58.58,0,0,0,.276.032c.091,0,.184.035.276.032a.57.57,0,0,0,.277.033l.276-.01a.5.5,0,0,0,.229.034c.091.04.184-.006.277-.01a.609.609,0,0,0,.276.032l.276-.01c.091,0,.183-.05.276-.054.091-.048.185-.065.229-.1a.411.411,0,0,1,.23-.1.344.344,0,0,1,.229.037c.093,0,.138.038.184.124.046.041.046.129.046.217a.534.534,0,0,0,.045.261c0,.13.046.129.046.261v.524a.522.522,0,0,1,.046.261v.263a.53.53,0,0,1,.045.261v.262c.046.129,0,.13,0,.262s.046.129.046.261v.526l.091.259v.483c0,.132.046.129.046.261s-.046.133-.046.263c.046.085,0,.174-.045.265a.631.631,0,0,1-.138.178.709.709,0,0,1-.277.1,1.018,1.018,0,0,1-.229-.123c-.093-.085-.18-.122-.231-.167a2.258,2.258,0,0,0-.183-.17,2.42,2.42,0,0,1-.231-.123c-.093-.083-.183-.124-.23-.165l-.276-.122a.893.893,0,0,0-.229-.122c-.091-.042-.138-.083-.229-.123s-.185-.037-.277-.077-.138-.038-.229-.078a.638.638,0,0,0-.276-.076c-.093-.041-.184-.038-.276-.078-.093,0-.184-.035-.277-.032a.6.6,0,0,0-.276-.032.346.346,0,0,0-.229-.035.69.69,0,0,0-.276-.074l-.277.012-.276.012c-.091,0-.183.052-.276.056s-.184-.035-.276.013a.692.692,0,0,0-.276.1.619.619,0,0,0-.276.057,1.826,1.826,0,0,0-.23.143c-.07.051-.183.051-.276.1s-.139.151-.184.184a2.537,2.537,0,0,0-.229.185,1.016,1.016,0,0,0-.184.229.981.981,0,0,0-.138.226,1.073,1.073,0,0,0-.139.224.613.613,0,0,1-.091.267c0,.089-.046.178-.046.267s-.045.176-.045.265v.262c0,.088-.046.177-.046.265s.046.172.046.261v.262c.045.084.091.127.091.213.046.085.046.173.091.259s.046.173.093.213l.138.255a.839.839,0,0,0,.138.213,2.358,2.358,0,0,1,.184.21,1.5,1.5,0,0,0,.138.168c.091.083.137.166.184.21a.848.848,0,0,1,.183.211c.046.04.137.121.184.165s.139.082.23.165l.184.167c.049.044.179.076.229.121a2.249,2.249,0,0,0,.229.163,1.721,1.721,0,0,0,.23.121l.183.167a.92.92,0,0,1,.23.122,1.589,1.589,0,0,0,.231.165c.07.045.16.12.229.165a1.764,1.764,0,0,0,.229.121.763.763,0,0,1,.231.166.943.943,0,0,0,.23.122.621.621,0,0,0,.183.168.739.739,0,0,1,.231.166c.045.04.179.077.229.122s.138.082.23.165c.045.043.135.124.183.168a.95.95,0,0,0,.231.123l.184.168c.091.083.182.121.229.165a2.224,2.224,0,0,0,.184.168c.071.046.184.08.229.167l.184.168.184.168.23.21c.045.043.091.128.138.171.091.084.135.168.183.212l.184.17.138.257.184.17a.9.9,0,0,0,.138.213.923.923,0,0,0,.184.213c.046.085.046.173.091.26.046.041.138.127.138.213a.87.87,0,0,1,.138.215c.046.087.046.173.093.259s.093.129.138.216a.534.534,0,0,0,.045.261c.048.085.048.173.093.26a1.811,1.811,0,0,0,.046.217.575.575,0,0,1,.091.26,1283.3,1283.3,0,0,1,.093.522.6.6,0,0,1,.091.26.517.517,0,0,0,.046.261v.262c0,.089.045.174.045.261s-.045.177-.045.265v.524c0,.089.045.174.045.263a.62.62,0,0,1-.091.265c0,.088.046.173,0,.262v.263c-.046.044-.046.133-.091.221,0,.087-.046.177-.046.263s-.046.178-.046.265a.546.546,0,0,0-.045.263l-.138.267a.723.723,0,0,1-.093.221.6.6,0,0,1-.091.266c0,.089-.046.133-.091.223a.612.612,0,0,0-.093.265c-.045.089-.045.178-.091.266-.046.046-.089.155-.139.223a1.484,1.484,0,0,0-.183.226c-.046.044-.046.133-.093.221a1.591,1.591,0,0,1-.183.224,1.705,1.705,0,0,1-.184.227.959.959,0,0,0-.138.223l-.184.182a1.753,1.753,0,0,1-.183.224c-.033.044-.134.132-.185.182s-.138.093-.229.183c-.046.045-.091.134-.184.182l-.183.183c-.093.09-.182.135-.231.184a1.04,1.04,0,0,1-.231.139,1.078,1.078,0,0,1-.229.14.839.839,0,0,1-.229.183c-.093.048-.138.094-.231.14s-.183.051-.276.1a1.113,1.113,0,0,1-.231.14c-.091.046-.183.05-.276.1a1.08,1.08,0,0,1-.229.14.731.731,0,0,0-.277.1.822.822,0,0,0-.229.1.655.655,0,0,0-.276.055c-.091,0-.184.052-.276.056a.721.721,0,0,0-.276.1l-.276.012c-.093,0-.184.052-.277.057a.624.624,0,0,0-.276.056l-.276.013c-.091,0-.184.051-.276.056l-.276.013c-.093,0-.184-.034-.276-.029l-.277.013a.581.581,0,0,1-.276-.03c-.091,0-.183.054-.276.059a.578.578,0,0,0-.276-.03c-.093,0-.184-.034-.276-.029l-.276.015a.612.612,0,0,0-.276-.028c-.093,0-.138-.037-.231-.077l-.276.016c-.093,0-.184-.033-.276-.028l-.276.016-.277.016-.322.018-.276.016c-.091,0-.138.051-.229.056a.629.629,0,0,1-.277.061c-.091.049-.183.055-.276.1-.091,0-.183.055-.276.061a.6.6,0,0,1-.276-.028c-.046-.04-.138-.078-.184-.162,0-.044-.091-.126-.091-.215,0-.131.046-.134,0-.262,0-.132-.046-.128-.046-.26a.527.527,0,0,0-.045-.26v-.524c0-.132-.046-.128-.046-.26v-.262c0-.132-.046-.129-.093-.257v-.262a.511.511,0,0,0-.046-.26v-.524a.527.527,0,0,1-.045-.26c-.046-.129,0-.132-.046-.26v-.262a.514.514,0,0,1-.046-.26.523.523,0,0,0-.045-.26V339.7A.4.4,0,0,1,746.746,339.476Z" transform="translate(-637.111 -317.435)" fill="#2ca6e0" stroke="rgba(0,0,0,0)" stroke-width="1"/>
    <path id="パス_9" data-name="パス 9" d="M766.935,343.711c-.046-.043-.093-.13-.139-.173a.453.453,0,0,1-.046-.22.53.53,0,0,1,.046-.262.937.937,0,0,0,.138-.22.963.963,0,0,1,.139-.221c0-.088.091-.176.091-.263a.53.53,0,0,0,.046-.263.605.605,0,0,1,.091-.263v-.263a.6.6,0,0,0,.091-.306c0-.088-.045-.174,0-.262,0-.088.046-.176.046-.262v-.263c0-.088-.046-.174-.046-.262a.622.622,0,0,0,.046-.307v-1.05c0-.13-.046-.13-.046-.218,0-.132.046-.132.046-.263V338.1c0-.132-.046-.132-.046-.262s.046-.132.046-.263v-.262c0-.132-.046-.13-.046-.262v-.262c0-.132.046-.132.046-.263v-1.05c0-.132-.046-.13-.046-.262s.046-.132.046-.262v-1.838c0-.132-.046-.132-.046-.262v-.262c0-.132.046-.132.046-.263s-.046-.13-.046-.262.046-.132.046-.263-.046-.13-.046-.262.046-.132.046-.262v-1.839c0-.132-.046-.132-.046-.262s.046-.132.046-.263v-1.05c0-.132-.046-.13-.046-.262s.046-.132.046-.262v-.788c0-.132-.046-.132-.046-.262v-.263c0-.13.046-.132.046-.262V325.5c0-.132-.046-.132-.046-.262s.046-.132.046-.221v-.262c0-.132-.046-.13-.046-.262s.046-.132.046-.263v-.262c0-.132-.046-.13-.046-.262s.046-.132.046-.263v-1.574c0-.132-.046-.132-.046-.262s.046-.132.046-.263v-.832c0-.087-.046-.173-.046-.262a.534.534,0,0,1-.045-.262v-.306c0-.088-.046-.174-.046-.262-.046-.087-.046-.174-.091-.262,0-.087-.046-.173-.046-.262-.046-.087-.046-.173-.091-.261s-.093-.13-.139-.217a.89.89,0,0,0-.138-.217.528.528,0,0,1-.046-.262c0-.044-.045-.131,0-.22s.139-.133.185-.176a.532.532,0,0,1,.229-.048l.276,0,.276,0,.277,0,.276,0h.276l.276,0h.276l.276,0h.828c.091,0,.184.044.276.043s.184-.045.276-.045h2.208a2.048,2.048,0,0,1,.229.045.348.348,0,0,1,.184.174.466.466,0,0,1,.045.22.325.325,0,0,1-.091.218l-.138.262a.969.969,0,0,0-.138.218c0,.089-.046.176-.046.262-.045.089-.045.176-.091.262,0,.089-.046.176-.046.263a1.045,1.045,0,0,1-.091.306v.263c0,.088-.046.176-.046.262v.788c0,.131-.046.22-.046.306,0,.132.046.132.046.263v1.575c0,.132-.046.132-.046.263s.046.131.046.262-.046.132-.046.262v.262c0,.089.046.089.046.221v.524c0,.132-.046.132-.046.263s.046.13.046.262V326c0,.132-.046.132-.046.263s.046.13.046.262v.524c0,.132-.046.132-.046.263v.524c0,.132.046.132.046.263v.524c0,.132-.046.132-.046.262s.046.132.046.263v1.574c0,.132-.046.132-.046.263s.046.132.046.263v.788c0,.132-.046.132-.046.262v.262c0,.132.046.132.046.263v.262c0,.132-.046.132-.046.262v.263c0,.13.046.13.046.262v.524c0,.132-.046.132-.046.263s.046.13.046.262-.046.13-.046.262.046.132.046.262v.526c0,.132-.046.132-.046.262v.526c0,.13.046.13.046.262v2.1l.184.176a.823.823,0,0,0,.229.176c.093,0,.184.043.276.043.138,0,.138-.043.276-.041.093,0,.093.043.231.043h1.1c.139,0,.139-.043.277-.043.091,0,.091.044.229.044s.138-.041.276-.041c.093,0,.185.044.277.045h.551c.091,0,.184-.041.276-.04s.184-.043.277-.043l.276,0,.276,0a.669.669,0,0,1,.276-.085.351.351,0,0,1,.229-.041c.093-.044.184-.043.276-.085a.651.651,0,0,0,.277-.085c.091,0,.138-.085.229-.084a1.018,1.018,0,0,0,.231-.129.643.643,0,0,1,.276-.084.431.431,0,0,1,.23.045c.044.03.091.133.138.177,0,.088.045.177,0,.218,0,.089-.046.176-.046.262a.6.6,0,0,0-.091.263,211.909,211.909,0,0,1-.093.523c-.045.087-.045.174-.091.262a.529.529,0,0,1-.046.262c0,.087-.045.173-.045.262a.506.506,0,0,0-.048.261c-.045.087-.045.174-.09.262,0,.087-.048.173-.048.262a1.851,1.851,0,0,1-.045.217c-.045.087-.045.176-.093.262a.537.537,0,0,1-.045.262c0,.088-.045.174-.045.261a.592.592,0,0,0-.093.262c0,.088-.046.174-.046.262-.046.088-.041.2-.091.261a.751.751,0,0,1-.231.173.387.387,0,0,1-.276.084.61.61,0,0,1-.276-.045c-.093,0-.138-.045-.231-.09a.611.611,0,0,1-.276-.045c-.091,0-.183.041-.276,0-.091,0-.183-.046-.276-.046l-.276,0h-.276l-.277,0h-.551c-.046,0-.138-.045-.229,0h-6.3l-.276,0h-.276l-.276,0-.276,0-.277,0-.276,0-.276,0A.525.525,0,0,1,766.935,343.711Z" transform="translate(-632.703 -317.466)" fill="#2ca6e0" stroke="rgba(0,0,0,0)" stroke-width="1"/>
    <path id="パス_10" data-name="パス 10" d="M790.375,317.757l.277.009.276.009.322.01.276.009.276.01.276.009.277.009.276.01.276.009.276.01.277.009.276.01.276.01.276.01.276.01.277.01.276.01.276.01.276.01.276.01.276.011.277.01.276.01.276.011.276.01.276.011.277.011.276.01a.6.6,0,0,1,.276.056c.091.046.138.137.184.181a.78.78,0,0,1,.091.223.394.394,0,0,1-.046.217c-.049.063-.045.173-.091.259a.59.59,0,0,1-.091.26v.262c0,.087-.046.173-.046.261v.524a.538.538,0,0,0,.046.265v.307a.532.532,0,0,0,.045.263c0,.088.046.178.046.265a.553.553,0,0,1,.045.265c0,.087.046.177.046.265a.535.535,0,0,1,.046.263c.046.089,0,.132.046.265s0,.132.045.221c0,.13.046.133.093.266a72.4,72.4,0,0,0,.091.531.535.535,0,0,0,.046.263.556.556,0,0,1,.045.265,6859.1,6859.1,0,0,1,.093.529c.045.133,0,.13.045.265,0,.13.046.133.046.263.046.134.046.089.093.222v.263l.091.266a.537.537,0,0,0,.046.265c0,.13.045.133.045.265l.093.266c0,.13-.046.129,0,.262l.091.266a.538.538,0,0,0,.046.265v.262c.045.134.045.091.091.224a.542.542,0,0,0,.046.265.548.548,0,0,0,.045.263c0,.132.046.133.046.265a.539.539,0,0,1,.046.265.549.549,0,0,1,.045.265.539.539,0,0,1,.046.265l.093.266a.55.55,0,0,0,.045.265.536.536,0,0,0,.046.263.384.384,0,0,0,.046.221.55.55,0,0,1,.045.265c.046.133,0,.13.046.265l.091.266v.262c.046.133.093.135.093.268.046.133,0,.13.046.265s0,.131.045.263a.537.537,0,0,0,.046.265c0,.132.046.133.046.265.045.089,0,.132.045.221l.093.266v.262a.551.551,0,0,1,.045.265l.093.267a.548.548,0,0,0,.045.263c0,.132.046.134.046.265a.537.537,0,0,1,.046.265l.091.266v.263a.323.323,0,0,1,.046.221l.091.267a.543.543,0,0,0,.046.265.535.535,0,0,1,.046.263c.045.134,0,.132.045.265l.093.267a.555.555,0,0,0,.045.265c0,.13-.045.129,0,.262l.093.266c0,.088.045.089.046.221.046.133,0,.131.046.265a.548.548,0,0,0,.045.263c0,.132.046.134.046.265a.542.542,0,0,1,.046.265l.091.267v.262l.091.266c0,.132.046.134.046.265a.325.325,0,0,1,.046.222c.045.133,0,.176.045.265a.638.638,0,0,0,.093.266v.263a.621.621,0,0,0,.093.266v.262c.045.089.045.178.091.267s.091.135.091.222a.627.627,0,0,1,.093.266c.045.091.045.178.091.267,0,.088.091.135.091.223l.139.268a1.078,1.078,0,0,1,.138.224c.045.09.091.135.138.226l.184.183a.746.746,0,0,1,.091.223.265.265,0,0,1,0,.262c0,.088-.091.128-.138.168s-.138.038-.231.034-.183.037-.276.033-.183-.052-.276-.056l-.276-.012-.229-.01-.277-.012-.276-.011-.276-.012-.276-.011-.277-.011-.276-.012-.276-.011-.276-.011-.231-.01-.276-.011-.276-.011-.276-.011-.276-.011-.276-.011-.276-.01-.277-.011a1.9,1.9,0,0,0-.229.035.692.692,0,0,1-.276-.1.367.367,0,0,1-.184-.182.284.284,0,0,1-.093-.223c0-.087,0-.173.046-.216a.59.59,0,0,1,.091-.26.515.515,0,0,0,.046-.26c.046-.085,0-.176.046-.261v-.263c0-.088.045-.173.045-.26v-.263c0-.088-.045-.177-.045-.263V341.5c0-.088-.046-.177-.046-.263a.633.633,0,0,1-.046-.309,1.533,1.533,0,0,1-.045-.265c-.046-.046-.046-.177-.046-.265a1.278,1.278,0,0,0-.046-.22,1.071,1.071,0,0,0-.045-.266.318.318,0,0,0-.046-.22v-.262c-.046-.133-.091-.135-.091-.222a.555.555,0,0,0-.139-.312.828.828,0,0,0-.229-.184.721.721,0,0,0-.322-.1l-.23-.009-.276-.01-.276-.01-.276-.011-.276-.01c-.138,0-.138.04-.277.035-.091,0-.091-.048-.229-.052s-.138.039-.276.034-.138-.049-.276-.054-.138.039-.276.035l-.277-.01c-.091,0-.091-.048-.229-.052l-.276-.009-.277-.01-.276-.009-.276-.01a.679.679,0,0,0-.277.078c-.09.04-.229.082-.276.167a.6.6,0,0,0-.091.3.305.305,0,0,0-.046.217.529.529,0,0,0-.045.261c-.046.085,0,.132-.046.217a1.072,1.072,0,0,1-.046.262,1.189,1.189,0,0,0-.045.217.52.52,0,0,0-.046.261c-.046.085-.046.174-.091.26v.262a.8.8,0,0,0-.046.306v.262a.524.524,0,0,1-.046.261v.524c0,.088.046.176.046.265v.262c.046.089.046.177.091.266s.043.2.093.265a.424.424,0,0,1,.045.22c0,.089-.045.13-.091.217l-.184.168a.581.581,0,0,1-.276.035l-.276-.009-.276-.007-.23-.007-.276-.009-.276-.009-.276-.007-.276-.009-.277-.007-.276-.007-.276-.009-.231-.006-.276-.007-.276-.007-.276-.007-.276-.007-.276-.007-.277-.007-.276-.006-.276-.007c-.046,0-.138.04-.229.039s-.184-.049-.277-.051a.474.474,0,0,1-.229-.05c-.071-.05-.138-.09-.138-.177a.267.267,0,0,1,0-.263.326.326,0,0,1,.091-.173c.093-.084.135-.168.184-.213s.091-.173.138-.217a.962.962,0,0,1,.138-.215l.138-.259c0-.089.046-.13.091-.218s.046-.172.093-.26a.53.53,0,0,0,.045-.261c.046-.087.093-.129.139-.215a.535.535,0,0,1,.045-.262c0-.087.046-.174.046-.261a.519.519,0,0,0,.046-.261c.045-.087.045-.174.091-.261v-.262a1.742,1.742,0,0,1,.093-.216c.051-.117,0-.176.045-.263,0-.13.046-.129.046-.261l.091-.26a331.176,331.176,0,0,1,.093-.523v-.262l.091-.26c0-.132.046-.13.046-.262.045-.129,0-.13.045-.261a.45.45,0,0,1,.046-.261c.037-.083.01-.135.046-.217a.451.451,0,0,0,.045-.261.524.524,0,0,0,.046-.262l.091-.26a.517.517,0,0,1,.046-.261c.046-.13,0-.132.046-.262,0-.13.045-.129.045-.261l.093-.26c0-.132-.046-.133,0-.262,0-.132.045-.13.091-.218v-.3a.31.31,0,0,0,.046-.218l.091-.26a.524.524,0,0,1,.046-.262c0-.131.046-.129.091-.26v-.262a263.631,263.631,0,0,0,.093-.523.529.529,0,0,0,.045-.261,1.076,1.076,0,0,1,.093-.216.522.522,0,0,1,.046-.261c0-.132.045-.13.045-.261a.525.525,0,0,0,.046-.262c.046-.13,0-.132.046-.262l.091-.26c0-.132-.046-.133,0-.262l.091-.261c.046-.129,0-.13.046-.261a1283.3,1283.3,0,0,0,.093-.522.453.453,0,0,1,.045-.217.521.521,0,0,0,.046-.261l.091-.261V328.5l.093-.26v-.262c.045-.13.091-.129.091-.261a.517.517,0,0,0,.046-.261c.045-.129,0-.13.045-.261s.046-.087.093-.217c0-.132-.046-.176,0-.262,0-.132.045-.13.093-.26s0-.132.045-.262,0-.13,0-.262c.045-.129.093-.128.093-.26a.534.534,0,0,0,.045-.261,331.176,331.176,0,0,0,.093-.523.53.53,0,0,0,.045-.261,1.018,1.018,0,0,0,.093-.216.534.534,0,0,1,.045-.261.517.517,0,0,0,.046-.261c.046-.129,0-.132.046-.261a.529.529,0,0,1,.045-.261c0-.132.048-.13.048-.262a.537.537,0,0,0,.045-.262l.093-.26a.529.529,0,0,1,.045-.261v-.262a.447.447,0,0,0,.046-.217.524.524,0,0,0,.046-.262c.045-.085.045-.173.091-.26a.522.522,0,0,1,.046-.261.532.532,0,0,1,.045-.261v-.262c0-.132.046-.217.046-.306v-.262c0-.087.046-.174.046-.261v-.262a.538.538,0,0,0-.046-.265.545.545,0,0,0-.045-.263.617.617,0,0,0-.093-.266.5.5,0,0,0-.091-.265.212.212,0,0,1,0-.218.269.269,0,0,1,.091-.217.645.645,0,0,1,.184-.126.5.5,0,0,1,.229-.081Zm1.977,16.038c.046.088.093.134.138.222.093.091.138.18.231.228s.183.006.321.011.139.046.277.051l.276.01.277.01.276.009.276.01.276.01.276.01c.138,0,.138-.038.276-.033a.618.618,0,0,0,.322-.032.951.951,0,0,0,.184-.17,1.716,1.716,0,0,0,.184-.211v-.307c-.046-.133,0-.132-.046-.265a.536.536,0,0,0-.046-.263c0-.132-.045-.133-.091-.266,0-.132.046-.129,0-.262a.537.537,0,0,0-.046-.265c0-.132-.045-.133-.091-.266v-.262l-.093-.266a.551.551,0,0,0-.045-.265,340.656,340.656,0,0,0-.093-.528V330.4l-.091-.266a.536.536,0,0,0-.046-.263.55.55,0,0,1-.045-.265.538.538,0,0,1-.046-.265c-.046-.133,0-.13-.046-.263a.551.551,0,0,0-.045-.265v-.262a.537.537,0,0,1-.046-.265c0-.13-.046-.133-.091-.266,0-.13.045-.129,0-.262,0-.132-.046-.133-.046-.265-.046-.133,0-.13,0-.262l-.091-.266a32.683,32.683,0,0,1-.093-.528v-.262a.537.537,0,0,1-.046-.265c-.046-.133,0-.132-.046-.265,0-.13-.045-.133-.045-.263a.537.537,0,0,0-.046-.265c0-.132-.046-.133-.046-.263v-.263a.547.547,0,0,1-.045-.263.539.539,0,0,1-.046-.265c-.046-.09-.138-.224-.229-.228-.138,0-.184.126-.231.212,0,.132-.045.129-.045.261a.517.517,0,0,0-.046.261c-.046.129,0,.132,0,.262l-.09.26a.506.506,0,0,1-.048.261v.262a.534.534,0,0,0-.045.261.517.517,0,0,0-.046.261c0,.132-.046.129-.046.261a.529.529,0,0,0-.045.261c0,.132-.046.129-.046.261v.262c0,.132-.046.13-.046.261s-.045.13-.045.261a1073.961,1073.961,0,0,1-.093.522.53.53,0,0,1-.045.261v.263a.517.517,0,0,0-.046.261c-.046.129,0,.13-.046.261a.534.534,0,0,1-.045.261c0,.131-.048.129-.048.261a.529.529,0,0,0-.045.261.8.8,0,0,0-.046.3.517.517,0,0,0-.046.261.529.529,0,0,0-.045.261l-.093.26a.534.534,0,0,1-.045.261c0,.13-.046.129-.046.261-.046.129,0,.13-.046.261s0,.132-.045.261c0,.132-.046.129-.046.261a.517.517,0,0,0-.046.261.53.53,0,0,0-.045.261,1073.961,1073.961,0,0,0-.093.522C792.307,333.574,792.352,333.707,792.352,333.794Z" transform="translate(-628.789 -317.404)" fill="#2ca6e0" stroke="rgba(0,0,0,0)" stroke-width="1"/>
    <path id="パス_11" data-name="パス 11" d="M813.352,319.324a2.3,2.3,0,0,1,.138.226c.093.135.046.133.138.27.048.09.08.134.139.227s.079.133.138.226.091.091.184.228a1.278,1.278,0,0,0,.138.227c.045.09.074.1.138.226a2.122,2.122,0,0,0,.138.226,2.25,2.25,0,0,1,.138.227c.063.128.091.137.138.226.091.137.12.1.183.23.056.11.048.133.093.223.093.135.13.143.183.228a2.416,2.416,0,0,1,.139.227c.091.137.046.134.138.27a.828.828,0,0,0,.138.226,1.47,1.47,0,0,1,.138.226,2.149,2.149,0,0,1,.138.228c.065.128.091.135.138.226.091.135.13.143.184.228s.08.134.138.227a2.564,2.564,0,0,1,.138.226,1.123,1.123,0,0,0,.184.23l.091.267c.093.091.081.133.138.226s.093.091.184.228a1.371,1.371,0,0,0,.139.227.769.769,0,0,0,.138.226,1.527,1.527,0,0,1,.138.227,1.506,1.506,0,0,0,.138.227c.094.115.089.113.183.228.076.091.046.134.093.223.091.137.129.143.183.231a1.78,1.78,0,0,1,.138.226,1.569,1.569,0,0,0,.138.27c.048.091.132.1.185.185s.073.138.138.226a.333.333,0,0,0,.229.144c.091-.038.184-.121.184-.207,0-.132-.046-.134-.046-.266s.046-.128.046-.26v-.57c0-.13-.046-.134-.046-.265s.046-.129.046-.26v-1.883c0-.13-.046-.133-.046-.265s.046-.129.046-.26-.046-.134-.046-.266v-.262c0-.13.046-.128.046-.26v-.57c0-.087-.046-.177-.046-.265v-.263c-.045-.089,0-.173,0-.262a.553.553,0,0,1-.045-.265c0-.132-.046-.221-.046-.31a.539.539,0,0,1-.046-.265c-.045-.09-.045-.177-.091-.267s-.046-.177-.091-.268-.093-.137-.093-.223a1.032,1.032,0,0,0-.183-.228.637.637,0,0,1-.093-.268.692.692,0,0,1,.093-.215c.045-.04.091-.126.138-.166a.506.506,0,0,1,.229-.032l.322.017.276.016.276.015.276.015.277.016.276.015.276.016.276.015.277.015.276.016.276.015c.091.006.184.055.276.06s.184-.034.276-.029l.322.018.276.016c.093,0,.184.054.276.059s.184-.033.276-.028.185.054.276.06.185-.034.277-.029l.276.016a.384.384,0,0,1,.229.1c.093.006.138.1.185.142a.485.485,0,0,1,.045.223.3.3,0,0,1-.093.212l-.138.255a.709.709,0,0,0-.091.213l-.138.255c0,.089-.046.173-.046.26s-.045.173-.045.261a.6.6,0,0,0-.046.3c0,.087-.046.173-.046.26v.263a.513.513,0,0,0-.046.26v1.094c0,.132-.045.129-.045.26s.045.134.045.266-.045.128-.045.26v.262c0,.132.045.134.045.265s-.045.129-.045.261.045.133.045.265v1.533c0,.13-.045.128-.045.26s.045.134.045.265v1.314c0,.131-.045.128-.045.26v.262c0,.132.045.134.045.265v1.314c0,.13-.045.128-.045.26s.045.134.045.265v3.415c0,.132-.045.128-.045.26s.045.134.045.265v.526c0,.132-.045.129-.045.26v.262c0,.132.045.134.045.266s-.045.128-.045.26.045.134.045.265v.263c0,.13-.045.128-.045.26s.045.133.045.265v1.312c0,.132-.045.129-.045.261v.22c0,.13.045.133.045.265s-.045.129-.045.26v.263c0,.131.045.133.045.265v.788c0,.13-.045.128-.045.26s.045.221.045.309v.526c0,.087.046.177.046.265v.263c0,.087.046.221.046.307s.046.178.046.265.045.178.045.266c.046.09.046.178.093.268a.421.421,0,0,0,.091.223c.05.069.046.221.091.268l.138.27a.341.341,0,0,1,.093.224,1.746,1.746,0,0,0-.045.217,1.719,1.719,0,0,1-.185.163.466.466,0,0,1-.229.032l-.276-.016-.277-.015-.276-.016-.276-.016-.276-.015-.276-.016-.322-.017-.276-.016-.276-.015-.276-.016-.276-.015-.277-.016c-.091,0-.184.034-.276.029s-.184-.054-.276-.06l-.276-.015-.277-.015-.276-.016-.276-.015-.276-.015-.322-.018a.532.532,0,0,1-.229-.056c-.046-.046-.138-.1-.184-.184v-.221a.517.517,0,0,1,.046-.26.9.9,0,0,0,.138-.21c.045-.085.091-.127.138-.211s.045-.173.091-.257a.521.521,0,0,0,.046-.262c.045-.084.045-.171.091-.257,0-.087.046-.172.046-.26v-.3c0-.089.045-.173.045-.261v-.524c0-.089.046-.173.046-.26s-.046-.178-.046-.31v-.262c0-.132.046-.129.046-.26v-1.007c0-.132-.046-.134-.046-.266s.046-.128.046-.26-.046-.134-.046-.265.046-.129.046-.26v-1.05c0-.132-.046-.134-.046-.266s.046-.128.046-.26v-.788a.814.814,0,0,0-.093-.354c-.091-.137-.12-.1-.183-.23-.056-.111-.074-.1-.138-.226a2.211,2.211,0,0,0-.138-.227,1.438,1.438,0,0,0-.139-.227,2.178,2.178,0,0,1-.184-.228c-.057-.093-.084-.14-.138-.227a2.375,2.375,0,0,0-.138-.27c-.045-.09-.091-.093-.138-.182-.093-.137-.045-.134-.138-.271a2.559,2.559,0,0,0-.138-.227c-.054-.085-.081-.133-.138-.226s-.093-.093-.184-.228c-.046-.091-.046-.134-.091-.226-.093-.135-.093-.091-.184-.228s-.084-.14-.138-.226a1.614,1.614,0,0,0-.138-.227,2.144,2.144,0,0,1-.184-.228,1.9,1.9,0,0,1-.093-.224,1.006,1.006,0,0,0-.183-.228l-.093-.268a2.127,2.127,0,0,1-.183-.228,1.356,1.356,0,0,1-.138-.227c-.059-.094-.081-.133-.139-.226s-.091-.093-.183-.228a1.444,1.444,0,0,0-.138-.227,2.5,2.5,0,0,0-.139-.226c-.057-.094-.084-.141-.138-.226s-.091-.137-.138-.228a1.026,1.026,0,0,0-.184-.228l-.091-.267c-.091-.094-.079-.134-.138-.227s-.091-.093-.184-.228a2.538,2.538,0,0,0-.138-.226c-.057-.093-.045-.134-.138-.227a.235.235,0,0,0-.276-.1c-.093,0-.138.08-.138.211v.526c0,.132-.046.129-.046.26s.046.134.046.222v.788c0,.132-.046.129-.046.26s.046.134.046.266-.046.128-.046.26.046.134.046.265-.046.129-.046.261.046.133.046.265-.046.128-.046.26v.262c0,.132.046.134.046.266v.262c0,.132-.046.129-.046.26s.046.134.046.265v.526c0,.132-.046.129-.046.26s.046.134.046.266v.482c0,.132-.046.129-.046.26s.046.134.046.266-.046.128-.046.26.046.133.046.265v1.05c0,.132-.046.129-.046.26s.046.134.046.266v1.05c0,.13-.046.128-.046.26s.046.134.046.265v.262c0,.132-.046.129-.046.261s.046.133.046.265-.046.129-.046.26v.262c0,.089.046.091.046.223v.262c0,.132-.046.129-.046.26s.046.221.046.31v.787c0,.088.046.177.046.266,0,.13.046.176.046.265,0,.132.045.221.045.307a.536.536,0,0,0,.046.265.637.637,0,0,0,.093.27.426.426,0,0,0,.091.223c.05.068.046.221.091.267l.138.27a.347.347,0,0,1,.093.223.44.44,0,0,1-.046.217c-.046.04-.091.127-.184.165a1.991,1.991,0,0,1-.229.032l-.276-.013-.277-.015-.276-.015-.276-.015-.276-.015L812.25,345l-.322-.016-.276-.015-.276-.015-.276-.015-.276-.013c-.093,0-.185.034-.277.029s-.184-.054-.276-.057l-.276-.015-.277-.013-.276-.015-.276-.013-.276-.015-.276-.013-.322-.017c-.046,0-.138-.05-.229-.055a.72.72,0,0,1-.184-.183.473.473,0,0,1-.046-.223.592.592,0,0,1,.091-.257.877.877,0,0,0,.139-.211.586.586,0,0,0,.091-.259.307.307,0,0,0,.091-.213.577.577,0,0,0,.093-.26c.045-.084.045-.171.091-.257,0-.087.046-.172.046-.26v-.306c0-.088.045-.173.045-.26.046-.087,0-.176,0-.262s.046-.173.046-.261V340.7c0-.13-.046-.133-.046-.265v-.262c0-.132.046-.129.046-.261v-2.844c0-.132-.046-.134-.046-.265s.046-.129.046-.261-.046-.133-.046-.265.046-.129.046-.26v-.526c0-.13-.046-.133-.046-.265v-.262c0-.132.046-.129.046-.261v-.524c0-.132-.046-.134-.046-.265s.046-.129.046-.261V332.34c0-.132-.046-.134-.046-.267s.046-.128.046-.26-.046-.133-.046-.265v-.526c0-.13.046-.128.046-.26v-.526c0-.131-.046-.133-.046-.265s.046-.128.046-.26v-.262c0-.132-.046-.134-.046-.265s.046-.129.046-.261V328.4c0-.132-.046-.134-.046-.266s.046-.128.046-.26v-.262c0-.132-.046-.134-.046-.265v-.263c0-.13.046-.128.046-.26v-.262c0-.132-.046-.134-.046-.266s.046-.128.046-.217v-.788c0-.13-.046-.133-.046-.265s.046-.129.046-.26V324.5c0-.13-.046-.133-.046-.265v-.262c0-.132.046-.129.046-.26v-.526c0-.132-.046-.134-.046-.265s.046-.129.046-.261-.046-.133-.046-.265c0-.087.046-.173.046-.3,0-.088-.046-.177-.046-.266v-.262c0-.087.046-.172,0-.262a.556.556,0,0,0-.045-.265v-.307c0-.087-.046-.176-.046-.265a.539.539,0,0,1-.046-.265.634.634,0,0,1-.091-.267c-.046-.09-.046-.177-.091-.267a.965.965,0,0,1-.138-.226,1.012,1.012,0,0,0-.139-.226.553.553,0,0,1-.045-.265.445.445,0,0,1,.046-.217.6.6,0,0,1,.183-.122.345.345,0,0,1,.184-.078l.276.013c.138.007.138.051.277.059s.138-.038.276-.03l.276.015.276.013.276.015c.093,0,.093.049.23.055s.138-.037.276-.029.138.051.276.059.138-.038.276-.03l.276.015.277.013.229.012.276.015.276.015.277.015c.091,0,.138.051.229.056.046.045.138.05.184.14.045.045.138.1.138.139C813.261,319.232,813.3,319.239,813.352,319.324Z" transform="translate(-623.675 -317.23)" fill="#2ca6e0" stroke="rgba(0,0,0,0)" stroke-width="1"/>
    <path id="パス_12" data-name="パス 12" d="M847.538,334.043c0,.089-.045.173-.045.262s.045.176.045.265-.045.172-.045.26v.526c0,.087-.046.172-.046.26v.526c0,.087-.046.172-.046.26s-.045.172-.045.261a.517.517,0,0,1-.046.26c0,.088.046.177,0,.262,0,.088-.046.129-.046.217-.045.085,0,.174-.045.26a.509.509,0,0,1-.046.26v.263a.571.571,0,0,0-.091.257.519.519,0,0,0-.046.261c-.046.085-.046.173-.091.257a.507.507,0,0,1-.046.26,1.785,1.785,0,0,0-.046.218c-.045.084-.045.172-.091.257,0,.088-.046.173-.046.261a.875.875,0,0,1-.138.211c0,.089-.045.173-.045.26-.047.087-.047.173-.093.259s-.093.127-.138.212a.578.578,0,0,1-.093.259.308.308,0,0,1-.091.213l-.138.256c-.046.084-.046.173-.091.213a1.619,1.619,0,0,1-.138.212c-.05.063-.046.172-.093.259s-.138.124-.183.209-.093.127-.138.213a1.5,1.5,0,0,1-.138.211,1.5,1.5,0,0,0-.138.211c-.047.087-.138.124-.185.211-.045.04-.138.079-.183.165-.093.084-.093.127-.184.21-.046.04-.135.121-.184.165l-.183.166c-.093.083-.182.12-.23.165l-.183.165-.185.166a1.493,1.493,0,0,1-.229.163c-.068.044-.16.118-.229.162a1.736,1.736,0,0,1-.231.12l-.183.166c-.093.039-.184.034-.277.074s-.138.124-.229.162-.184.034-.23.076l-.276.117c-.045.04-.138.035-.229.076a.975.975,0,0,0-.231.118.578.578,0,0,1-.276.03l-.276.117a.471.471,0,0,0-.229.074c-.093,0-.184.034-.277.029-.091.038-.183.033-.276.073a.668.668,0,0,0-.276.072.594.594,0,0,0-.276.029l-.276-.015c-.093,0-.138.037-.23.032-.091.038-.183.033-.276.073l-.276-.016c-.093,0-.183.035-.276.03s-.184.032-.276.027l-.276-.015a.591.591,0,0,0-.276.029c-.093,0-.185-.054-.277-.059l-.276-.015c-.091-.006-.184.034-.277.029l-.276-.016c-.138-.007-.138.037-.276.029s-.138-.051-.276-.059l-.276-.016-.276-.015-.276-.015-.322-.018-.276-.015-.276-.016-.277-.015-.276-.016-.276-.015-.276-.016-.276-.015-.277-.016-.321-.017-.276-.016-.276-.015-.277-.016a.481.481,0,0,1-.229-.057c-.071-.051-.093-.135-.138-.181a.742.742,0,0,1-.093-.226.381.381,0,0,1,.093-.213c.049-.062.045-.172.091-.257l.138-.255a.3.3,0,0,0,.091-.212c.046-.087.046-.173.093-.26,0-.087.045-.171.045-.26a.594.594,0,0,0,.046-.3,1.438,1.438,0,0,0,.046-.26c.045-.087,0-.176,0-.263a.525.525,0,0,0,.045-.26v-.262c0-.089.046-.173.046-.26v-.832c0-.132-.046-.134-.046-.265v-.263c0-.13.046-.128.046-.26v-1.05c0-.132-.046-.134-.046-.265v-.263c0-.13.046-.128.046-.26s-.046-.135-.046-.266.046-.129.046-.26c0-.174-.046-.177-.046-.309s.046-.128.046-.26-.046-.134-.046-.265.046-.129.046-.261-.046-.133-.046-.265v-.524c0-.132.046-.129.046-.261v-.526c0-.132-.046-.134-.046-.266s.046-.128.046-.26V334.8c0-.132-.046-.134-.046-.309v-.788c0-.13.046-.128.046-.26s-.046-.135-.046-.266v-.263c0-.13.046-.128.046-.26v-.262c0-.132-.046-.134-.046-.265v-.263c0-.13.046-.128.046-.26s-.046-.134-.046-.265v-.526c0-.13.046-.128.046-.3,0-.132-.046-.134-.046-.266s.046-.128.046-.26-.046-.133-.046-.265.046-.129.046-.26-.046-.134-.046-.266v-1.312c0-.132.046-.129.046-.26v-.262c0-.132-.046-.134-.046-.266s.046-.128.046-.26v-1.094c0-.132-.046-.134-.046-.266v-.262c0-.132.046-.129.046-.26v-.262c0-.132-.046-.134-.046-.266s.046-.128.046-.26-.046-.134-.046-.265.046-.129.046-.261c0-.087-.046-.178-.046-.265v-1.094a.558.558,0,0,1-.045-.266,2.869,2.869,0,0,0-.093-.311.56.56,0,0,0-.045-.266.344.344,0,0,0-.093-.223.851.851,0,0,1-.045-.31c-.046-.089-.093-.135-.138-.226a1.055,1.055,0,0,0-.138-.226.621.621,0,0,1-.093-.268.455.455,0,0,1,.045-.217.327.327,0,0,1,.185-.163c.091,0,.138-.037.229-.032l.277.016.276.015.276.016.321.017.277.016.276.015.276.016.276.015.276.016.277.015c.138.007.138.052.276.06s.138-.037.276-.029l.322.018c.138.007.138.051.276.059s.138-.037.276-.029l.276.016.276.015.276.015.276.016.277.015.276.015c.091,0,.184.055.277.06l.276.015c.091,0,.183.052.276.057a.613.613,0,0,1,.276.06l.276.015a.621.621,0,0,1,.276.059c.093,0,.184.052.276.057a.606.606,0,0,1,.276.06,2.212,2.212,0,0,0,.231.056c.091,0,.184.052.276.057s.184.054.276.059c.093.05.184.055.276.1a.381.381,0,0,1,.231.1c.091,0,.184.052.276.057.091.049.184.054.276.1s.138.094.231.143a.727.727,0,0,0,.276.1c.091.049.138.094.229.143a.568.568,0,0,1,.276.1,1.9,1.9,0,0,0,.23.144c.092.049.185.067.229.1a2.806,2.806,0,0,1,.23.187,1.123,1.123,0,0,1,.229.143,1.141,1.141,0,0,1,.231.143,1.6,1.6,0,0,1,.229.188,1.818,1.818,0,0,0,.229.143c.093.093.135.178.185.228s.138.1.229.188a.726.726,0,0,0,.184.184l.183.185c.051.051.18.135.23.185a2.132,2.132,0,0,1,.138.227,1.629,1.629,0,0,0,.183.184,1.109,1.109,0,0,0,.138.226,1.646,1.646,0,0,0,.185.228,1.807,1.807,0,0,1,.138.226c.045.09.138.138.183.229a1.082,1.082,0,0,0,.138.224.507.507,0,0,0,.093.267,2.2,2.2,0,0,1,.138.226c.045.091.091.135.138.227s.045.178.092.267a.341.341,0,0,1,.091.223.626.626,0,0,1,.093.267,1.006,1.006,0,0,0,.138.227.622.622,0,0,0,.093.267.651.651,0,0,0,.09.267,1.909,1.909,0,0,0,.048.221c.045.089.045.177.091.267a.647.647,0,0,0,.091.267.54.54,0,0,0,.046.265c0,.087.091.135.091.222a.549.549,0,0,1,.046.267c0,.087.046.176.046.265.045.089.045.176.091.267v.262a.538.538,0,0,1,.046.265c.045.09,0,.174.045.265a.548.548,0,0,0,.046.266c0,.087.046.133.046.22v.526a.642.642,0,0,1,.091.267c0,.087-.046.173,0,.262v.526c0,.088.046.178.046.265v.262c0,.089.045.178.045.265s-.045.173-.045.261.045.177.045.265-.045.173-.045.26l.045,0Zm-10.987-.571c0,.13-.045.128-.045.261s.045.134.045.265-.045.129-.045.261.045.133.045.307v.262c0,.132-.045.129-.045.26v.263c0,.13.045.133.045.265v.262c0,.132-.045.129-.045.261v.262c0,.131.045.133.045.266s-.045.129-.045.261.045.133.045.265-.045.128-.045.3c0,.132.045.134.045.265s-.045.129-.045.261v1.05c0,.131.045.133.045.266v.263c0,.13-.045.128-.045.26v.262c0,.174.046.177.046.307s-.046.129-.046.261v.787a.625.625,0,0,0,.093.268.98.98,0,0,0,.138.227l.276.146a1.805,1.805,0,0,0,.276.057l.276.015c.091-.038.184.01.229-.03.093,0,.184-.034.277-.029s.184-.034.276-.029a.61.61,0,0,1,.276-.028.983.983,0,0,0,.229-.118l.276-.117a.432.432,0,0,0,.23-.076c.07-.045.184-.078.231-.12a.737.737,0,0,1,.229-.162l.184-.166.229-.206a.9.9,0,0,0,.139-.212c.045-.04.138-.079.183-.165a1.806,1.806,0,0,1,.138-.212,1.315,1.315,0,0,0,.138-.211l.138-.255a2.278,2.278,0,0,0,.138-.211c.032-.041.046-.129.093-.215l.138-.256c0-.087,0-.176.045-.216l.138-.255c0-.089.046-.173.046-.26.046-.087.046-.173.092-.259a1.67,1.67,0,0,0,.047-.217c.045-.084.045-.172.09-.257a.5.5,0,0,1,.048-.26c0-.088.045-.172.045-.261a.564.564,0,0,1,.093-.257v-.218a.529.529,0,0,0,.045-.26c0-.089.046-.173.046-.261.046-.085,0-.176,0-.262a.505.505,0,0,0,.048-.26c0-.089.045-.173.045-.26v-.263c0-.088.046-.173.046-.26v-2.365c0-.087.046-.171.046-.26s-.046-.177-.046-.265-.046-.177-.046-.265v-.526c0-.087-.045-.178-.045-.265v-.262c-.046-.09-.046-.178-.093-.268v-.218c0-.088-.045-.177-.045-.265a.525.525,0,0,0-.048-.265V329.6a.65.65,0,0,1-.09-.268c-.048-.09,0-.174-.048-.265,0-.088-.045-.178-.045-.265-.045-.091-.045-.178-.093-.267,0-.089-.092-.137-.092-.224-.046-.09-.046-.178-.091-.268s-.046-.178-.093-.223a.624.624,0,0,0-.091-.267c-.046-.09-.046-.178-.091-.267s-.093-.137-.138-.227a.632.632,0,0,0-.093-.267,1.057,1.057,0,0,1-.138-.226,1.124,1.124,0,0,1-.138-.226.81.81,0,0,0-.183-.229c-.048-.045-.048-.134-.138-.226-.048-.048-.093-.137-.139-.183l-.229-.23-.184-.185c-.051-.052-.184-.1-.229-.144-.093-.049-.138-.094-.231-.143s-.138-.139-.23-.188c-.091,0-.183-.1-.229-.1l-.276-.146c-.091,0-.184-.054-.276-.059a.64.64,0,0,0-.276-.057.614.614,0,0,0-.277-.06.443.443,0,0,1-.229-.056l-.276-.015a.7.7,0,0,0-.322.027c-.046.041-.181.073-.229.118a.841.841,0,0,0-.138.211.579.579,0,0,0-.093.257v.527c0,.132.046.134.046.265v.306c0,.13-.046.128-.046.26v.788c0,.13.045.133.045.265s-.045.129-.045.26v1.053c0,.13.045.133.045.307v.262c0,.132-.045.129-.045.26s.045.134.045.266-.045.128-.045.26v.524c0,.132.045.134.045.266v.263c0,.132-.045.129-.045.26s.045.134.045.266v.567c0,.132-.045.129-.045.261s.045.133.045.265-.045.128-.045.26v.262C836.505,333.338,836.55,333.341,836.55,333.473Z" transform="translate(-618.691 -316.959)" fill="#2ca6e0" stroke="rgba(0,0,0,0)" stroke-width="1"/>
    <path id="パス_13" data-name="パス 13" d="M868.19,347.558c-.044-.03-.138-.046-.185-.134a.475.475,0,0,1-.045-.221.315.315,0,0,1,.093-.217l.138-.26c.045-.085.045-.174.092-.26a.948.948,0,0,0,.138-.216c0-.088.046-.174.046-.262a.535.535,0,0,0,.045-.262c0-.087.093-.172.093-.261a.817.817,0,0,1,.045-.3V344.9a.521.521,0,0,1,.046-.262c0-.088-.046-.177-.046-.263s.046-.174.046-.261-.046-.177-.046-.309.046-.13.046-.261v-.526c0-.13-.046-.132-.046-.263s.046-.13.046-.218c0-.132-.046-.133-.046-.263s.046-.131.046-.262-.046-.132-.046-.263v-.262c0-.132.046-.13.046-.262v-.262c0-.13-.046-.132-.046-.263s.046-.13.046-.261v-2.364c0-.13-.048-.132-.048-.263s.048-.131.048-.261v-.263c0-.13-.048-.132-.048-.263s.048-.129.048-.261V336.5c0-.132-.048-.133-.048-.263v-.263c0-.13.048-.129.048-.261s-.048-.133-.048-.263.048-.13.048-.262v-.526c0-.132-.048-.133-.048-.265v-.262c0-.13.048-.13.048-.261s-.048-.133-.048-.263.048-.13.048-.262v-.262c0-.132-.048-.133-.048-.263v-.262c0-.132.048-.131.048-.262v-.262c0-.132-.048-.133-.048-.263v-.526c0-.131.048-.131.048-.261s-.048-.133-.048-.263v-.788c0-.132.046-.13.046-.262s-.046-.132-.046-.263.046-.129.046-.261-.046-.133-.046-.221v-.262c0-.132.046-.131.046-.262s-.046-.132-.046-.263v-.262c0-.132.046-.13.046-.262s-.046-.132-.046-.263.046-.131.046-.261-.046-.133-.046-.263v-.263c0-.13.046-.129.046-.261s-.046-.132-.046-.263v-.262c0-.132.046-.13.046-.262v-.262c0-.087-.046-.177-.046-.307,0-.088.046-.173.046-.262s-.046-.174-.046-.263v-.262c0-.088-.045-.176-.045-.263s-.046-.177-.046-.263a.63.63,0,0,0-.046-.309.552.552,0,0,0-.045-.263c0-.087-.046-.174-.046-.263-.046-.088-.091-.133-.138-.221s-.046-.177-.092-.265a1.018,1.018,0,0,0-.138-.222.6.6,0,0,1-.093-.265.438.438,0,0,1,.093-.173,2.065,2.065,0,0,1,.138-.215.426.426,0,0,1,.229-.04l.276.006.277.006.276.006.276,0,.276.006.276,0,.276,0,.23,0,.276,0,.276,0,.276,0,.276,0,.277,0,.276,0,.276,0,.276,0,.276,0,.23,0,.276,0,.276,0,.276,0c.093,0,.184.046.276.048s.185-.042.276-.04l.277,0,.276,0,.277,0,.276,0,.229,0,.276,0,.276,0,.276,0,.277,0,.276,0,.276,0,.276,0,.276,0h.277l.276,0a.607.607,0,0,0,.276-.043.458.458,0,0,0,.231-.041c.09,0,.183-.044.276-.043a.6.6,0,0,1,.276-.044.317.317,0,0,1,.276,0,.61.61,0,0,1,.276.046c.093.044.134.152.184.218a1.818,1.818,0,0,1,.138.221c0,.087.046.173.046.262a.536.536,0,0,1,.045.262.606.606,0,0,0,.093.263c0,.087.045.174.045.262a.607.607,0,0,0,.093.263,1.937,1.937,0,0,0,.045.218.708.708,0,0,0,.046.306.625.625,0,0,0,.046.263,1.885,1.885,0,0,1,.045.218c0,.088.093.176.093.262s.045.176.045.263c.046.088.046.176.093.262v.262a.62.62,0,0,1,.091.263.528.528,0,0,1,.046.262.543.543,0,0,1,.045.262.193.193,0,0,1,0,.221c-.045.043-.045.087-.138.13a.364.364,0,0,1-.229.087c-.093,0-.139-.045-.23-.088s-.184-.044-.229-.089l-.276-.132c-.093-.044-.138-.088-.23-.088a.591.591,0,0,0-.276-.045.7.7,0,0,0-.276-.089c-.093-.044-.184,0-.276-.045-.093,0-.184-.044-.277-.044a.722.722,0,0,1-.276-.046.39.39,0,0,1-.229,0l-.276,0h-.277a.591.591,0,0,0-.276-.046l-.276,0-.276,0c-.138,0-.138.043-.276.042h-.23l-.276,0-.276,0-.276,0-.23,0-.276,0-.276,0c-.138,0-.138-.046-.276-.048s-.138.043-.23.042a.51.51,0,0,0-.276.04.53.53,0,0,0-.367.345c-.046.085-.093.129-.093.217,0,.13.046.132.046.262s-.046.13-.046.263v.263c0,.13.046.132.046.262s-.046.132-.046.262.046.132.046.263v.524c0,.132-.045.132-.045.262s.045.132.045.263v.262c0,.132-.045.13-.045.262s.045.132.045.263-.045.131-.045.262v.787c0,.132.045.132.045.263v.262a.531.531,0,0,0,.046.263.3.3,0,0,0,.138.221,1.88,1.88,0,0,0,.23.134.514.514,0,0,0,.276.048l.229,0c.093,0,.093.046.23.048.091,0,.091-.044.23-.041l.276,0,.276,0,.276,0a.717.717,0,0,0,.322-.04c.091,0,.183.045.276,0,.091,0,.184-.041.276-.04s.184-.043.276-.043a.607.607,0,0,1,.276-.041c.093-.041.184-.041.276-.085a.686.686,0,0,0,.277-.084,1.05,1.05,0,0,0,.229-.13l.276-.129a.36.36,0,0,1,.231-.043.483.483,0,0,1,.23.046.779.779,0,0,1,.183.174.408.408,0,0,1,.046.221v1.837c0,.088.046.132.046.22v.262c0,.088-.046.176-.046.262v.262c0,.089.046.176.046.263s-.046.174-.046.263.046.174.046.262-.046.174-.046.263.046.173.046.262-.046.173-.046.262.046.174.046.263a.426.426,0,0,1-.276.348c-.093.044-.138.087-.23.085a.451.451,0,0,1-.231-.088c-.071-.05-.183-.089-.229-.133l-.277-.133a.588.588,0,0,0-.276-.046l-.276-.134c-.092,0-.183-.044-.276-.045a.6.6,0,0,1-.276-.046l-.276,0-.276,0c-.093,0-.231-.046-.322-.048l-.276,0c-.093,0-.184-.044-.276-.045l-.276,0-.23,0-.23,0c-.138,0-.138.041-.229.04a.508.508,0,0,0-.276.04.381.381,0,0,0-.23.128.929.929,0,0,0-.138.217.59.59,0,0,0-.091.261V337.9c0,.13.045.132.045.263v.787c0,.132-.045.132-.045.262s.045.132.045.263v1.576c0,.13-.046.13-.046.261v.263c0,.13.046.132.046.262v.526c0,.132-.046.13-.046.262v.262c0,.132.046.132.046.263V344.2c0,.087-.046.173-.046.262s.046.174.046.263v.262c0,.087.046.174.046.263s.045.218.046.3.045.177.045.263.046.177.046.263a.536.536,0,0,1,.046.265c.045.088.045.174.092.263s.091.133.138.221l.138.263a.331.331,0,0,1,.091.22.465.465,0,0,1-.045.22c-.046.087-.138.129-.184.172a.426.426,0,0,1-.229.042l-.276,0-.276,0-.277,0-.276,0-.276,0-.276,0-.277,0-.276,0-.276,0-.276,0-.276,0-.276,0-.277,0-.276,0-.276-.006-.276,0-.276,0-.276-.006-.276-.006-.277,0-.276-.006A.4.4,0,0,1,868.19,347.558Z" transform="translate(-610.471 -316.616)" fill="#2ca6e0" stroke="rgba(0,0,0,0)" stroke-width="1"/>
    <path id="パス_14" data-name="パス 14" d="M887.641,347.762c-.046-.041-.093-.129-.138-.172a.7.7,0,0,1-.093-.218c.046-.088.046-.174.093-.22l.138-.265c.045-.088.092-.133.138-.221s.045-.177.092-.265c0-.088.046-.176.046-.265.045-.088.045-.174.091-.263,0-.088.046-.176.046-.263s.045-.176.045-.306v-.788c0-.089.046-.177.046-.263s-.046-.174-.046-.306.046-.132.046-.263v-1.532c0-.132-.046-.13-.046-.262s.046-.132.046-.263-.046-.13-.046-.262v-.524c0-.132.046-.132.046-.263v-1.838c0-.132-.046-.13-.046-.261s.046-.133.046-.263v-.263c0-.13-.046-.13-.046-.261s.046-.133.046-.263v-1.05c0-.132-.046-.131-.046-.262v-.524c0-.132.046-.133.046-.263v-.265c0-.132-.046-.13-.046-.262s.046-.132.046-.262-.046-.13-.046-.262v-.262c0-.132.046-.133.046-.263v-.526c0-.13-.046-.13-.046-.261s.046-.133.046-.263v-.526c0-.132-.046-.13-.046-.262s.046-.132.046-.262v-3.109c0-.13-.046-.13-.046-.261v-.526c0-.13.046-.132.046-.263v-.524c0-.132-.046-.13-.046-.262s.046-.132.046-.263v-.788c0-.131-.046-.131-.046-.261v-1.1a.529.529,0,0,1-.045-.261.525.525,0,0,0-.046-.262v-.306c0-.088-.046-.173-.046-.262l-.138-.26a.538.538,0,0,0-.045-.262.863.863,0,0,1-.138-.216.933.933,0,0,0-.138-.216.6.6,0,0,1-.093-.261.751.751,0,0,1,.093-.222l.138-.133a.864.864,0,0,1,.229-.091l.277,0,.276,0,.276,0,.276,0,.322-.007.276,0,.276-.006.276-.006c.093,0,.184.04.276.038s.184-.048.277-.05l.276-.006.276-.007.276-.006.276-.007.277-.007.276-.007.276-.007.276-.007.276-.007.276-.009.23-.006.276-.009.276-.007.276-.009c.093,0,.184.038.276.035s.185-.05.277-.054l.276-.009.276-.009.276-.01.276-.01.277-.01.276-.01a.6.6,0,0,1,.276.035c.092,0,.184-.051.276-.055l.276-.01.277-.011c.092,0,.183.038.276.034s.183-.051.276-.055l.276-.011c.093-.049.184-.007.276-.056a.631.631,0,0,0,.276-.054.364.364,0,0,0,.231-.054.6.6,0,0,0,.276-.056c.093,0,.184-.05.276-.011a.628.628,0,0,1,.276.076.449.449,0,0,1,.184.167,1.633,1.633,0,0,1,.138.213c0,.087.046.172.046.26a.513.513,0,0,1,.045.261c.048.085.048.172.093.259a.516.516,0,0,0,.046.26c0,.088.046.172.046.261a.582.582,0,0,0,.091.259.514.514,0,0,0,.046.26.531.531,0,0,0,.045.261,1.776,1.776,0,0,1,.046.216c.046.087.046.174.091.259,0,.089.046.173.046.261.046.087.046.173.092.259v.262a.579.579,0,0,1,.093.259.529.529,0,0,1,.045.26c.046.087.046.173.093.259a.469.469,0,0,1-.046.222c0,.043-.046.133-.091.135a.728.728,0,0,1-.276.1.516.516,0,0,1-.23-.077,1.577,1.577,0,0,0-.231-.121c-.091,0-.183-.081-.229-.079a.686.686,0,0,0-.277-.074.646.646,0,0,0-.276-.076c-.091-.04-.183.009-.276.012-.091-.04-.183-.037-.276-.077a1.89,1.89,0,0,0-.23-.034c-.092,0-.183-.037-.276-.033l-.276.011-.276.011-.276.011c-.091-.04-.184.007-.276.011l-.276.01c-.138,0-.138-.039-.277-.034l-.276.01-.276.01-.276.01-.276.01-.276.01c-.138,0-.138.049-.276.054s-.138-.04-.277-.035-.138.049-.276.052l-.276.01-.277.009-.276.007a.621.621,0,0,0-.276.054c-.091,0-.138.09-.229.138a2.462,2.462,0,0,0-.138.222.411.411,0,0,0-.046.22v.262c0,.132-.046.133-.046.266v.262c0,.132.046.13.046.261v.744c0,.13-.046.133-.046.263s.046.13.046.261v.526c0,.132-.046.133-.046.263v.483c0,.13.046.129.046.261v1.05c.046.085.138.127.184.168a.75.75,0,0,0,.229.17c.093,0,.184.039.276.035l.276-.009.322-.01.322-.01.276-.009.322-.011c.091,0,.184-.05.277-.054s.183.038.276.035a.615.615,0,0,1,.276-.055l.276-.01c.138,0,.23-.052.322-.055.091-.046.184-.007.276-.054.091,0,.184-.051.276-.055.093-.048.184-.051.277-.1a.707.707,0,0,0,.276-.1,1.923,1.923,0,0,0,.229-.14c.07-.05.2-.045.276-.1a.463.463,0,0,1,.23-.1l.229-.01c.092.039.138.126.184.167a.519.519,0,0,1,.046.261v.744c0,.088.045.172.045.261s-.045.178-.045.265v3.37a1.845,1.845,0,0,1-.046.221.575.575,0,0,1-.184.183.561.561,0,0,1-.229.1c-.093,0-.187-.093-.23-.122-.071-.046-.185-.037-.276-.076s-.138-.127-.229-.123c-.093-.04-.184-.037-.276-.078a.619.619,0,0,0-.277-.032.656.656,0,0,0-.276-.078.614.614,0,0,0-.276-.033.892.892,0,0,1-.322-.033c-.093,0-.184.051-.276.01l-.276.01a.6.6,0,0,0-.276-.034l-.277.009c-.092,0-.184.051-.322.055s-.138-.039-.276-.035c-.184.006-.184.05-.322.055l-.322.01c-.138,0-.138-.04-.276-.035a.6.6,0,0,0-.276.052.81.81,0,0,0-.229.182,2.467,2.467,0,0,0-.138.222.416.416,0,0,0-.046.221v.262c0,.13-.046.132-.046.263s.046.13.046.261v.263c0,.13-.046.132-.046.263,0,.176.046.174.046.3v.526c0,.132-.046.133-.046.263s.046.13.046.262v1.312c0,.131-.046.133-.046.265s.046.13.046.262-.046.132-.046.263v.262c0,.132.046.13.046.261v1.094a.409.409,0,0,0,.046.218c.05.063.091.171.138.213a.771.771,0,0,0,.229.17c.093.04.184-.006.276-.009.138,0,.138.039.276.034l.277-.009.276-.009.276-.009.231-.007c.138,0,.138-.048.276-.052l.276-.01.276-.009c.139,0,.139.038.277.033l.276-.01c.138,0,.138-.048.276-.052s.138.037.276.032c.091,0,.184-.049.276-.052l.276-.011.276-.011.277-.01.276-.011c.092,0,.183-.052.276-.056a.634.634,0,0,1,.276-.056.537.537,0,0,1,.23-.051.6.6,0,0,1,.276-.056.673.673,0,0,1,.276-.1c.093-.049.184-.052.276-.1.093,0,.138-.093.231-.141s.138-.049.229-.1a.823.823,0,0,1,.229-.1.336.336,0,0,1,.231.077.584.584,0,0,1,.184.122.186.186,0,0,1,0,.218.629.629,0,0,1-.091.267.542.542,0,0,1-.046.266c0,.088-.046.177-.046.265-.045.089-.045.177-.092.267,0,.087-.046.176-.046.265s-.045.176-.045.265a.637.637,0,0,1-.093.267v.262a.548.548,0,0,0-.045.265.616.616,0,0,0-.093.266c0,.088-.045.177-.045.265a.338.338,0,0,0-.093.223.55.55,0,0,1-.045.265c0,.088-.048.177-.048.265a.554.554,0,0,0-.045.265.627.627,0,0,0-.093.266.461.461,0,0,1-.092.267.994.994,0,0,1-.229.141c-.093.048-.184.139-.276.143l-.276.012a.843.843,0,0,0-.23-.078.663.663,0,0,1-.276-.076l-.276.011-.276.011-.277.011c-.092,0-.184-.037-.276-.033-.091-.041-.184.007-.276.01l-.277.011-.276.01-.276.011-.229.007-.276.01-.277.01-.276.01-.276.009-.276.01-.276.009-.277.009-.276.009-.276.009-.276.009-.276.009-.23.006-.276.009-.276.007-.276.007-.276.007-.276.007-.277.007-.276.006-.276.007-.276.006-.276.007-.23,0-.276.006-.276.006-.276.006-.276,0-.276.006-.277,0-.276,0-.322.006-.322.006A.5.5,0,0,1,887.641,347.762Z" transform="translate(-606.199 -316.692)" fill="#2ca6e0" stroke="rgba(0,0,0,0)" stroke-width="1"/>
    <path id="パス_15" data-name="パス 15" d="M907.178,341.965a.386.386,0,0,1,.184-.187.708.708,0,0,1,.277-.109.36.36,0,0,1,.229.115c.091.038.138.078.229.115.093.082.138.165.184.206s.183.073.23.115a.871.871,0,0,0,.229.113,1.678,1.678,0,0,1,.23.115c.07.041.184.029.229.069l.276.11c.093.038.138.077.231.115a.624.624,0,0,1,.276.067,2.027,2.027,0,0,0,.23.024c.092.037.183.029.276.067a2.051,2.051,0,0,1,.229.024,603.984,603.984,0,0,1,.552.044.606.606,0,0,0,.276.021l.276-.023.276-.023.231-.02a.666.666,0,0,1,.276-.066l.276-.023c.092-.007.184-.06.276-.068a.639.639,0,0,1,.276-.068.919.919,0,0,1,.23-.106l.276-.156a.5.5,0,0,0,.229-.109c.071-.055.185-.117.23-.152.071-.055.184-.117.231-.151.071-.055.183-.1.229-.152.092-.1.134-.183.184-.235s.138-.1.229-.2c.046-.046.092-.14.138-.187a.9.9,0,0,0,.184-.237,1.071,1.071,0,0,0,.138-.232c.045-.091.093-.139.138-.23s.06-.182.093-.229c.05-.071.045-.178.091-.271a.768.768,0,0,0,.092-.227,610.961,610.961,0,0,0,.093-.534c0-.088.045-.179.045-.267v-.787c-.045-.084-.045-.172-.091-.254,0-.089-.046-.128-.092-.212a.556.556,0,0,0-.093-.254.3.3,0,0,0-.091-.21l-.139-.249c-.045-.04-.134-.116-.183-.159s-.093-.166-.138-.206a.881.881,0,0,0-.138-.207c-.093-.078-.184-.113-.231-.152a.662.662,0,0,0-.183-.2c-.046-.039-.182-.068-.23-.111l-.184-.157c-.092-.035-.138-.118-.229-.155l-.184-.16-.276-.106c-.046-.039-.094-.123-.184-.159a1.463,1.463,0,0,1-.229-.155,1.4,1.4,0,0,0-.231-.111c-.093-.037-.138-.076-.23-.112a.71.71,0,0,1-.229-.156.956.956,0,0,0-.229-.111c-.091-.035-.138-.076-.23-.112s-.138-.076-.231-.112-.138-.076-.229-.112a1.332,1.332,0,0,0-.229-.155c-.044-.027-.161-.115-.231-.157-.043-.026-.161-.071-.23-.112a2.3,2.3,0,0,1-.183-.161.863.863,0,0,0-.23-.157c-.045-.039-.138-.076-.183-.117-.093-.079-.183-.113-.23-.155s-.138-.078-.23-.159c-.045-.04-.134-.117-.183-.161s-.138-.121-.184-.16l-.229-.2c-.046-.039-.093-.123-.139-.163-.092-.082-.137-.165-.183-.2s-.138-.077-.184-.161c-.091-.082-.182-.115-.23-.159s-.091-.168-.138-.207a1.523,1.523,0,0,0-.138-.21,1.946,1.946,0,0,0-.184-.2c-.045-.085-.045-.172-.091-.256a.844.844,0,0,1-.138-.21c-.046-.083-.091-.124-.138-.209s-.046-.172-.091-.255-.093-.126-.138-.209a.554.554,0,0,0-.093-.256.3.3,0,0,0-.093-.213c0-.087,0-.218-.045-.26,0-.087-.046-.17-.046-.259a.552.552,0,0,1-.092-.256.513.513,0,0,0-.046-.26v-.262a.51.51,0,0,1-.046-.26.518.518,0,0,1-.045-.259v-.788c0-.087-.046-.172-.046-.26s.046-.178.046-.266a.556.556,0,0,1,.045-.265c0-.088-.045-.173,0-.263a.4.4,0,0,1,.046-.223c0-.087.046-.177.046-.266a.551.551,0,0,1,.046-.266c0-.087.045-.177.045-.265a.544.544,0,0,0,.046-.266.752.752,0,0,0,.093-.226l.138-.272a.348.348,0,0,1,.091-.226c.046-.091.046-.178.092-.268s.093-.138.138-.23a2.079,2.079,0,0,1,.139-.228,2.581,2.581,0,0,1,.138-.229c.091-.094.091-.182.138-.229.091-.094.138-.185.183-.232a.758.758,0,0,1,.184-.189c.093-.094.134-.181.184-.232a1.06,1.06,0,0,1,.231-.193.749.749,0,0,1,.183-.19c.046-.046.179-.1.23-.149a2.631,2.631,0,0,1,.23-.191c.044-.034.159-.1.229-.149.045-.034.16-.1.229-.15a2.15,2.15,0,0,1,.23-.149,1.177,1.177,0,0,0,.23-.15.733.733,0,0,0,.276-.11c.092-.05.183-.059.229-.106a.725.725,0,0,1,.276-.11.659.659,0,0,1,.277-.067c.091-.051.183-.059.276-.11a.529.529,0,0,0,.229-.107l.276-.023a.638.638,0,0,1,.276-.066c.093-.009.184-.061.276-.068l.277-.024a.62.62,0,0,0,.276-.068l.276-.024.277-.024.276-.024.276-.024.229-.021a.6.6,0,0,1,.277.018.576.576,0,0,1,.276.02l.276-.027c.092-.009.183.026.276.017a.416.416,0,0,0,.23.023.572.572,0,0,0,.276.017c.092-.009.183.026.276.017a.572.572,0,0,0,.276.017l.276-.027a.5.5,0,0,0,.231.022c.091.033.183-.018.276-.028a.6.6,0,0,0,.276.016l.276-.028c.092-.009.184-.061.276-.071.091-.054.185-.077.229-.112a.433.433,0,0,1,.23-.11c.093-.01.184-.02.231.02a.169.169,0,0,1,.183.112c.046.038.046.127.046.213a.5.5,0,0,0,.046.259c0,.13.045.126.045.257v.526a.5.5,0,0,1,.046.257v.262a.5.5,0,0,1,.046.257v.263c.045.126,0,.13,0,.262s.045.127.045.257v.526l.093.252v.483c0,.131.045.126.045.257s-.045.137-.045.267c.045.083,0,.174-.046.268a.693.693,0,0,1-.138.188.747.747,0,0,1-.276.117.92.92,0,0,1-.229-.107c-.093-.079-.182-.11-.23-.151a2.245,2.245,0,0,0-.184-.157,2.442,2.442,0,0,1-.229-.107c-.093-.078-.184-.113-.23-.151l-.276-.1a.9.9,0,0,0-.229-.109c-.093-.034-.138-.074-.231-.107s-.184-.028-.276-.062-.138-.029-.23-.065a.622.622,0,0,0-.276-.06c-.091-.035-.183-.027-.276-.062-.093.009-.183-.026-.276-.016a.574.574,0,0,0-.276-.018c-.046-.04-.138-.032-.23-.023a.642.642,0,0,0-.276-.061l-.276.026-.276.026c-.093.007-.184.061-.276.068s-.185-.027-.277.026a.728.728,0,0,0-.276.111.639.639,0,0,0-.276.07,2.08,2.08,0,0,0-.229.151c-.071.055-.184.059-.277.111s-.139.157-.184.191c-.071.055-.183.148-.229.194a1.094,1.094,0,0,0-.184.235,1.059,1.059,0,0,0-.138.23,1.078,1.078,0,0,0-.138.229.649.649,0,0,1-.092.271c0,.089-.046.179-.046.268s-.046.178-.046.266v.263c0,.087-.045.177-.045.266s.045.17.045.259v.262c.046.084.093.124.093.211.045.083.045.172.092.255s.046.172.091.21l.138.251a.829.829,0,0,0,.138.209,2.05,2.05,0,0,1,.184.2,1.611,1.611,0,0,0,.138.163c.093.079.138.161.184.2a.826.826,0,0,1,.184.2l.184.157c.049.044.138.077.229.156l.184.159c.049.041.181.068.229.111a2.093,2.093,0,0,0,.231.154,1.6,1.6,0,0,0,.23.11l.183.159a.924.924,0,0,1,.231.111,1.5,1.5,0,0,0,.229.154c.07.041.161.112.229.152a1.687,1.687,0,0,0,.231.11.724.724,0,0,1,.23.154.875.875,0,0,0,.229.11c.046.04.092.123.184.159a.7.7,0,0,1,.23.152c.045.039.181.067.229.11s.138.073.229.151l.184.157a.869.869,0,0,0,.23.109l.184.157c.091.078.183.111.229.151a1.973,1.973,0,0,0,.184.157c.069.041.183.068.229.152l.184.155.184.157.229.194c.046.04.093.122.138.162a2.605,2.605,0,0,1,.184.2c.049.043.138.117.184.156l.138.249.184.156a.779.779,0,0,0,.138.2.824.824,0,0,0,.183.2c.048.082.048.17.093.252.045.038.138.117.138.2a.807.807,0,0,1,.138.2c.046.084.046.171.093.252s.091.122.138.2a.51.51,0,0,0,.045.257c.046.083.046.17.093.254a1.734,1.734,0,0,0,.045.212.533.533,0,0,1,.093.252.517.517,0,0,1,.045.259.489.489,0,0,1,.047.257.55.55,0,0,1,.09.252.486.486,0,0,0,.047.257v.262c0,.089.045.171.045.257s-.045.181-.045.268v.524c0,.089.045.171.045.26a.665.665,0,0,1-.092.272c0,.088.046.17,0,.262v.263c-.046.048-.046.135-.091.228,0,.087-.046.181-.046.267s-.046.181-.046.268a.567.567,0,0,0-.045.267l-.139.278a.821.821,0,0,1-.091.228.651.651,0,0,1-.093.272c0,.089-.045.137-.091.229a.66.66,0,0,0-.091.273c-.046.091-.046.18-.093.272-.045.049-.088.161-.138.233a1.7,1.7,0,0,0-.183.239c-.048.049-.048.137-.093.228a1.944,1.944,0,0,1-.183.238,1.891,1.891,0,0,1-.185.239,1.131,1.131,0,0,0-.138.233l-.183.2a1.936,1.936,0,0,1-.184.237c-.033.048-.133.139-.184.2s-.138.1-.231.2a.777.777,0,0,1-.183.194l-.184.194c-.091.1-.18.146-.229.2a1.058,1.058,0,0,1-.23.155,1.318,1.318,0,0,1-.229.154.889.889,0,0,1-.23.2c-.091.054-.138.1-.229.154s-.184.062-.277.116a1.215,1.215,0,0,1-.229.154c-.091.051-.184.06-.276.113a1.2,1.2,0,0,1-.229.154.75.75,0,0,0-.277.112.869.869,0,0,0-.229.111.651.651,0,0,0-.276.068c-.093.009-.185.061-.276.069a.751.751,0,0,0-.277.112l-.276.024c-.091.009-.184.061-.277.07a.649.649,0,0,0-.276.07l-.276.024c-.091.007-.183.059-.276.067l-.276.023c-.093.009-.184-.027-.276-.018l-.276.023a.574.574,0,0,1-.276-.021c-.093.009-.184.06-.277.068a.59.59,0,0,0-.276-.022c-.091.007-.183-.029-.276-.022l-.276.023a.606.606,0,0,0-.276-.021c-.093.007-.138-.033-.231-.07l-.276.022c-.093.007-.184-.028-.276-.021l-.276.022-.276.021-.323.024-.276.022c-.091.006-.138.052-.229.06a.617.617,0,0,1-.277.065c-.09.051-.183.059-.276.107-.091.007-.183.059-.276.065a.578.578,0,0,1-.276-.024c-.045-.039-.138-.077-.183-.161,0-.044-.093-.124-.093-.212,0-.132.046-.135,0-.263,0-.13-.046-.128-.046-.259a.523.523,0,0,0-.045-.26v-.524c0-.132-.046-.128-.046-.26v-.262c0-.132-.046-.128-.093-.256v-.262a.522.522,0,0,0-.045-.26v-.524a.51.51,0,0,1-.046-.26c-.046-.128,0-.132-.046-.26v-.262a.508.508,0,0,1-.046-.259.523.523,0,0,0-.045-.26v-.262A.4.4,0,0,1,907.178,341.965Z" transform="translate(-601.878 -316.987)" fill="#2ca6e0" stroke="rgba(0,0,0,0)" stroke-width="1"/>
  </g>
</svg>
