<?xml version="1.0" encoding="utf-8"?>
<!-- Generator: Adobe Illustrator 23.0.6, SVG Export Plug-In . SVG Version: 6.00 Build 0)  -->
<svg version="1.1" id="レイヤー_1" xmlns="http://www.w3.org/2000/svg" xmlns:xlink="http://www.w3.org/1999/xlink" x="0px"
	 y="0px" viewBox="0 0 320.6 61" style="enable-background:new 0 0 320.6 61;" xml:space="preserve">
<style type="text/css">
	.st0{fill:#2CA6E0;}
</style>
<path class="st0" d="M14.6,58.3c0.1,0.1,0.2,0.3,0.2,0.5c0,0.2-0.1,0.3-0.2,0.5c-0.1,0.1-0.2,0.3-0.3,0.4c-0.2,0-0.3,0.1-0.5,0.1
	H1.5c-0.2,0-0.3,0-0.5-0.1c-0.2-0.1-0.3-0.2-0.4-0.4c-0.1-0.2-0.1-0.3-0.1-0.5c0-0.2,0.1-0.4,0.2-0.6c0.1-0.1,0.2-0.3,0.3-0.5
	c0.1-0.1,0.1-0.4,0.2-0.6c0.1-0.1,0.2-0.3,0.3-0.5c0.1-0.2,0-0.4,0.1-0.6c0-0.2,0.1-0.4,0.2-0.6v-0.7c0.1-0.2,0.1-0.4,0.2-0.6
	c0-0.2-0.1-0.4-0.1-0.6C2,53.5,2,53.3,2,53.1v-1.2c0-0.2,0.1-0.4,0.1-0.7v-0.6C2.1,50.3,2,50.3,2,50v-0.6c0-0.3,0.1-0.3,0.1-0.6
	S2,48.6,2,48.4V46c0-0.3,0.1-0.3,0.1-0.6S2,45.2,2,44.9v-0.6C2,44,2.1,44,2.1,43.7S2,43.4,2,43.1v-1.8c0-0.3,0.1-0.3,0.1-0.6
	c0-0.3-0.1-0.3-0.1-0.6v-2.3c0-0.3,0.1-0.3,0.1-0.6S2,36.9,2,36.7s0.1-0.3,0.1-0.6v-1.2c0-0.3-0.1-0.3-0.1-0.6v-0.6
	c0-0.3,0.1-0.3,0.1-0.6V32c0-0.3-0.1-0.3-0.1-0.6s0.1-0.3,0.1-0.6v-1.2C2.1,29.3,2,29.3,2,29c0-0.3,0.1-0.3,0.1-0.6v-0.6
	c0-0.3-0.1-0.3-0.1-0.6v-0.6c0-0.3,0.1-0.3,0.1-0.6S2,25.8,2,25.5c0-0.3,0.1-0.3,0.1-0.6c0-0.3-0.1-0.3-0.1-0.6
	C2,24,2.1,24,2.1,23.8v-1.2C2.1,22.3,2,22.3,2,22s0.1-0.3,0.1-0.6v-0.6c0-0.3-0.1-0.3-0.1-0.6v-4c0-0.3,0.1-0.3,0.1-0.6v-0.6
	c0-0.3-0.1-0.3-0.1-0.6v-0.6c0-0.3,0.1-0.3,0.1-0.6V11c0-0.3-0.1-0.3-0.1-0.6s0.1-0.3,0.1-0.6V9.1C2.1,8.9,2,8.7,2,8.5
	c0-0.2,0.1-0.4,0-0.6V7.3C1.9,7.2,1.9,7,1.9,6.8V6.1c0-0.2-0.2-0.4-0.2-0.5c0-0.2,0-0.5-0.1-0.7c0-0.2-0.1-0.4-0.1-0.6
	C1.4,4.1,1.3,3.9,1.3,3.7C1.2,3.5,1.1,3.4,1,3.2L0.7,2.6C0.6,2.5,0.6,2.3,0.6,2.2c-0.1-0.1,0-0.3,0.1-0.5L1,1.4
	c0.2-0.1,0.3-0.2,0.5-0.2h12.3c0.2,0,0.3,0.1,0.5,0.2c0.1,0,0.2,0.2,0.3,0.4c0.1,0.1,0.1,0.3,0.1,0.4c0,0.2,0,0.4-0.1,0.6
	c-0.1,0.1-0.2,0.3-0.3,0.5c-0.1,0.2-0.2,0.4-0.2,0.6C14,4,13.9,4.1,13.8,4.3c-0.1,0.4-0.1,0.8-0.2,1.2c-0.1,0.2-0.1,0.5-0.2,0.7v0.6
	c0,0.2-0.1,0.4-0.1,0.6v0.6c0,0.2-0.1,0.4-0.1,0.6s0.1,0.4,0.1,0.6c0,0.3-0.1,0.5-0.1,0.7c0,0.3,0.1,0.3,0.1,0.6V11
	c0,0.3-0.1,0.3-0.1,0.6s0.1,0.3,0.1,0.6s-0.1,0.3-0.1,0.6v1.8c0,0.3,0.1,0.3,0.1,0.6v1.1c0,0.3-0.1,0.3-0.1,0.6s0.1,0.3,0.1,0.6v1.2
	c0,0.3-0.1,0.3-0.1,0.6s0.1,0.3,0.1,0.6s-0.1,0.3-0.1,0.6V22c0,0.3,0.1,0.3,0.1,0.6c0,0.3-0.1,0.3-0.1,0.6s0.1,0.3,0.1,0.6v1.8
	c0,0.3-0.1,0.3-0.1,0.6s0.1,0.3,0.1,0.6s-0.1,0.3-0.1,0.6v0.6c0,0.3,0.1,0.3,0.1,0.6s-0.1,0.3-0.1,0.6v0.6c0,0.3,0.1,0.3,0.1,0.6
	c0,0.3-0.1,0.3-0.1,0.6s0.1,0.3,0.1,0.6v1.2c0,0.3-0.1,0.3-0.1,0.6v0.6c0,0.3,0.1,0.3,0.1,0.6v1.8c0,0.3-0.1,0.3-0.1,0.6v1.8
	c0,0.3,0.1,0.3,0.1,0.6c0,0.3-0.1,0.3-0.1,0.6s0.1,0.3,0.1,0.6c0,0.3-0.1,0.3-0.1,0.6v0.6c0,0.3,0.1,0.3,0.1,0.6s-0.1,0.3-0.1,0.6
	v1.2c0,0.3,0.1,0.3,0.1,0.6v1.2c0,0.3-0.1,0.3-0.1,0.6v1.1c0,0.3,0.1,0.3,0.1,0.6s-0.1,0.3-0.1,0.6s0.1,0.3,0.1,0.6v0.6
	c0,0.3-0.1,0.3-0.1,0.6s0.1,0.3,0.1,0.6v0.6c0,0.3-0.1,0.5-0.1,0.7c0,0.2,0.1,0.4,0.1,0.6v1.2c0.1,0.2,0.1,0.4,0.1,0.6v0.7
	c0,0.2,0.1,0.4,0.1,0.6c0.1,0.2,0.1,0.4,0.1,0.6l0.3,0.6c0,0.2,0.1,0.4,0.2,0.5c0.1,0.2,0.1,0.4,0.2,0.6L14.6,58.3z M70.8,32.3
	c0-0.2,0-0.4,0.1-0.6v-0.6c0.1-0.2,0.1-0.4,0.1-0.6c0.1-0.2,0.1-0.4,0.2-0.6c0-0.2,0.1-0.4,0.2-0.6c0-0.2,0-0.4,0.1-0.6l0.3-0.6
	c0.1-0.2,0.2-0.3,0.3-0.5c0.1-0.2,0.2-0.3,0.2-0.5c0-0.2,0-0.4-0.1-0.6c-0.1-0.1-0.3-0.3-0.4-0.3c-0.2-0.1-0.3-0.2-0.5-0.2h-1.3
	c-0.2,0-0.4,0.1-0.6,0.1s-0.4-0.1-0.6-0.1h-1.8c-0.2,0-0.4,0.1-0.6,0.1H66c-0.2,0-0.4-0.1-0.6-0.1h-2.4c-0.2,0-0.4,0.1-0.6,0.1
	s-0.4-0.1-0.6-0.1h-1.2c-0.2,0-0.4,0.1-0.6,0.1c-0.2,0-0.3,0-0.5,0.1c-0.2,0.1-0.3,0.2-0.4,0.4c0,0.2-0.1,0.3-0.1,0.5
	c0,0.2,0,0.3,0.1,0.5c0.1,0.2,0.2,0.3,0.3,0.5l0.3,0.6c0.1,0.2,0.2,0.3,0.3,0.5c0,0.2,0,0.5,0.1,0.7c0,0.2,0.1,0.3,0.2,0.6v0.6
	c0.1,0.2,0.1,0.4,0.1,0.6v0.6c0,0.2,0.1,0.4,0.1,0.6c0,0.2,0,0.5,0,0.7v4.1c0,0.2,0.1,0.3,0.1,0.5c0,0.2-0.1,0.4-0.1,0.6v4.7
	c0,0.2,0.1,0.4,0.1,0.6c0,0.2-0.1,0.4-0.1,0.6v1.2c0,0.2,0.1,0.4,0.1,0.6c0,0.2-0.1,0.4-0.1,0.6v2.2c0,0.2,0.1,0.3,0.1,0.5v0.5
	c0,0.2-0.1,0.4-0.2,0.6c-0.1,0.2-0.2,0.4-0.4,0.5c-0.1,0.1-0.2,0.3-0.4,0.3c-0.2,0.1-0.4,0.1-0.6,0.1h-0.6c-0.2,0-0.4-0.1-0.6-0.1
	c-0.2,0-0.4,0-0.6-0.1c-0.2,0-0.4-0.1-0.6-0.2c-0.2-0.1-0.3-0.1-0.5-0.1l-0.6-0.3c-0.2-0.1-0.3-0.2-0.5-0.3
	c-0.2-0.1-0.4-0.1-0.5-0.2c-0.2-0.1-0.4-0.2-0.6-0.4l-0.4-0.4c-0.1-0.1-0.3-0.2-0.5-0.3c-0.1-0.2-0.2-0.4-0.4-0.5
	c-0.1-0.1-0.2-0.3-0.4-0.4c-0.1-0.2-0.2-0.3-0.3-0.5c-0.1-0.2-0.2-0.3-0.3-0.5c-0.1-0.2-0.2-0.3-0.4-0.5c-0.1-0.2-0.1-0.4-0.2-0.6
	c-0.1-0.1-0.2-0.3-0.3-0.5c-0.1-0.2-0.2-0.3-0.3-0.5c-0.1-0.2-0.1-0.4-0.2-0.6s-0.1-0.3-0.2-0.5l-0.3-0.6c0-0.2,0-0.4-0.1-0.6
	c0-0.2-0.1-0.3-0.2-0.5c0-0.2-0.1-0.4-0.2-0.6c0-0.2,0-0.4-0.1-0.6c0-0.2-0.1-0.4-0.1-0.6c0-0.2-0.1-0.4-0.2-0.6
	c0-0.2,0-0.3-0.1-0.5c0-0.2,0-0.4-0.1-0.6v-0.6c0-0.2-0.1-0.4-0.1-0.6s-0.1-0.4-0.1-0.6c-0.1-0.2,0-0.4,0-0.6
	c-0.1-0.2-0.1-0.4-0.1-0.6c-0.1-0.2-0.1-0.4-0.1-0.6v-1.2c0-0.2-0.1-0.4-0.1-0.6v-1.2c0-0.2-0.1-0.4-0.1-0.6v-1.2
	c0-0.2,0.1-0.4,0.1-0.6c0-0.2-0.1-0.4-0.1-0.6c0-0.2,0.1-0.4,0.1-0.6v-2.3c0.1-0.2,0.1-0.4,0.1-0.6c0-0.2,0.1-0.4,0.1-0.6
	c0-0.2,0-0.4,0.1-0.6c0-0.2-0.1-0.4-0.1-0.6c0.1-0.2,0.2-0.4,0.2-0.6v-0.6c0.1-0.2,0.1-0.4,0.1-0.6c0-0.2,0.1-0.4,0.2-0.6
	c0.1-0.4,0.1-0.8,0.2-1.2v-0.6c0.1-0.2,0.2-0.3,0.2-0.5c0.1-0.2,0.1-0.4,0.2-0.6c0-0.2,0.1-0.4,0.2-0.6c0-0.2,0.1-0.4,0.1-0.6
	c0.1-0.2,0.2-0.3,0.2-0.5c0.1-0.2,0.2-0.4,0.2-0.6c0.1-0.2,0.2-0.3,0.3-0.5c0.1-0.2,0.1-0.4,0.2-0.6c0.1-0.2,0.2-0.3,0.3-0.5
	l0.3-0.6c0.1-0.1,0.2-0.3,0.3-0.5c0.2-0.1,0.3-0.3,0.4-0.5c0.1-0.1,0.2-0.3,0.3-0.4c0.2-0.1,0.3-0.3,0.4-0.5
	c0.2-0.1,0.3-0.3,0.4-0.5c0.1-0.1,0.3-0.2,0.5-0.4l0.4-0.4c0.2-0.1,0.4-0.2,0.5-0.4c0.1-0.1,0.3-0.2,0.5-0.3
	c0.1-0.1,0.4-0.1,0.5-0.2c0.2-0.1,0.3-0.2,0.5-0.3c0.2-0.1,0.4-0.1,0.6-0.2c0.2,0,0.4-0.2,0.6-0.2c0.4-0.1,0.8-0.1,1.2-0.2
	c0.2,0,0.4-0.1,0.6-0.1c0.2-0.1,0.4-0.1,0.6-0.1c0.2,0,0.4,0.1,0.6,0.1s0.4-0.1,0.6-0.1h0.5c0.2,0.1,0.4,0.2,0.6,0.2
	c0.2,0,0.4,0.1,0.6,0.1c0.2,0,0.4,0.1,0.6,0.2c0.2,0,0.3,0.1,0.5,0.2c0.2,0,0.4,0.1,0.6,0.2c0.1,0.1,0.3,0.1,0.5,0.2
	c0.2,0.1,0.3,0.2,0.5,0.3c0.2,0.1,0.3,0.2,0.5,0.3c0.2,0.1,0.3,0.2,0.5,0.3c0.2,0.1,0.3,0.3,0.4,0.4c0.2,0.1,0.3,0.3,0.5,0.4
	c0.1,0.1,0.2,0.3,0.4,0.5l0.4,0.4c0.1,0.2,0.3,0.2,0.5,0.3c0.2,0,0.4,0,0.6-0.1c0.2-0.1,0.4-0.2,0.5-0.4c0.1-0.2,0.1-0.4,0.1-0.6
	c0-0.3-0.1-0.3-0.1-0.6v-1.1c0-0.2,0-0.4-0.1-0.6V9.2C69,9,69,8.8,69,8.6c0-0.2,0-0.4-0.1-0.6c0-0.3,0.1-0.3,0.1-0.5
	c-0.1-0.2-0.1-0.4-0.1-0.6V6.3c-0.1-0.2-0.1-0.4-0.1-0.6V5.2c-0.1-0.2-0.1-0.4-0.1-0.6c-0.1-0.3,0-0.3-0.1-0.5
	c0-0.3,0.1-0.3,0.1-0.6c-0.1-0.2-0.1-0.4-0.1-0.6c0-0.2,0-0.4-0.1-0.6V1.7c0-0.2,0-0.3-0.1-0.5C68.3,1.1,68.2,1,68,1
	c-0.2-0.1-0.4-0.2-0.5-0.1c-0.2,0-0.4,0.1-0.5,0.2c-0.2,0.1-0.4,0.1-0.6,0.2c-0.2,0-0.4,0.2-0.6,0.2s-0.4-0.1-0.6-0.1
	s-0.4-0.1-0.6-0.1s-0.4-0.2-0.6-0.2c-0.2,0-0.4,0-0.6-0.1c-0.2,0-0.4-0.1-0.6-0.2c-0.2,0-0.5,0-0.7-0.1c-0.2,0-0.4,0-0.6-0.1h-0.6
	c-0.2,0-0.4-0.1-0.6-0.1h-2.9c-0.2,0-0.4,0.1-0.6,0.1h-0.6c-0.2,0.1-0.4,0-0.6,0c-0.2,0.1-0.4,0.1-0.6,0.1c-0.2,0.1-0.4,0.1-0.6,0.2
	c-0.4,0.1-0.8,0.1-1.2,0.2c-0.2,0-0.4,0.1-0.6,0.1c-0.2,0.1-0.4,0.1-0.6,0.2c-0.2,0-0.4,0.1-0.5,0.2c-0.2,0-0.4,0.1-0.6,0.2
	c-0.2,0-0.4,0-0.6,0.1C50.4,2,50.2,2,50,2.1c-0.2,0.1-0.3,0.2-0.5,0.3L49,2.6c-0.1,0.1-0.3,0.2-0.5,0.3C48.3,3,48.1,3,48,3.1
	c-0.2,0.1-0.3,0.2-0.5,0.3c-0.2,0.2-0.4,0.3-0.5,0.4c-0.2,0.1-0.3,0.2-0.5,0.3c-0.2,0.1-0.3,0.2-0.5,0.3l-0.5,0.5
	c-0.1,0.1-0.3,0.2-0.4,0.3l-0.5,0.5c-0.1,0.1-0.3,0.2-0.4,0.3c-0.2,0.1-0.3,0.3-0.4,0.5c-0.2,0.1-0.3,0.3-0.5,0.4
	c-0.1,0.2-0.1,0.4-0.3,0.6c-0.1,0.1-0.2,0.3-0.4,0.4c-0.1,0.2-0.2,0.3-0.3,0.5c-0.2,0.1-0.2,0.3-0.3,0.5s-0.3,0.3-0.4,0.5
	c-0.1,0.2-0.2,0.3-0.3,0.5l-0.3,0.6c-0.1,0.1-0.2,0.3-0.2,0.5c-0.1,0.2-0.3,0.3-0.4,0.5c-0.1,0.2-0.2,0.3-0.2,0.5
	c-0.1,0.2-0.2,0.4-0.2,0.6c-0.1,0.2-0.3,0.4-0.3,0.5c-0.1,0.2-0.1,0.4-0.2,0.6c-0.1,0.2-0.1,0.4-0.2,0.6s-0.1,0.4-0.2,0.6
	c-0.1,0.1-0.2,0.3-0.2,0.5c-0.1,0.2-0.2,0.4-0.2,0.6c-0.1,0.2-0.1,0.4-0.2,0.6c0,0.2,0,0.4-0.1,0.6c0,0.2-0.1,0.4-0.1,0.6
	c-0.1,0.2-0.1,0.3-0.2,0.5c0,0.2,0,0.4-0.1,0.6c0,0.2-0.1,0.4-0.2,0.6c0,0.2,0,0.4-0.1,0.6c-0.1,0.4-0.1,0.8-0.2,1.2v0.6
	c0,0.2-0.1,0.4-0.2,0.6c0,0.2,0.1,0.4,0,0.6c0,0.2-0.1,0.4-0.1,0.6v0.6c0,0.2-0.1,0.4-0.1,0.6c0,0.2-0.1,0.4-0.1,0.6v1.2
	c0,0.2-0.1,0.4-0.1,0.6V28c0,0.2,0,0.4-0.1,0.6v1.8l0,0v2.3c0,0.2,0.1,0.4,0.1,0.6s-0.1,0.4,0,0.6c0,0.2,0.1,0.4,0.1,0.6
	s-0.1,0.4-0.1,0.6c0,0.2,0.1,0.4,0.1,0.6v1.2c0.1,0.4,0.1,0.8,0.2,1.2v0.6c0.1,0.2,0.1,0.4,0.1,0.6c0,0.2,0.1,0.4,0.1,0.6
	c0,0.2,0,0.4,0.1,0.6c0,0.2,0.1,0.4,0.1,0.6c0,0.2,0.1,0.4,0.1,0.6c0,0.2,0.1,0.4,0.1,0.6c0.1,0.4,0.1,0.8,0.2,1.2
	c0,0.2,0.1,0.4,0.1,0.6c0.1,0.2,0.2,0.4,0.2,0.6c0.1,0.1,0.1,0.3,0.2,0.5c0,0.2,0.1,0.4,0.1,0.6c0.1,0.2,0.1,0.4,0.2,0.6
	c0,0.2,0.1,0.4,0.2,0.6c0,0.2,0.1,0.3,0.1,0.5c0.1,0.2,0.1,0.4,0.2,0.6l0.3,0.6c0.1,0.2,0.2,0.3,0.2,0.5l0.3,0.6
	c0,0.2,0.1,0.3,0.2,0.5c0.1,0.2,0.1,0.4,0.2,0.6c0.1,0.2,0.3,0.3,0.4,0.5s0.1,0.4,0.2,0.5c0.1,0.2,0.2,0.3,0.4,0.5
	c0.1,0.2,0.2,0.3,0.3,0.5c0.1,0.2,0.3,0.3,0.4,0.5s0.1,0.4,0.3,0.5c0.1,0.2,0.3,0.3,0.4,0.5c0.1,0.1,0.2,0.3,0.3,0.5
	c0.2,0.1,0.3,0.3,0.4,0.4l0.5,0.5c0.1,0.1,0.3,0.2,0.4,0.4c0.2,0.1,0.4,0.2,0.5,0.4c0.1,0.1,0.3,0.2,0.5,0.3l0.4,0.4
	c0.2,0.1,0.3,0.3,0.5,0.4c0.1,0.1,0.3,0.2,0.5,0.3c0.2,0.1,0.3,0.2,0.5,0.3c0.2,0.1,0.3,0.2,0.5,0.3l0.6,0.3c0.2,0,0.3,0.2,0.5,0.3
	c0.2,0.1,0.4,0.1,0.6,0.2c0.1,0.1,0.3,0.2,0.5,0.3c0.2,0,0.4,0.1,0.6,0.2c0.2,0,0.3,0.1,0.5,0.1c0.4,0.1,0.8,0.3,1.2,0.4
	c0.2,0.1,0.4,0.1,0.6,0.2c0.4,0.1,0.8,0.1,1.2,0.2c0.2,0,0.4,0.1,0.6,0.1h0.6c0.4,0.1,0.8,0.1,1.2,0.2H57c0.2,0.1,0.4,0.1,0.6,0.1
	h2.8c0.2,0,0.4,0,0.6-0.1h0.6c0.2-0.1,0.4-0.1,0.6-0.1c0.2-0.1,0.4-0.1,0.6-0.2c0.2,0,0.3-0.1,0.5-0.1c0.2-0.1,0.4-0.1,0.6-0.2
	c0.2,0,0.4-0.1,0.6-0.1c0.2-0.1,0.4-0.1,0.6-0.1c0.1-0.1,0.3-0.2,0.5-0.2c0.2-0.1,0.4-0.2,0.6-0.2c0.2-0.1,0.3-0.2,0.5-0.3
	c0.2-0.1,0.4-0.1,0.6-0.2c0.2,0,0.3-0.2,0.5-0.3c0.2-0.1,0.4-0.1,0.5-0.2c0.2-0.1,0.4-0.2,0.6-0.2l0.4-0.4c0.2-0.1,0.4-0.1,0.6-0.2
	c0.1-0.2,0.3-0.3,0.5-0.4c0.1-0.1,0.3-0.2,0.4-0.3c0.2-0.2,0.4-0.2,0.5-0.4c0.2-0.1,0.4-0.2,0.5-0.4c0.1-0.1,0.3-0.2,0.5-0.3
	c0.1-0.2,0.2-0.4,0.2-0.6c0.1-0.2,0-0.5-0.1-0.7c-0.1-0.2-0.2-0.3-0.3-0.5c-0.1-0.2-0.2-0.4-0.2-0.6c-0.1-0.2-0.2-0.3-0.3-0.5
	c0-0.2-0.1-0.4-0.2-0.6v-0.6c-0.1-0.2-0.2-0.4-0.2-0.6v-0.6c-0.1-0.2-0.1-0.4-0.1-0.6v-0.6c0-0.2-0.1-0.4-0.1-0.6V47
	c0-0.3,0.1-0.3,0.1-0.6c0-0.3-0.1-0.3-0.1-0.6v-0.6c0-0.3,0.1-0.3,0.1-0.6c0-0.3-0.1-0.3-0.1-0.6v-0.6c0-0.3,0.1-0.3,0.1-0.6
	c0-0.3-0.1-0.3-0.1-0.6v-3.5c0-0.3,0.1-0.3,0.1-0.6v-0.6c0-0.3-0.1-0.3-0.1-0.6s0.1-0.3,0.1-0.6c0-0.3-0.1-0.3-0.1-0.6
	s0.1-0.3,0.1-0.6c0-0.3-0.1-0.3-0.1-0.6c0-0.2,0.1-0.4,0.1-0.6s-0.1-0.4-0.1-0.7c0.1-0.2,0.1-0.4,0.1-0.6V32.3z M144.7,57
	c0,0-0.1,0-0.1,0c-0.1,0-0.1,0-0.2,0.1l-0.2,0.1c-0.1,0-0.1,0-0.1,0.1s-0.1,0-0.2,0.1c-0.1,0-0.1,0-0.2,0c-0.1,0-0.1,0-0.1,0.1
	c-0.1,0-0.1,0-0.2,0c-0.1,0-0.1,0-0.2,0c-0.1,0-0.1,0-0.2,0h-0.4c-0.1,0-0.1,0-0.2,0s-0.1,0-0.2,0s-0.1,0-0.2,0h-0.9
	c-0.1,0-0.1,0-0.2,0h-0.4c-0.1,0-0.1,0-0.2,0s-0.1,0-0.2,0s-0.1,0-0.2,0h-0.2c-0.1,0-0.1,0-0.2,0h-0.2c-0.1,0-0.1,0-0.2,0
	c-0.1,0-0.1,0-0.2,0c-0.1,0-0.1-0.1-0.1-0.2c0-0.1-0.1-0.1-0.1-0.2c0-0.1,0-0.1,0-0.2c0-0.1,0-0.1,0.1-0.2c0-0.1,0-0.1,0-0.2
	c0-0.1,0-0.1,0.1-0.1c0-0.1,0-0.1,0.1-0.2c0-0.1,0-0.1,0.1-0.2c0-0.1,0.1-0.1,0.1-0.1l0.1-0.2c0-0.1,0.1-0.1,0.1-0.1
	c0-0.1,0.1-0.1,0.1-0.1c0-0.1,0-0.1,0.1-0.2c0.1-0.1,0.1-0.2,0.2-0.3c0-0.1,0.1-0.1,0.1-0.1c0-0.1,0-0.1,0.1-0.2s0.1-0.1,0.1-0.1
	s0.1-0.1,0.1-0.1s0.1-0.1,0.1-0.2s0.1-0.1,0.1-0.1s0.1-0.1,0.1-0.1c0-0.1,0.1-0.1,0.1-0.1c0,0,0-0.1,0.1-0.1c0-0.1,0.1-0.1,0.1-0.1
	s0.1-0.1,0.1-0.1c0,0,0.1-0.1,0.1-0.1c0,0,0.1-0.1,0.1-0.1c0-0.1,0.1-0.1,0.1-0.1c0,0,0.1-0.1,0.1-0.1c0.1,0,0.1-0.1,0.1-0.1
	c0-0.1,0.1-0.1,0.1-0.1c0-0.1,0.1-0.1,0.1-0.1c0,0,0.1-0.1,0.1-0.1c0,0,0.1-0.1,0.1-0.1c0.1,0,0.1-0.1,0.1-0.1c0,0,0.1-0.1,0.1-0.1
	c0-0.1,0.1-0.1,0.1-0.1c0-0.1,0.1-0.1,0.1-0.1c0.1-0.1,0.1-0.1,0.1-0.1c0-0.1,0.1-0.1,0.1-0.1c0,0,0.1-0.1,0.1-0.2l0.1-0.1
	c0,0,0.1-0.1,0.1-0.1c0,0,0.1-0.1,0.1-0.2c0.1,0,0.1-0.1,0.1-0.1c0.1-0.1,0.1-0.1,0.1-0.2c0-0.1,0.1-0.1,0.1-0.1
	c0-0.1,0.1-0.1,0.1-0.1c0,0,0.1-0.1,0.1-0.1c0-0.1,0.1-0.1,0.1-0.1c0,0,0.1-0.1,0.1-0.1c0,0,0.1-0.1,0.1-0.1c0-0.1,0.1-0.1,0.1-0.1
	c0,0,0-0.1,0.1-0.1s0.1-0.1,0.1-0.1s0-0.1,0.1-0.1l0.1-0.2c0-0.1,0-0.1,0.1-0.1l0.1-0.2c0-0.1,0-0.1,0.1-0.1c0-0.1,0.1-0.1,0.1-0.2
	c0-0.1,0.1-0.1,0.1-0.1c0-0.1,0-0.1,0.1-0.2c0-0.1,0-0.1,0-0.2c0-0.1,0-0.1,0-0.2c0-0.1,0-0.1,0-0.2c0-0.1,0-0.1,0-0.2v-0.4
	c0-0.1,0-0.1,0-0.2c0-0.1,0-0.1,0-0.2c0-0.1,0-0.1,0-0.2v-0.4c0-0.1,0-0.1,0-0.2c0-0.1,0-0.1,0-0.2c0-0.1,0-0.1,0-0.1
	c0-0.1,0-0.1,0-0.2c0-0.1-0.1-0.1-0.1-0.2c0-0.1,0-0.1-0.1-0.2c0-0.1-0.1-0.1-0.1-0.1c0-0.1,0-0.1-0.1-0.2c0-0.1-0.1-0.1-0.1-0.1
	c0-0.1-0.1-0.1-0.1-0.2c0,0-0.1-0.1-0.1-0.1c0-0.1-0.1-0.1-0.1-0.2l-0.1-0.1c0-0.1-0.1-0.1-0.1-0.2c0,0-0.1-0.1-0.1-0.1
	c0-0.1-0.1-0.1-0.1-0.2c-0.1,0-0.1-0.1-0.1-0.1c0,0-0.1-0.1-0.2-0.1c0-0.1-0.1-0.1-0.1-0.1c0,0-0.1-0.1-0.1-0.1
	c-0.1,0-0.1-0.1-0.2-0.1c-0.1,0-0.1-0.1-0.2-0.1c0,0-0.1-0.1-0.1-0.1c-0.1,0-0.1,0-0.2,0c-0.1,0-0.1-0.1-0.2-0.1c-0.1,0-0.1,0-0.2,0
	c0,0-0.1-0.1-0.1-0.1c-0.1,0-0.1,0-0.2,0c-0.1,0-0.1,0-0.2,0s-0.1,0-0.2,0s-0.1,0-0.2,0h-0.2c-0.1,0-0.1,0-0.2,0h-0.9
	c-0.1,0-0.1,0-0.2,0c-0.1,0-0.1,0-0.2,0h-0.2c-0.1,0-0.1,0-0.2,0c-0.1,0-0.1,0-0.2,0c-0.1,0-0.1,0-0.2,0c0,0-0.1,0-0.1,0
	c-0.1,0-0.1,0-0.2,0h-0.2c-0.1,0-0.1,0-0.2,0.1h-0.2c0,0-0.1,0-0.1,0h-0.4c-0.1,0-0.1,0-0.2,0c-0.1,0-0.1-0.1-0.2-0.1
	c-0.1,0-0.1,0-0.1,0c-0.1,0-0.1,0-0.2,0c-0.1,0-0.1,0-0.1,0.1c0,0-0.1,0.1-0.1,0.1v0.2c0,0.1,0,0.1,0,0.2c0,0.1,0,0.1,0,0.2v0.2
	c0,0.1,0,0.1,0,0.2v0.2c0,0.1,0,0.1,0,0.2V44c0,0.1,0,0.1,0,0.2c0,0.1,0,0.1,0,0.2c0,0.1,0,0.1,0,0.2c0,0.1,0,0.1,0,0.2v0.2
	c0,0.1,0,0.1,0,0.2v0.1c0,0.1,0,0.1,0,0.2v0.2c0,0.1,0,0.1,0,0.2c0,0.1,0.1,0.1,0.1,0.1c0.1,0,0.1,0,0.2,0c0.1,0,0.1,0,0.2-0.1
	c0,0,0.1-0.1,0.1-0.1c0-0.1,0.1-0.1,0.1-0.1c0.1,0,0.1-0.1,0.1-0.1c0.1,0,0.1-0.1,0.2-0.1c0.1,0,0.1-0.1,0.1-0.1l0.2-0.1
	c0.1,0,0.1-0.1,0.1-0.1c0,0,0.1,0,0.1-0.1c0.1,0,0.1-0.1,0.2-0.1l0.2-0.1c0.1,0,0.1,0,0.2,0c0.1,0,0.1,0,0.2,0s0.1-0.1,0.1-0.1
	s0.1,0,0.2,0c0.1,0,0.1,0,0.2,0c0.1,0,0.1,0,0.2,0c0.1,0,0.2,0,0.4,0c0.1,0,0.1,0,0.2,0c0.1,0,0.1,0,0.2,0c0.1,0,0.1,0.1,0.2,0.1
	c0.1,0,0.1,0,0.1,0.1l0.2,0.1c0,0,0.1,0.1,0.1,0.1c0,0,0.1,0.1,0.1,0.1c0,0,0.1,0.1,0.1,0.1c0.1,0,0.1,0.1,0.1,0.1
	c0,0.1,0,0.1,0.1,0.1c0,0.1,0,0.1,0.1,0.2c0,0.1,0,0.1,0.1,0.2c0,0.1,0,0.1,0,0.2c0,0.1,0,0.1,0,0.2c0,0.1,0,0.1,0,0.2V47
	c0,0.1,0,0.1,0,0.2s0,0.1-0.1,0.1c0,0.1,0,0.1-0.1,0.2c0,0.1,0,0.1-0.1,0.2c0,0,0,0.1-0.1,0.1L141,48c0,0-0.1,0.1-0.1,0.1
	c0,0-0.1,0.1-0.1,0.1c0,0.1-0.1,0.1-0.1,0.1c0,0-0.1,0.1-0.1,0.1c0,0-0.1,0.1-0.1,0.1l-0.1,0.2l-0.1,0.1c0,0.1-0.1,0.1-0.1,0.1
	c0,0.1-0.1,0.1-0.1,0.1c0,0-0.1,0.1-0.1,0.1c0,0-0.1,0.1-0.1,0.1c0,0.1-0.1,0.1-0.1,0.1c-0.1,0-0.1,0.1-0.1,0.1l-0.1,0.1
	c0,0.1-0.1,0.1-0.1,0.1c0,0-0.1,0.1-0.1,0.1c0,0-0.1,0.1-0.1,0.1c-0.1,0-0.1,0.1-0.1,0.1c0,0.1-0.1,0.1-0.1,0.1
	c-0.1,0-0.1,0.1-0.1,0.1c0,0-0.1,0.1-0.1,0.1c0,0.1-0.1,0.1-0.1,0.1c0,0.1-0.1,0.1-0.1,0.1c0,0-0.1,0.1-0.1,0.1c0,0-0.1,0.1-0.1,0.1
	c0,0-0.1,0.1-0.1,0.1c0,0-0.1,0.1-0.1,0.1c0,0-0.1,0.1-0.1,0.1c0,0-0.1,0.1-0.1,0.1c0,0.1-0.1,0.1-0.1,0.1c0,0.1-0.1,0.1-0.1,0.2
	c0,0.1-0.1,0.1-0.1,0.1c0,0.1-0.1,0.1-0.1,0.1c0,0.1-0.1,0.1-0.1,0.1s-0.1,0.1-0.1,0.1c0,0.1-0.1,0.1-0.1,0.1l-0.1,0.2
	c0,0,0,0.1-0.1,0.1s-0.1,0.1-0.1,0.1c0,0.1,0,0.1-0.1,0.2c0,0-0.1,0.1-0.1,0.1c0,0.1-0.1,0.1-0.1,0.2s0,0.1-0.1,0.2
	c0,0,0,0.1-0.1,0.1c0,0.1-0.1,0.1-0.1,0.1c0,0.1-0.1,0.1-0.1,0.2c0,0.1-0.1,0.1-0.1,0.1c0,0.1,0,0.1-0.1,0.2c0,0.1-0.1,0.1-0.1,0.1
	c0,0.1,0,0.1-0.1,0.2c0,0.1,0,0.1,0,0.2c0,0.1-0.1,0.1-0.1,0.1c0,0.1,0,0.1-0.1,0.2c0,0.1,0,0.1,0,0.2c0,0.1,0,0.1-0.1,0.2
	c0,0.1,0,0.1,0,0.1c0,0.1-0.1,0.1-0.1,0.2v0.2c0,0.1-0.1,0.1-0.1,0.2c0,0.1,0,0.1-0.1,0.2v0.2c0,0.1,0,0.1-0.1,0.2
	c0,0.1,0,0.1,0,0.2c0,0.1,0,0.1,0,0.2c0,0,0,0.1,0,0.1c0,0.1,0,0.1,0,0.2s0,0.1,0,0.2c0,0.1,0,0.1,0,0.2V59c0,0.1,0,0.1,0,0.2v0.5
	c0,0.1,0,0.1,0,0.2s0,0.1,0,0.2c0,0.1,0,0.1,0,0.2h3c0.1,0,0.1,0,0.2,0s0.1,0,0.2,0h3c0.1,0,0.1,0,0.2,0c0,0,0.1,0,0.1,0h0.7
	c0.1,0,0.1,0,0.2,0c0.1,0,0.1,0,0.2,0h0.2c0.1,0,0.1,0,0.2,0.1c0.1,0,0.1,0,0.2,0s0.1,0,0.1-0.1c0.1,0,0.1-0.1,0.2-0.1
	c0-0.1,0.1-0.1,0.1-0.2c0-0.1,0-0.1,0-0.2c0-0.1,0.1-0.1,0.1-0.2c0-0.1,0-0.1,0-0.2c0-0.1,0-0.1,0-0.2c0-0.1,0-0.1,0-0.2
	c0-0.1,0.1-0.1,0.1-0.1c0-0.1,0-0.1,0.1-0.2c0-0.1,0-0.1,0-0.2c0-0.1,0-0.1,0-0.2c0-0.1,0-0.1,0.1-0.2v-0.2c0-0.1,0-0.1,0.1-0.2
	c0-0.1,0-0.1,0-0.2c0-0.1,0-0.1,0-0.2c0-0.1,0.1-0.1,0.1-0.2c0-0.1,0-0.1,0-0.2c0,0,0-0.1,0-0.1C144.7,57.1,144.7,57,144.7,57z
	 M191.1,51.2c0,0.1,0,0.1,0,0.2c0,0.1,0,0.1,0,0.2v0.7c0,0.1,0,0.1,0,0.2v0.4c0,0.1,0,0.1,0,0.2v0.4c0,0.1,0,0.1,0,0.2s0,0.1,0,0.2
	v0.2c0,0.1,0,0.1-0.1,0.2v0.4c0,0.1-0.1,0.1-0.1,0.1c0,0.1,0,0.1,0,0.2c0,0.1,0,0.1,0,0.2c0,0.1,0,0.1,0,0.2c0,0.1,0,0.1-0.1,0.2
	c0,0.1,0,0.1,0,0.2c0,0.1,0,0.1,0,0.2c0,0.1,0,0.1-0.1,0.1c0,0.1,0,0.1,0,0.2c0,0.1,0,0.1,0,0.2c0,0.1,0,0.1-0.1,0.2
	c0,0.1-0.1,0.1-0.1,0.2c0,0.1,0,0.1,0,0.2l-0.1,0.2c0,0.1,0,0.1-0.1,0.1c0,0.1,0,0.1-0.1,0.2c0,0.1-0.1,0.1-0.1,0.1s0,0.1-0.1,0.2
	c0,0,0,0.1-0.1,0.1l-0.1,0.2c0,0.1-0.1,0.1-0.1,0.1c0,0.1-0.1,0.1-0.1,0.2s-0.1,0.1-0.1,0.1s0,0.1-0.1,0.1c-0.1,0.1-0.1,0.2-0.2,0.3
	c0,0.1-0.1,0.1-0.1,0.1c0,0-0.1,0.1-0.1,0.1c-0.1,0-0.1,0.1-0.1,0.1c0,0.1-0.1,0.1-0.1,0.1c0,0-0.1,0.1-0.1,0.1c0,0-0.1,0.1-0.1,0.1
	c-0.1,0-0.1,0.1-0.1,0.1c0,0-0.1,0.1-0.1,0.1l-0.1,0.1c-0.1,0-0.1,0-0.2,0.1c-0.1,0-0.1,0-0.1,0.1c-0.1,0-0.1,0.1-0.2,0.1
	c-0.1,0-0.1,0.1-0.2,0.1c-0.1,0-0.1,0.1-0.1,0.1s-0.1,0-0.2,0.1c-0.1,0-0.1,0-0.2,0.1c-0.1,0-0.1,0-0.1,0c-0.1,0-0.1,0-0.2,0
	c-0.1,0-0.1,0.1-0.2,0.1c-0.1,0-0.1,0-0.2,0s-0.1,0-0.2,0s-0.1,0-0.2,0c-0.1,0-0.1,0-0.2,0c-0.1,0-0.1,0-0.2,0s-0.1,0-0.2,0h-0.2
	c-0.1,0-0.1,0-0.2,0c-0.1,0-0.1,0-0.2,0h-0.2c-0.1,0-0.1,0-0.1-0.1h-0.2c-0.1,0-0.1,0-0.2-0.1c-0.1,0-0.1,0-0.2-0.1
	c-0.1,0-0.1,0-0.2-0.1c-0.1,0-0.1-0.1-0.2-0.1c-0.1,0-0.1-0.1-0.1-0.1c-0.1,0-0.1,0-0.2-0.1s-0.1-0.1-0.1-0.1s-0.1-0.1-0.1-0.1
	c-0.1,0-0.1-0.1-0.1-0.1c-0.1,0-0.1-0.1-0.1-0.1c0-0.1-0.1-0.1-0.1-0.1c0,0-0.1-0.1-0.1-0.1c0-0.1-0.1-0.1-0.1-0.1
	c-0.1-0.1-0.1-0.1-0.1-0.1c0-0.1-0.1-0.1-0.1-0.2c0,0-0.1-0.1-0.1-0.1c-0.1,0-0.1-0.1-0.1-0.1c0-0.1-0.1-0.1-0.1-0.1
	c0,0-0.1-0.1-0.1-0.1c0,0-0.1-0.1-0.1-0.1c0-0.1-0.1-0.1-0.1-0.1s0-0.1-0.1-0.2c0-0.1-0.1-0.1-0.1-0.1c0-0.1,0-0.1-0.1-0.2
	c0,0-0.1-0.1-0.1-0.2c0-0.1,0-0.1-0.1-0.2c0,0-0.1-0.1-0.1-0.1c0-0.1-0.1-0.1-0.1-0.2c0-0.1-0.1-0.1-0.1-0.1s0-0.1-0.1-0.2
	c0-0.1,0-0.1-0.1-0.2c0,0,0-0.1,0-0.1c0-0.1,0-0.1-0.1-0.2c0-0.1-0.1-0.1-0.1-0.2c0-0.1,0-0.1-0.1-0.1c0-0.1,0-0.1,0-0.2
	c0-0.1,0-0.1,0-0.2c0-0.1,0-0.1-0.1-0.2v-0.2c0-0.1-0.1-0.1-0.1-0.2c0-0.1,0-0.1,0-0.2c0-0.1,0-0.1,0-0.2c0-0.1,0-0.1,0-0.2
	c0-0.1,0-0.1,0-0.1V54c0-0.1,0-0.1,0-0.2c0-0.1,0-0.1,0-0.2v-0.2c0-0.1,0-0.1,0-0.2s0-0.1,0-0.2v-0.4c0-0.1,0-0.1,0-0.2v-0.2
	c0-0.1,0-0.1,0-0.2c0-0.1,0-0.1,0-0.2v-0.2c0-0.1,0-0.1,0-0.2v-0.5l0,0v-0.5c0-0.1,0-0.1,0-0.2v-0.2c0-0.1,0-0.1,0-0.2v-0.4
	c0-0.1,0-0.1,0-0.2v-0.2c0-0.1,0-0.1,0-0.2v-0.4c0-0.1,0-0.1,0-0.2c0-0.1,0-0.1,0-0.1c0-0.1,0-0.1,0-0.2s0-0.1,0-0.2
	c0-0.1,0-0.1,0-0.2c0-0.1,0-0.1,0-0.2c0-0.1,0-0.1,0.1-0.2v-0.2c0-0.1,0.1-0.1,0.1-0.2c0-0.1,0-0.1,0-0.2c0-0.1,0-0.1,0-0.1
	c0-0.1,0.1-0.1,0.1-0.2c0-0.1,0-0.1,0.1-0.2c0-0.1,0-0.1,0.1-0.2c0,0,0-0.1,0-0.1c0-0.1,0-0.1,0.1-0.2c0-0.1,0.1-0.1,0.1-0.2
	c0,0,0-0.1,0.1-0.1l0.1-0.2c0-0.1,0-0.1,0.1-0.1c0-0.1,0.1-0.1,0.1-0.2c0-0.1,0.1-0.1,0.1-0.1l0.1-0.2c0-0.1,0-0.1,0.1-0.1
	c0-0.1,0.1-0.1,0.1-0.1s0-0.1,0.1-0.1c0-0.1,0.1-0.1,0.1-0.2s0.1-0.1,0.1-0.1s0.1-0.1,0.1-0.1c0,0,0.1-0.1,0.1-0.1
	c0-0.1,0.1-0.1,0.1-0.1c0.1-0.1,0.2-0.2,0.3-0.3l0.1-0.1c0.1,0,0.1-0.1,0.1-0.1c0,0,0.1-0.1,0.1-0.1c0,0,0.1-0.1,0.1-0.1
	c0,0,0.1-0.1,0.1-0.1c0.1,0,0.1-0.1,0.1-0.1s0.1-0.1,0.1-0.1c0.1,0,0.1,0,0.2-0.1c0,0,0.1-0.1,0.1-0.1c0.1,0,0.1,0,0.2-0.1
	c0.1,0,0.1,0,0.2-0.1c0.1,0,0.1-0.1,0.2-0.1c0.1,0,0.1,0,0.2,0c0.1,0,0.1,0,0.2,0c0,0,0.1,0,0.1,0c0.1,0,0.1,0,0.2-0.1h0.2
	c0.1,0,0.1,0,0.2,0c0.1,0,0.1,0,0.2,0h0.2c0.1,0,0.1,0,0.2,0h0.4c0.1,0,0.1,0,0.2,0c0.1,0,0.1,0,0.2,0c0.1,0,0.1,0,0.2,0
	c0.1,0,0.1,0,0.2,0.1c0.1,0,0.1,0,0.1,0c0.1,0,0.1,0,0.2,0.1c0.1,0,0.1,0,0.2,0.1c0.1,0,0.1,0.1,0.1,0.1l0.2,0.1
	c0.1,0,0.1,0.1,0.2,0.1c0.1,0,0.1,0,0.1,0.1c0.1,0,0.1,0.1,0.1,0.1l0.2,0.1l0.1,0.1c0.1,0,0.1,0.1,0.1,0.1c0,0,0.1,0.1,0.1,0.1
	c0,0,0.1,0.1,0.1,0.1c0.1,0,0.1,0.1,0.2,0.1c0,0,0.1,0.1,0.1,0.1c0,0.1,0.1,0.1,0.1,0.1c0,0,0.1,0.1,0.1,0.1c0,0.1,0.1,0.1,0.1,0.1
	s0.1,0.1,0.1,0.1c0,0.1,0,0.1,0.1,0.2c0,0.1,0.1,0.1,0.1,0.1c0,0.1,0.1,0.1,0.1,0.1c0,0.1,0.1,0.1,0.1,0.2c0,0,0.1,0.1,0.1,0.1
	c0,0.1,0.1,0.1,0.1,0.1s0,0.1,0.1,0.2c0,0.1,0.1,0.1,0.1,0.1s0,0.1,0.1,0.2c0,0.1,0,0.1,0.1,0.1c0,0.1,0,0.1,0.1,0.2
	c0,0.1,0.1,0.1,0.1,0.2c0,0.1,0.1,0.1,0.1,0.1c0,0.1,0.1,0.1,0.1,0.2c0,0.1,0,0.1,0,0.2c0,0.1,0.1,0.1,0.1,0.2c0,0,0,0.1,0,0.1
	c0,0.1,0,0.1,0,0.2c0,0.1,0,0.1,0,0.2c0,0.1,0.1,0.1,0.1,0.2c0,0.1,0,0.1,0,0.2c0,0.1,0,0.1,0,0.2c0,0.1,0,0.1,0,0.2
	c0,0.1,0,0.1,0.1,0.2v0.2c0,0.1,0,0.1,0,0.1v0.2c0,0.1,0,0.1,0,0.2c0,0.1,0,0.1,0,0.2v0.2c0,0.1,0,0.1,0,0.2v0.4c0,0.1,0,0.1,0,0.2
	c0,0.1,0,0.1,0,0.2v0.2c0,0.1,0,0.1,0,0.2c0,0.1,0,0.1,0,0.2V51.2z M187.7,51.4c0-0.1,0-0.1,0-0.2v-1.1c0-0.1,0-0.1,0-0.2v-0.5
	c0-0.1,0-0.1,0-0.2V49c0-0.1,0-0.1,0-0.2v-0.2c0-0.1,0-0.1,0-0.2c0-0.1,0-0.1,0-0.2c0-0.1,0-0.1,0-0.2V48c0-0.1,0-0.1,0-0.2
	c0-0.1,0-0.1,0-0.2c0-0.1,0-0.1,0-0.2c0-0.1,0-0.1,0-0.2c0-0.1,0-0.1-0.1-0.2c0-0.1,0-0.1,0-0.2c0-0.1,0-0.1-0.1-0.2
	c0-0.1,0-0.1,0-0.2l-0.1-0.2c0-0.1,0-0.1,0-0.2c0,0-0.1-0.1-0.1-0.1c0-0.1-0.1-0.1-0.1-0.1c0,0,0-0.1-0.1-0.1c0-0.1-0.1-0.1-0.1-0.1
	c-0.1,0-0.1-0.1-0.1-0.1c-0.1,0-0.1-0.1-0.1-0.1c0,0-0.1-0.1-0.1-0.1c0,0-0.1,0-0.1-0.1c-0.1,0-0.1,0-0.2-0.1c-0.1,0-0.1,0-0.2,0
	h-0.2c-0.1,0-0.1,0-0.2,0h0c-0.1,0-0.1,0-0.2,0c-0.1,0-0.1,0-0.2,0l-0.2,0.1c-0.1,0-0.1,0.1-0.1,0.1c-0.1,0-0.1,0.1-0.1,0.1
	c0,0-0.1,0.1-0.1,0.1c0,0.1-0.1,0.1-0.1,0.1c0,0,0,0.1-0.1,0.1s-0.1,0.1-0.1,0.1c0,0.1,0,0.1-0.1,0.2c0,0.1,0,0.1-0.1,0.1
	c0,0.1-0.1,0.1-0.1,0.2c0,0.1,0,0.1-0.1,0.2c0,0.1,0,0.1,0,0.2c0,0.1-0.1,0.1-0.1,0.2c0,0.1,0,0.1,0,0.2c0,0.1,0,0.1-0.1,0.2
	c0,0.1,0,0.1,0,0.2c0,0.1,0,0.1,0,0.2c0,0.1,0,0.1,0,0.1v0.2c0,0.1,0,0.1-0.1,0.2c0,0.1,0,0.1,0,0.2v0.2c0,0.1,0,0.1,0,0.2
	c0,0.1,0,0.1,0,0.2v0.5c0,0.1,0,0.1,0,0.2v0.4c0,0.1,0,0.1,0,0.2c0,0.1,0,0.1,0,0.2v1.6c0,0.1,0,0.1,0,0.2c0,0.1,0,0.1,0,0.2
	c0,0.1,0,0.1,0,0.2v0.5c0,0.1,0,0.1,0,0.2v0.2c0,0.1,0,0.1,0,0.2V54c0,0.1,0,0.1,0,0.2v0.2c0,0.1,0,0.1,0,0.2c0,0.1,0,0.1,0.1,0.2
	c0,0.1,0,0.1,0,0.2c0,0.1,0,0.1,0,0.1c0,0.1,0,0.1,0,0.2c0,0.1,0,0.1,0,0.2c0,0.1,0,0.1,0.1,0.2c0,0.1,0,0.1,0,0.2
	c0,0,0,0.1,0.1,0.1c0,0.1,0,0.1,0.1,0.2c0,0.1,0,0.1,0,0.2c0,0.1,0.1,0.1,0.1,0.2l0.1,0.2c0,0.1,0.1,0.1,0.1,0.1s0.1,0.1,0.1,0.2
	s0.1,0.1,0.1,0.1c0.1,0,0.1,0.1,0.1,0.1c0,0.1,0.1,0.1,0.1,0.1c0.1,0,0.1,0.1,0.1,0.1c0.1,0,0.1,0.1,0.2,0.1c0.1,0,0.1,0.1,0.2,0.1
	c0.1,0,0.1,0,0.2,0h0.4c0.1,0,0.1,0,0.2,0c0.1,0,0.1-0.1,0.2-0.1c0,0,0.1-0.1,0.1-0.1c0.1,0,0.1,0,0.1-0.1c0.1,0,0.1-0.1,0.1-0.1
	c0,0,0.1-0.1,0.1-0.1c0,0,0.1-0.1,0.1-0.1c0,0,0-0.1,0.1-0.2c0-0.1,0.1-0.1,0.1-0.1c0-0.1,0.1-0.1,0.1-0.1c0-0.1,0-0.1,0.1-0.2
	c0-0.1,0-0.1,0-0.2c0-0.1,0.1-0.1,0.1-0.1c0-0.1,0-0.1,0-0.2c0-0.1,0-0.1,0-0.2c0-0.1,0.1-0.1,0.1-0.2c0-0.1,0-0.1,0.1-0.2v-0.2
	c0-0.1,0-0.1,0.1-0.1v-0.2c0-0.1,0-0.1,0-0.2c0-0.1,0-0.1,0-0.2c0-0.1,0-0.1,0-0.2c0-0.1,0-0.1,0-0.2v-0.4c0-0.1,0-0.1,0-0.2v-0.2
	c0-0.1,0-0.1,0-0.2c0-0.1,0-0.1,0-0.2v-1.4C187.7,51.5,187.7,51.4,187.7,51.4z M231.9,59.8c0,0-0.1-0.1-0.1-0.1
	c0-0.1-0.1-0.1-0.1-0.1c0-0.1,0-0.1,0-0.2c0-0.1,0-0.1-0.1-0.2c0-0.1,0-0.1,0-0.2c0-0.1-0.1-0.1-0.1-0.2v-0.2c0-0.1,0-0.1,0-0.2V58
	c0-0.1,0-0.1,0-0.2s0-0.1,0-0.2v-1.2c0-0.1,0-0.1,0-0.2v-0.2c0-0.1,0-0.1,0-0.2c0-0.1,0-0.1,0-0.2v-0.9c0-0.1,0-0.1,0-0.2v-0.2
	c0-0.1,0-0.1,0-0.2c0-0.1,0-0.1,0-0.2c0-0.1,0-0.1,0-0.2s0-0.1,0-0.2v-0.2c0-0.1,0-0.1,0-0.1s0-0.1,0-0.2c0-0.1,0-0.1,0-0.2
	c0-0.1,0-0.1,0-0.2s0-0.1,0-0.2v-0.2c0-0.1,0-0.1,0-0.2c0-0.1,0-0.1,0-0.2v-0.4c0-0.1,0-0.1,0-0.2c0-0.1,0-0.1,0-0.2
	c0-0.1,0-0.1,0-0.2v-0.2c0-0.1,0-0.1,0-0.2v-0.4c0-0.1,0-0.1,0-0.2v-0.9c0-0.1,0-0.1,0-0.2v-0.2c0-0.1,0-0.1,0-0.2v-0.5
	c0-0.1,0-0.1,0-0.2c0-0.1,0-0.1,0-0.2v-0.4c0-0.1,0-0.1,0-0.2v-0.2c0-0.1,0-0.1,0-0.2v-0.7c0-0.1,0-0.1,0-0.2s0-0.1,0-0.2v-0.4
	c0-0.1,0-0.1,0-0.2c0-0.1,0-0.1,0-0.2v-0.7c0-0.1,0-0.1,0-0.2c0-0.1,0-0.1,0-0.2v-0.4c0-0.1,0-0.1,0-0.2c0-0.1,0-0.1,0-0.2v-0.4
	c0-0.1,0-0.1,0-0.2c0-0.1,0-0.1,0-0.2c0-0.1,0-0.1,0-0.2c0-0.1-0.1-0.1-0.1-0.1c0,0-0.1-0.1-0.1-0.1c0,0-0.1,0-0.1,0h-1.5
	c-0.1,0-0.1,0-0.2,0c-0.1,0-0.1,0.1-0.1,0.1c0,0-0.1,0.1-0.1,0.1c-0.1,0-0.1,0.1-0.1,0.1l-0.1,0.1c-0.1,0-0.1,0.1-0.1,0.1
	c0,0-0.1,0.1-0.1,0.1l-0.1,0.1c-0.1,0-0.1,0.1-0.1,0.1c-0.1,0-0.1,0.1-0.2,0.1s-0.1,0.1-0.1,0.1l-0.2,0.1c0,0-0.1,0.1-0.1,0.1
	c0,0-0.1,0-0.1,0.1c-0.1,0-0.1,0-0.1,0.1c-0.1,0-0.1,0.1-0.2,0.1c-0.1,0-0.1,0-0.2,0.1c-0.1,0-0.1,0-0.1,0.1c-0.1,0-0.1,0-0.2,0
	c-0.1,0-0.1,0-0.2,0c-0.1,0-0.1,0-0.1,0c0,0-0.1,0.1-0.1,0.1c-0.1,0.1-0.1,0.1-0.1,0.1c0,0.1,0,0.1,0,0.2c0,0.1,0,0.1,0,0.1
	c0,0.1,0,0.1,0,0.2v0.7c0,0.1,0,0.1,0,0.2c0.1,0.1,0.1,0.1,0.2,0.1l0.2,0.1c0.1,0,0.2,0,0.2,0c0.1,0,0.1-0.1,0.1-0.1h0.2
	c0,0,0.1,0,0.1-0.1c0.1,0,0.1,0,0.1-0.1c0.1,0,0.1,0,0.1-0.1c0.1,0,0.1,0,0.2,0c0.1,0,0.1,0,0.2,0c0,0,0.1,0,0.1,0.1
	c0.1,0,0.1,0.1,0.1,0.1c0,0,0,0.1,0,0.1c0,0.1,0,0.1,0,0.2v0.2c0,0.1,0,0.1,0,0.2v0.2c0,0.1,0,0.1,0,0.2V47c0,0.1,0,0.1,0,0.2
	s0,0.1,0,0.2c0,0.1,0,0.1,0,0.2c0,0.1,0,0.1,0,0.2l0,0.2c0,0.1,0,0.1,0,0.2v0.5c0,0.1,0,0.1,0,0.2v0.2c0,0.1,0,0.1,0,0.2v0.2
	c0,0.1,0,0.1,0,0.2v0.2c0,0.1,0,0.1,0,0.2V50c0,0.1,0,0.1,0,0.2c0,0.1,0,0.1,0,0.2v0.2c0,0.1,0,0.1,0,0.2c0,0.1,0,0.1,0,0.2
	s0,0.1,0,0.2s0,0.1,0,0.2v1.6c0,0.1,0,0.1,0,0.2c0,0.1,0,0.1,0,0.2c0,0.1,0,0.1,0,0.2v0.2c0,0.1,0,0.1,0,0.2V54c0,0.1,0,0.1,0,0.2
	c0,0.1,0,0.1,0,0.2s0,0.1,0,0.2c0,0.1,0,0.1,0,0.2v1.6c0,0.1,0,0.1,0,0.2s0,0.1,0,0.2v0.2c0,0.1,0,0.1,0,0.2v0.2c0,0.1,0,0.1,0,0.2
	v0.4c0,0.1,0,0.1,0,0.2v0.3c0,0.1,0,0.1,0,0.2c0,0.1,0,0.1,0,0.2c0,0.1,0,0.2,0,0.2c0,0.1,0,0.1,0,0.2s0,0.1,0,0.2
	c0,0.1-0.1,0.1-0.1,0.2c0,0.1,0,0.1-0.1,0.2c0,0.1-0.1,0.1-0.1,0.1c0,0.1-0.1,0.1-0.1,0.1c0,0.1-0.1,0.1-0.1,0.2c0,0.1,0,0.1,0,0.1
	c0,0.1,0.1,0.1,0.1,0.1c0,0,0.1,0,0.1,0h2.1c0.1,0,0.1,0,0.2,0s0.1,0,0.2,0h1.2c0.1,0,0.1,0,0.1-0.1l0.1-0.1c0-0.1,0.1-0.1,0-0.1
	C231.9,59.9,232,59.9,231.9,59.8z M277.6,50.4c0,0.1,0,0.1,0,0.2v0.7h0l0,0.2v0.2c0,0.1,0,0.1,0,0.2c0,0.1,0,0.1,0,0.2v0.2
	c0,0.1,0,0.1,0,0.2v0.2c0,0.1,0,0.1,0,0.2v0.2c0,0.1,0,0.1,0,0.2v0.2c0,0.1,0,0.1,0,0.2v0.2c0,0.1,0,0.1,0,0.1c0,0.1,0,0.1,0,0.2
	v0.2c0,0.1,0,0.1,0,0.2v0.2c0,0.1-0.1,0.1-0.1,0.1v0.2c0,0.1,0,0.1-0.1,0.2c0,0.1,0,0.1,0,0.2c0,0.1,0,0.1,0,0.2
	c0,0.1,0,0.1-0.1,0.2c0,0.1,0,0.1,0,0.2c0,0.1,0,0.1-0.1,0.2c0,0.1,0,0.1,0,0.2c0,0.1,0,0.1-0.1,0.1c0,0.1,0,0.1,0,0.2
	c0,0.1-0.1,0.1-0.1,0.2c0,0.1,0,0.1-0.1,0.2c0,0.1-0.1,0.1-0.1,0.1c0,0.1,0,0.1-0.1,0.2l-0.1,0.2c0,0,0,0.1-0.1,0.1l-0.1,0.2
	c0,0-0.1,0.1-0.1,0.1c0,0.1,0,0.1-0.1,0.1c0,0.1-0.1,0.1-0.1,0.2c0,0.1-0.1,0.1-0.1,0.1l-0.1,0.2c0,0-0.1,0.1-0.1,0.1
	c0,0-0.1,0.1-0.1,0.1c0,0.1-0.1,0.1-0.1,0.1l-0.1,0.1c0,0-0.1,0.1-0.1,0.1c0,0-0.1,0.1-0.1,0.1c0,0.1-0.1,0.1-0.1,0.1
	c0,0-0.1,0.1-0.1,0.1c-0.1,0.1-0.1,0.1-0.2,0.1c0,0-0.1,0.1-0.1,0.1l-0.2,0.1c0,0-0.1,0.1-0.2,0.1c-0.1,0-0.1,0.1-0.1,0.1
	c-0.1,0-0.1,0-0.2,0.1c-0.1,0-0.1,0.1-0.1,0.1c-0.1,0-0.1,0.1-0.2,0.1c-0.1,0-0.1,0.1-0.2,0.1c0,0-0.1,0-0.1,0.1c-0.1,0-0.1,0-0.2,0
	c-0.1,0-0.1,0-0.2,0.1h-0.2c-0.1,0-0.1,0.1-0.2,0.1c-0.1,0-0.1,0-0.2,0h-0.2c-0.1,0-0.1,0-0.2,0H272c-0.1,0-0.1,0-0.2,0h-0.2
	c-0.1,0-0.1,0-0.2,0h-0.2c-0.1,0-0.1,0-0.2,0c-0.1,0-0.1,0-0.2,0h-0.2c-0.1,0-0.1,0-0.2-0.1h-0.2c-0.1,0-0.1-0.1-0.2-0.1
	c-0.1,0-0.1,0-0.2-0.1c-0.1,0-0.1,0-0.2,0h-0.2c-0.1,0-0.1,0-0.2,0c-0.1,0-0.1,0-0.1,0.1c-0.1,0-0.1,0.1-0.1,0.1H269
	c0,0-0.1-0.1-0.1-0.1v-0.1c0-0.1,0-0.1,0-0.2v-0.2c0-0.1,0-0.1,0-0.2v-0.2c0-0.1,0-0.1,0-0.2c0-0.1,0-0.1,0-0.2c0-0.1,0-0.1,0-0.2
	v-0.5c0-0.1,0-0.1,0-0.2c0-0.1,0-0.1,0-0.2c0-0.1,0-0.1,0-0.2v-0.2c0-0.1,0-0.1,0-0.2v-0.3c0-0.1,0-0.1,0-0.2c0-0.1,0-0.1,0-0.2
	c0-0.1,0-0.1,0-0.2l0.1-0.1c0.1,0,0.1,0,0.2,0c0.1,0,0.1,0,0.2,0.1c0,0.1,0.1,0.1,0.1,0.2c0,0,0.1,0.1,0.1,0.1c0,0,0.1,0.1,0.1,0.1
	l0.1,0.1l0.2,0.1c0,0,0.1,0.1,0.1,0.1c0.1,0,0.1,0,0.2,0.1c0,0,0.1,0.1,0.1,0.1c0.1,0,0.1,0.1,0.1,0.1c0.1,0,0.1,0,0.2,0
	c0.1,0,0.1,0,0.2,0.1c0.1,0,0.1,0,0.1,0.1h0.2c0.1,0,0.1,0,0.2,0h0.4c0.1,0,0.1,0,0.2,0h0.2c0.1,0,0.1-0.1,0.2-0.1
	c0,0,0.1,0,0.1-0.1c0.1,0,0.1-0.1,0.2-0.1c0,0,0.1-0.1,0.1-0.1c0.1,0,0.1-0.1,0.1-0.1c0,0,0.1-0.1,0.1-0.1c0.1,0,0.1-0.1,0.1-0.1
	c0,0,0.1-0.1,0.1-0.1c0,0,0.1-0.1,0.1-0.1c0-0.1,0.1-0.1,0.1-0.1c0,0,0-0.1,0.1-0.1s0.1-0.1,0.1-0.1l0.1-0.2c0,0,0.1-0.1,0.1-0.1
	c0-0.1,0.1-0.1,0.1-0.2c0,0,0.1-0.1,0.1-0.1c0-0.1,0-0.1,0.1-0.2c0-0.1,0-0.1,0.1-0.2c0-0.1,0-0.1,0-0.2c0-0.1,0-0.1,0-0.2
	c0,0,0-0.1,0-0.1c0-0.1,0-0.1,0-0.2c0-0.1,0-0.1,0-0.2V54c0-0.1,0-0.1,0-0.2c0-0.1,0-0.1-0.1-0.1c0,0-0.1-0.1-0.1,0
	c-0.1,0-0.1,0.1-0.2,0.1c-0.1,0-0.1,0-0.1,0l-0.2,0.1c-0.1,0-0.1,0.1-0.2,0.1c0,0-0.1,0.1-0.1,0.1c-0.1,0-0.1,0.1-0.2,0.1
	c-0.1,0-0.1,0-0.2,0.1c-0.1,0-0.1,0-0.2,0c-0.1,0-0.1,0-0.2,0c-0.1,0-0.1,0-0.2,0s-0.1,0-0.2,0h-0.2c-0.1,0-0.1,0-0.2,0h-0.7
	c-0.1,0-0.1,0-0.2,0c-0.1,0-0.1,0-0.2,0s-0.1,0-0.2,0c-0.1,0-0.1,0-0.1,0c-0.1,0-0.1-0.1-0.2-0.1c-0.1,0-0.1,0-0.2-0.1
	c-0.1,0-0.1,0-0.2-0.1c0,0-0.1-0.1-0.1-0.1c-0.1,0-0.1-0.1-0.1-0.1c-0.1,0-0.1-0.1-0.1-0.1c-0.1,0-0.1-0.1-0.1-0.1
	c-0.1,0-0.1-0.1-0.1-0.1c-0.1,0-0.1-0.1-0.1-0.1c0-0.1-0.1-0.1-0.1-0.1c0,0-0.1-0.1-0.1-0.1c0,0-0.1-0.1-0.1-0.1
	c0-0.1-0.1-0.1-0.1-0.1c0,0-0.1-0.1-0.1-0.1c0,0-0.1-0.1-0.1-0.1c0-0.1-0.1-0.1-0.1-0.1c0,0,0-0.1-0.1-0.1c0-0.1-0.1-0.1-0.1-0.1
	c0-0.1,0-0.1-0.1-0.2c0-0.1-0.1-0.1-0.1-0.1c0-0.1,0-0.1-0.1-0.2c0-0.1-0.1-0.1-0.1-0.1c0-0.1,0-0.1,0-0.2c0-0.1,0-0.1,0-0.2
	l-0.1-0.2v-0.2c0-0.1-0.1-0.1-0.1-0.2c0,0,0-0.1,0-0.1c0-0.1,0-0.1,0-0.2c0-0.1,0-0.1,0-0.2c0-0.1,0-0.1,0-0.2v-0.2
	c0-0.1,0-0.1,0-0.2c0-0.1,0-0.1,0-0.2v-1.2c0-0.1,0-0.1,0-0.2v-0.2c0-0.1,0-0.1,0-0.2c0-0.1,0-0.1,0-0.2v-0.2c0-0.1,0-0.1,0-0.2
	c0-0.1,0-0.1,0-0.2c0-0.1,0-0.1,0.1-0.2c0-0.1,0-0.1,0-0.2c0-0.1,0-0.1,0-0.2c0-0.1,0-0.1,0.1-0.2c0-0.1,0-0.1,0-0.2
	c0-0.1,0-0.1,0.1-0.1c0-0.1,0-0.1,0.1-0.2c0-0.1,0-0.1,0.1-0.2c0,0,0-0.1,0.1-0.2c0-0.1,0-0.1,0.1-0.2c0-0.1,0.1-0.1,0.1-0.1
	c0-0.1,0-0.1,0.1-0.2c0-0.1,0.1-0.1,0.1-0.1c0-0.1,0.1-0.1,0.1-0.1c0-0.1,0-0.1,0.1-0.2l0.1-0.2l0.1-0.1c0-0.1,0.1-0.1,0.1-0.1
	c0,0,0.1-0.1,0.1-0.1c0,0,0.1-0.1,0.1-0.1c0-0.1,0.1-0.1,0.1-0.1c0.1,0,0.1-0.1,0.2-0.1c0,0,0.1-0.1,0.1-0.1c0,0,0.1-0.1,0.1-0.1
	c0,0,0.1-0.1,0.1-0.1c0,0,0.1-0.1,0.2-0.1c0,0,0.1-0.1,0.1-0.1c0,0,0.1-0.1,0.1-0.1c0.1,0,0.1-0.1,0.2-0.1c0.1,0,0.1,0,0.2-0.1
	c0.1,0,0.1-0.1,0.1-0.1l0.2-0.1c0.1,0,0.1,0,0.2-0.1c0,0,0.1,0,0.1,0c0.1,0,0.1,0,0.2-0.1c0.1,0,0.1,0,0.2,0c0.1,0,0.1,0,0.2,0h0.2
	c0.1,0,0.1,0,0.2-0.1h0.9c0.1,0,0.1,0,0.2,0h0.2c0.1,0,0.1,0,0.2,0c0.1,0,0.1,0,0.2,0c0.1,0,0.1,0,0.2,0c0.1,0,0.1,0,0.1,0.1
	c0.1,0,0.1,0,0.2,0c0.1,0,0.1,0,0.2,0.1c0.1,0,0.1,0,0.2,0c0.1,0,0.1,0.1,0.1,0.1c0.1,0,0.1,0.1,0.2,0.1l0.2,0.1c0,0,0.1,0,0.1,0.1
	c0.1,0,0.1,0,0.1,0.1c0.1,0,0.1,0.1,0.1,0.1c0,0,0.1,0.1,0.2,0.1c0,0.1,0.1,0.1,0.1,0.1c0,0,0.1,0.1,0.1,0.1c0,0.1,0.1,0.1,0.1,0.1
	c0,0,0.1,0.1,0.1,0.1c0,0,0.1,0.1,0.1,0.1c0,0,0.1,0.1,0.1,0.1l0.1,0.1c0,0.1,0.1,0.1,0.1,0.1c0,0.1,0.1,0.1,0.1,0.1s0,0.1,0.1,0.1
	l0.1,0.2c0,0.1,0,0.1,0.1,0.1c0,0.1,0.1,0.1,0.1,0.2c0,0,0.1,0.1,0.1,0.1l0.1,0.2c0,0,0,0.1,0.1,0.1c0,0.1,0.1,0.1,0.1,0.2
	c0,0.1,0,0.1,0.1,0.2c0,0.1,0,0.1,0.1,0.1c0,0.1,0,0.1,0,0.2c0,0.1,0,0.1,0.1,0.2c0,0.1,0,0.1,0,0.1c0,0.1,0,0.1,0.1,0.2v0.2
	c0,0.1,0.1,0.1,0.1,0.2c0,0.1,0,0.1,0,0.2c0,0.1,0,0.1,0,0.2c0,0.1,0.1,0.1,0.1,0.2v0.2c0,0.1,0,0.1,0,0.2c0,0.1,0,0.1,0,0.2
	c0,0.1,0,0.1,0,0.1v0.2c0,0,0,0.1,0,0.2c0,0.1,0,0.1,0,0.2c0,0.1,0,0.1,0,0.2c0,0.1,0,0.1,0,0.2c0,0.1,0,0.1,0,0.2V50.4z
	 M274.3,50.5l0-0.2v-0.2c0-0.1,0-0.1,0-0.2s0-0.1,0-0.2v-0.1c0-0.1,0-0.1,0-0.2v-0.7c0-0.1,0-0.1,0-0.2c0-0.1,0-0.1,0-0.2
	s0-0.1,0-0.2c0-0.1,0-0.1,0-0.2c0-0.1,0-0.1,0-0.2c0-0.1,0-0.1,0-0.2v-0.1c0-0.1,0-0.1,0-0.2c0-0.1,0-0.1,0-0.2c0-0.1,0-0.1,0-0.2
	c0-0.1,0-0.1,0-0.2c0-0.1,0-0.1,0-0.2c0,0,0-0.1-0.1-0.1c0-0.1,0-0.1-0.1-0.2c0-0.1,0-0.1,0-0.2c0-0.1-0.1-0.1-0.1-0.1
	c0-0.1-0.1-0.1-0.1-0.1c0-0.1,0-0.1-0.1-0.2l-0.1-0.1c-0.1-0.1-0.1-0.1-0.1-0.2c0,0-0.1-0.1-0.1-0.1c0-0.1-0.1-0.1-0.1-0.1
	c-0.1,0-0.1-0.1-0.2-0.1c-0.1,0-0.1-0.1-0.2-0.1c-0.1,0-0.1,0-0.2,0h-0.4c-0.1,0-0.1,0-0.2,0.1c-0.1,0-0.1,0-0.2,0l-0.2,0.1
	c0,0-0.1,0.1-0.1,0.1c0,0-0.1,0.1-0.1,0.1l-0.1,0.1c0,0-0.1,0.1-0.2,0.1c0,0.1-0.1,0.1-0.1,0.1l-0.1,0.2l-0.1,0.1
	c0,0.1-0.1,0.2-0.1,0.4c0,0-0.1,0.1-0.1,0.1c0,0.1,0,0.1,0,0.2c0,0,0,0.1-0.1,0.1c0,0.1-0.1,0.1-0.1,0.2c0,0.1,0,0.1,0,0.2l-0.1,0.2
	v0.2c0,0.1,0,0.1,0,0.2v0.2c0,0.1,0,0.1,0,0.2v0.4c0,0.1,0,0.1,0,0.2v0.2c0,0.1,0,0.1,0,0.2v0.2c0,0.1,0,0.1,0,0.2v0.2l0.1,0.2
	c0,0.1,0,0.1,0,0.2c0,0.1,0,0.1,0,0.2c0,0.1,0.1,0.1,0.1,0.1c0,0.1,0,0.1,0.1,0.2c0,0,0,0.1,0.1,0.1c0,0.1,0.1,0.1,0.1,0.1
	c0,0.1,0,0.1,0.1,0.2c0,0,0.1,0.1,0.1,0.1c0,0.1,0.1,0.1,0.1,0.2c0.1,0,0.1,0.1,0.2,0.1l0.1,0.1c0.1,0,0.1,0.1,0.2,0.1
	c0.1,0,0.1,0.1,0.2,0.1c0.1,0,0.1,0,0.2,0h0.2c0.1,0,0.1,0,0.2,0h0.4c0.1,0,0.1,0,0.2-0.1c0.1,0,0.1,0,0.2-0.1c0.1,0,0.1,0,0.2-0.1
	c0.1,0,0.1-0.1,0.1-0.1l0.2-0.1c0,0,0.1-0.1,0.2-0.1c0.1,0,0.1-0.1,0.1-0.1c0-0.1,0.1-0.1,0.1-0.1c0.1,0,0.1-0.1,0.1-0.1
	c0,0,0.1-0.1,0.1-0.1C274.2,50.6,274.3,50.5,274.3,50.5z M99.5,27.6c0-0.1-0.1-0.1-0.1-0.2c0-0.1,0-0.2-0.1-0.3c0-0.1-0.1-0.2,0-0.3
	c0-0.1-0.1-0.2,0-0.3c0-0.1,0-0.2,0-0.3c0-0.1-0.1-0.2-0.1-0.3v-0.8c0-0.1,0-0.2,0-0.3v-0.6c0-0.1,0-0.1,0-0.3v-0.3
	c0-0.1,0-0.1,0-0.3v-0.5c0-0.1,0-0.1,0-0.3c0-0.1,0-0.1,0-0.3c0-0.1,0-0.1,0-0.2v-0.3c0-0.1,0-0.1,0-0.3s0-0.1,0-0.3v-0.3
	c0-0.1,0-0.1,0-0.3v-0.3c0-0.1,0-0.1,0-0.3c0-0.1,0-0.1,0-0.3V20c0-0.1,0-0.1,0-0.3v-0.3c0-0.1,0-0.1,0-0.3c0-0.1,0-0.1,0-0.3v-1.6
	c0-0.1,0-0.1,0-0.3v-0.8c0-0.1,0-0.1,0-0.3v-0.3c0-0.1,0-0.1,0-0.3V15c0-0.1,0-0.1,0-0.3c0-0.1,0-0.1,0-0.3c0-0.1,0-0.1,0-0.3
	c0-0.1,0-0.1,0-0.3v-0.5c0-0.1,0-0.1,0-0.3c0-0.1,0-0.1,0-0.3v-0.3c0-0.1,0-0.1,0-0.3c0-0.1,0-0.1,0-0.3v-0.5c0-0.1,0-0.1,0-0.3
	v-0.5c0-0.1,0-0.1,0-0.3c0-0.1,0-0.1,0-0.3c0-0.1,0-0.1,0-0.3V9.8c0-0.1,0-0.1,0-0.3c0-0.1,0-0.1,0-0.3V9c0-0.1,0-0.1,0-0.3
	c0-0.1,0-0.1,0-0.2c0-0.1,0-0.1,0-0.3c0-0.1,0-0.1,0-0.3V7.7c0-0.1,0-0.1,0-0.3c0-0.1,0-0.1,0-0.3s0-0.1,0-0.3V6.6
	c0-0.1,0-0.1,0-0.3s0-0.1,0-0.3V5.8c0-0.1,0-0.2,0-0.3c0-0.1,0-0.2,0-0.3V5c0-0.1,0-0.2,0-0.3c0-0.1,0-0.2,0-0.3V4.2
	c0.1-0.1,0.1-0.2,0.1-0.3c0-0.1,0.1-0.2,0-0.3c0-0.1,0.1-0.1,0.1-0.2c0-0.1,0-0.2,0.1-0.3c0-0.1,0.1-0.2,0.1-0.2
	c0-0.1,0.1-0.2,0-0.3c0-0.1,0-0.1,0-0.2c0,0-0.1-0.1-0.1-0.1c-0.1,0-0.1-0.1-0.2-0.1c-0.1,0-0.2,0.1-0.3,0.1c-0.1,0-0.2,0-0.3,0
	l-0.3,0l-0.3,0l-0.3,0l-0.3,0l-0.3,0l-0.3,0l-0.3,0l-0.3,0l-0.3,0l-0.3,0l-0.3,0l-0.3,0l-0.3,0c-0.1,0-0.2,0.1-0.3,0.1s-0.2,0-0.3,0
	l-0.3,0l-0.3,0l-0.3,0l-0.3,0c-0.1,0-0.1,0.1-0.2,0.1c0,0-0.1,0.1-0.1,0.2C93,3.2,93,3.2,93,3.3c0,0.1,0,0.2,0.1,0.2l0.1,0.2
	c0,0.1,0,0.2,0.1,0.3s0.1,0.1,0.1,0.2c0.1,0.1,0.1,0.2,0.1,0.3c0,0.1,0.1,0.2,0,0.3c0,0.1,0.1,0.2,0,0.3c0,0.1,0.1,0.2,0,0.3
	c0,0.1,0,0.2,0,0.3v1.4c0,0.1,0,0.1,0,0.3c0,0.1,0,0.1,0,0.3V8c0,0.1,0,0.1,0,0.3v2.3c0,0.1,0,0.1,0,0.3s0,0.1,0,0.3
	c0,0.1,0,0.1,0,0.3v0.3c0,0.1,0,0.1,0,0.3c0,0.1,0,0.1,0,0.3c0,0.1,0,0.1,0,0.3s0,0.1,0,0.3s0,0.1,0,0.3v0.3c0,0.1,0,0.1,0,0.3
	s0,0.1,0,0.3c0,0.1,0,0.1,0,0.3c0,0.1,0,0.1,0,0.3s0,0.1,0,0.3v0.3c0,0.1,0,0.1,0,0.3c0,0.1,0,0.1,0,0.3c0,0.1,0,0.1,0,0.3
	c0,0.1,0,0.1,0,0.3c0,0.1,0,0.1,0,0.3s0,0.1,0,0.3v0.3c0,0.1,0,0.1,0,0.3v0.3c0,0.1,0,0.1,0,0.3s0,0.1,0,0.3v0.3c0,0.1,0,0.1,0,0.3
	v0.5c0,0.1,0,0.1,0,0.3v0.5c0,0.1,0,0.1,0,0.3c0,0.1,0,0.1,0,0.3s0,0.1,0,0.3s0,0.1,0,0.3c0,0.1,0,0.1,0,0.3c0,0.1,0,0.1,0,0.3
	c0,0.1,0,0.1,0,0.3v0.5c0,0.1,0,0.1,0,0.3v0.3c0,0.1,0,0.1,0,0.3c0,0.1,0,0.1,0,0.3v0.3c0,0.1,0,0.1,0,0.3c0,0.1,0,0.1,0,0.3v0.7
	c0,0.1,0,0.1,0,0.3V26c0,0.1,0,0.2,0,0.3v0.3c0,0.1,0,0.2,0,0.3v0.3c0,0.1-0.1,0.2,0,0.3l-0.1,0.3c0,0.1,0,0.2-0.1,0.2
	c0,0.1,0,0.2-0.1,0.3l-0.1,0.3C93,28.5,93,28.6,93,28.7c0,0.1,0,0.1,0,0.2c0,0.1,0.1,0.1,0.2,0.2c0.1,0,0.2,0,0.2,0l0.3,0l0.3,0
	l0.3,0l0.3,0l0.3,0l0.3,0l0.3,0l0.3,0l0.3,0l0.3,0l0.3,0l0.3,0l0.3,0l0.3,0l0.3,0l0.3,0l0.3,0l0.3,0c0.1,0,0.2,0,0.3,0
	c0.1,0,0.2-0.1,0.3-0.1l0.3,0c0.1,0,0.2,0,0.2-0.1c0.1,0,0.1-0.1,0.2-0.2c0-0.1,0-0.2,0-0.2c0-0.1,0-0.2-0.1-0.3
	C99.6,27.7,99.5,27.6,99.5,27.6z M124.4,18.9c0-0.1,0-0.2,0-0.3v-0.3c0-0.1-0.1-0.2,0-0.3c0-0.1,0-0.2-0.1-0.3
	c0-0.2-0.1-0.3-0.1-0.5c0-0.1,0-0.2-0.1-0.3c0-0.1,0-0.1,0-0.2c0-0.1,0-0.2-0.1-0.3c0-0.1-0.1-0.2,0-0.3c0-0.1-0.1-0.1-0.1-0.2
	s0-0.2-0.1-0.3c0-0.1-0.1-0.2-0.1-0.2c0-0.1-0.1-0.2-0.1-0.2c0-0.1,0-0.2-0.1-0.3c-0.1-0.1-0.1-0.1-0.2-0.2
	c-0.1-0.1-0.1-0.1-0.1-0.2l-0.2-0.2l-0.1-0.3l-0.2-0.2c0,0-0.1-0.1-0.2-0.2c0,0-0.1-0.1-0.1-0.2l-0.2-0.2l-0.2-0.2l-0.2-0.2
	c0-0.1-0.2-0.1-0.2-0.2c-0.1-0.1-0.1-0.1-0.2-0.2c0,0-0.1-0.1-0.2-0.2l-0.2-0.2c-0.1,0-0.2-0.1-0.2-0.1c0,0-0.1-0.1-0.2-0.2
	c-0.1-0.1-0.2-0.1-0.2-0.2c0,0-0.2-0.1-0.2-0.1c-0.1-0.1-0.1-0.1-0.2-0.2c-0.1,0-0.1-0.1-0.2-0.2c-0.1,0-0.2-0.1-0.2-0.1
	c-0.1-0.1-0.1-0.1-0.2-0.2c-0.1,0-0.2-0.1-0.2-0.1c-0.1,0-0.2-0.1-0.2-0.2c-0.1,0-0.2-0.1-0.2-0.2c-0.1-0.1-0.1-0.1-0.2-0.1
	l-0.2-0.2c-0.1,0-0.2-0.1-0.2-0.1c-0.1,0-0.2-0.1-0.2-0.2c0,0-0.2-0.1-0.2-0.1l-0.2-0.2c-0.1-0.1-0.2-0.1-0.2-0.2s-0.1-0.1-0.2-0.2
	c0-0.1-0.1-0.2-0.2-0.2c0,0-0.1-0.1-0.2-0.2c0-0.1-0.1-0.1-0.1-0.2C116,9.1,115.9,9,115.9,9c-0.1-0.1-0.1-0.1-0.1-0.2l-0.1-0.3
	c0,0,0-0.1-0.1-0.2s0-0.2-0.1-0.3c0-0.1,0-0.1-0.1-0.2V7.5c0-0.1,0-0.2,0-0.3s0-0.2,0-0.3V6.8c0-0.1,0-0.2,0-0.3s0-0.2,0-0.3
	c0.1-0.1,0.1-0.2,0.1-0.3c0-0.1,0.1-0.2,0.1-0.2c0-0.1,0.1-0.2,0.1-0.2c0-0.1,0.1-0.2,0.2-0.2c0.1-0.1,0.1-0.1,0.2-0.2
	c0,0,0.1-0.1,0.2-0.2s0.2,0,0.3-0.1c0.1-0.1,0.1-0.1,0.2-0.1c0.1,0,0.2-0.1,0.3-0.1c0.1-0.1,0.2-0.1,0.3-0.1c0.1,0,0.2,0,0.3,0
	c0.1,0,0.2-0.1,0.3-0.1l0.3,0l0.3,0c0.1,0,0.2,0,0.3,0.1c0.1,0,0.2,0,0.2,0c0.1,0,0.2,0,0.3,0c0.1,0,0.2,0,0.3,0
	c0.1,0,0.2,0,0.3,0.1c0.1,0,0.2,0,0.3,0.1c0.1,0,0.1,0,0.2,0.1c0.1,0,0.2,0,0.3,0.1s0.1,0.1,0.2,0.1c0.1,0,0.2,0.1,0.2,0.1l0.3,0.1
	c0,0,0.1,0.1,0.2,0.2c0.1,0,0.2,0.1,0.2,0.1c0.1,0.1,0.1,0.1,0.2,0.2c0.1,0,0.1,0.1,0.2,0.2c0.1,0.1,0.1,0.1,0.2,0.1
	c0.1,0,0.2,0,0.3-0.1c0.1-0.1,0.1-0.1,0.1-0.2c0-0.1,0.1-0.2,0-0.3c0-0.1,0-0.1,0-0.3c0-0.1,0-0.1,0-0.3V4.5l-0.1-0.3V3.7
	c0-0.1,0-0.1,0-0.3c0-0.1,0-0.1,0-0.3V2.9c0-0.1,0-0.2,0-0.3V2.4c0-0.1,0-0.2,0-0.3V1.6c0-0.1,0-0.1,0-0.3c0-0.1-0.1-0.2,0-0.3
	c0-0.1,0-0.2,0-0.2c0-0.1-0.1-0.1-0.2-0.1c-0.1,0-0.2-0.1-0.2,0c-0.1,0-0.2,0-0.2,0.1c0,0-0.1,0.1-0.2,0.1c-0.1,0-0.2,0.1-0.3,0.1
	l-0.3,0c-0.1,0-0.2,0-0.3,0c-0.1,0-0.2,0.1-0.3,0c-0.1,0-0.2,0-0.2,0l-0.3,0c-0.1,0-0.2,0-0.3,0c-0.1,0-0.2,0-0.3,0
	c-0.1,0-0.2,0-0.3,0c-0.1,0-0.2,0-0.2,0c-0.1,0-0.2,0-0.3,0l-0.3,0c-0.2,0-0.4,0-0.6-0.1l-0.2,0l-0.3,0l-0.3,0l-0.3,0l-0.3,0
	c-0.1,0-0.2,0.1-0.3,0.1l-0.3,0c-0.1,0-0.2,0.1-0.3,0.1c-0.1,0-0.2,0-0.3,0.1l-0.3,0C115.1,1,115.1,1,115,1c-0.1,0-0.2,0.1-0.3,0.1
	c-0.1,0-0.2,0-0.3,0.1c-0.1,0-0.2,0-0.3,0.1c0,0-0.1,0.1-0.2,0.1c-0.1,0.1-0.2,0.1-0.3,0.1c-0.1,0.1-0.1,0.1-0.2,0.1
	c-0.1,0-0.2,0.1-0.2,0.1c-0.1,0.1-0.2,0.1-0.2,0.1c-0.1,0.1-0.2,0.1-0.2,0.1c-0.1,0.1-0.2,0.1-0.2,0.2c-0.1,0.1-0.2,0.1-0.2,0.1
	c-0.1,0.1-0.1,0.1-0.2,0.2c-0.1,0.1-0.2,0.1-0.2,0.2c0,0-0.1,0.1-0.2,0.2c-0.1,0.1-0.1,0.1-0.2,0.2c0,0-0.1,0.1-0.2,0.2
	c0,0,0,0.1-0.1,0.2c0,0-0.1,0.2-0.1,0.2C111,4,111,4,110.9,4.1c0,0.1-0.1,0.1-0.1,0.2c0,0.1,0,0.2-0.1,0.3c-0.1,0.1-0.1,0.1-0.1,0.2
	l-0.1,0.3c0,0.1-0.1,0.2-0.1,0.2c0,0.1,0,0.2,0,0.3c0,0.1,0,0.2,0,0.3c0,0.1-0.1,0.2,0,0.3c0,0.1,0,0.2,0,0.3c0,0.1-0.1,0.1,0,0.2
	c0,0.1,0,0.2,0,0.3c0,0.1-0.1,0.2,0,0.3c0,0.1,0,0.2,0,0.3s0,0.2,0,0.3v0.8c0,0.1,0,0.2,0,0.3c0,0.1,0,0.2,0,0.3v0.3
	c0,0.1,0.1,0.2,0,0.3c0,0.1,0,0.2,0.1,0.3c0,0.1,0,0.2,0,0.3c0,0,0,0.2,0,0.3c0.1,0.1,0.1,0.1,0.1,0.2c0.1,0.1,0.1,0.2,0.1,0.3
	c0,0.1,0.1,0.1,0.1,0.2s0,0.2,0.1,0.3s0.1,0.1,0.1,0.2c0,0.1,0.1,0.1,0.1,0.2c0,0.1,0,0.2,0.1,0.3c0.1,0.1,0.1,0.1,0.2,0.2
	c0.1,0.1,0.1,0.1,0.1,0.2c0,0,0.1,0.2,0.1,0.2s0.1,0.1,0.2,0.2c0,0.1,0.1,0.1,0.2,0.2s0.1,0.1,0.2,0.2c0,0,0.1,0.1,0.1,0.2l0.2,0.2
	c0,0,0.1,0.1,0.2,0.2c0.1,0,0.1,0.1,0.2,0.2c0.1,0.1,0.2,0.1,0.2,0.2s0.1,0.1,0.2,0.2c0,0,0.1,0.1,0.2,0.1c0.1,0,0.2,0.1,0.2,0.2
	c0,0,0.1,0.1,0.2,0.2c0.1,0,0.2,0.1,0.2,0.1c0.1,0,0.2,0.1,0.2,0.2c0.1,0,0.2,0.1,0.2,0.2c0.1,0,0.1,0.1,0.2,0.1
	c0.1,0,0.1,0.1,0.2,0.1s0.1,0.1,0.2,0.1c0.1,0,0.2,0.1,0.2,0.1c0.1,0.1,0.1,0.1,0.2,0.2c0.1,0,0.1,0.1,0.2,0.1
	c0.1,0,0.2,0.1,0.2,0.1c0.1,0.1,0.1,0.1,0.2,0.2c0.1,0,0.1,0.1,0.2,0.2l0.3,0.1l0.2,0.2c0.1,0,0.1,0.1,0.2,0.2c0,0,0.1,0.1,0.2,0.2
	s0.2,0.1,0.2,0.1c0.1,0.1,0.1,0.1,0.2,0.2c0.1,0.1,0.2,0.1,0.2,0.2c0.1,0.1,0.1,0.1,0.1,0.2c0,0,0.1,0.2,0.1,0.2l0.2,0.2l0.1,0.3
	c0.1,0.1,0.1,0.1,0.1,0.2c0,0.1,0.1,0.2,0.1,0.3c0,0.1,0.1,0.1,0.1,0.2c0,0.1,0,0.2,0.1,0.3v0.8c0,0.1,0,0.2,0,0.3
	c0,0.1,0,0.2,0,0.3c0,0.1,0,0.2,0,0.3c0,0.1-0.1,0.2-0.1,0.2c0,0.1,0,0.2-0.1,0.3c0,0,0,0.1-0.1,0.2s-0.1,0.1-0.1,0.2
	c0,0.1-0.1,0.2-0.1,0.2c0,0.1-0.1,0.2-0.2,0.2c0,0-0.1,0.1-0.1,0.2c-0.1,0.1-0.2,0.1-0.2,0.2s-0.1,0.1-0.2,0.2c0,0-0.2,0.1-0.2,0.1
	c0,0-0.2,0.1-0.2,0.1c0,0-0.2,0.1-0.2,0.1c-0.1,0.1-0.1,0.1-0.2,0.1l-0.3,0.1c-0.1,0-0.2,0.1-0.2,0.1c-0.1,0-0.2,0-0.3,0.1
	c-0.1,0-0.2,0.1-0.3,0.1l-0.3,0c-0.1,0-0.2,0-0.3,0.1l-0.2,0l-0.3,0l-0.3,0c-0.1,0-0.2,0-0.3,0c-0.2,0-0.4,0-0.6-0.1
	c-0.1,0-0.2,0-0.2,0c-0.1,0-0.2,0-0.3-0.1c-0.1,0-0.2,0-0.2,0c-0.1,0-0.2-0.1-0.3-0.1c-0.1,0-0.1-0.1-0.2-0.1l-0.3-0.1
	c0,0-0.2,0-0.2-0.1c-0.1,0-0.2-0.1-0.2-0.1c-0.1,0-0.2-0.1-0.2-0.1c0,0-0.2-0.1-0.2-0.1s-0.1-0.1-0.2-0.2c-0.1,0-0.1-0.1-0.2-0.1
	c-0.1-0.1-0.1-0.1-0.2-0.1c-0.1,0-0.2,0.1-0.3,0.1c-0.1,0-0.1,0.1-0.2,0.2c0,0.1-0.1,0.1-0.1,0.2V23c0,0.1,0.1,0.2,0,0.3
	c0,0.1,0,0.2,0,0.3v0.3c0,0.1,0,0.1,0,0.3c0,0.1,0,0.2,0,0.3v0.5c0,0.1,0.1,0.2,0,0.3v0.3c0,0.1,0.1,0.1,0.1,0.3v0.3
	c0,0.1,0,0.1,0,0.3v0.5c0,0.1,0.1,0.2,0,0.3c0,0.1,0,0.1,0,0.3c0,0.1,0,0.1,0,0.3c0,0.1,0.1,0.2,0.1,0.2c0,0.1,0.1,0.1,0.2,0.2
	c0.1,0,0.2,0,0.3,0c0.1,0,0.2-0.1,0.3-0.1c0.1,0,0.2-0.1,0.3-0.1c0.1,0,0.2,0,0.3-0.1c0.1,0,0.1-0.1,0.2-0.1l0.3,0l0.3,0l0.3,0
	l0.3,0c0.1,0,0.2,0,0.3,0l0.3,0c0.1,0,0.1,0.1,0.2,0.1c0.1,0,0.2,0,0.3,0l0.3,0c0.1,0,0.2,0,0.3,0c0.1,0,0.2,0,0.3,0
	c0.1,0,0.2-0.1,0.3-0.1c0.1,0,0.2,0,0.3,0l0.3,0c0.1,0,0.2,0,0.3,0l0.3,0c0.1,0,0.2-0.1,0.3-0.1l0.3,0c0.1,0,0.2-0.1,0.3-0.1
	c0.1,0,0.2-0.1,0.3-0.1l0.3,0c0.1-0.1,0.2-0.1,0.3-0.1c0.1,0,0.2-0.1,0.3-0.1c0.1,0,0.2-0.1,0.3-0.1c0.1,0,0.1-0.1,0.2-0.1
	c0.1-0.1,0.2-0.1,0.3-0.1c0.1,0,0.2-0.1,0.2-0.1c0.1,0,0.2-0.1,0.3-0.1c0.1,0,0.2-0.1,0.2-0.1c0.1,0,0.2-0.1,0.3-0.1
	s0.1-0.1,0.2-0.1c0.1,0,0.2-0.1,0.2-0.2c0.1,0,0.2-0.1,0.2-0.1c0.1,0,0.2-0.1,0.2-0.1c0,0,0.1-0.1,0.2-0.2l0.2-0.2
	c0.1,0,0.1-0.1,0.2-0.2c0.1-0.1,0.2-0.1,0.2-0.2c0.1-0.1,0.2-0.1,0.2-0.2c0.1-0.1,0.1-0.1,0.2-0.2l0.2-0.2c0-0.1,0.1-0.2,0.1-0.2
	c0.1-0.1,0.1-0.1,0.2-0.2c0.1-0.1,0.1-0.1,0.2-0.2c0-0.1,0-0.2,0.1-0.2c0.1-0.1,0.1-0.2,0.2-0.2c0-0.1,0.1-0.2,0.1-0.2
	c0-0.1,0-0.2,0.1-0.3c0-0.1,0-0.2,0.1-0.3c0-0.1,0.1-0.1,0.1-0.2c0.1-0.1,0.1-0.2,0.1-0.3c0-0.1,0.1-0.1,0.1-0.2l0.1-0.3
	c0-0.1,0-0.2,0-0.3c0-0.1,0-0.2,0-0.3s0-0.2,0-0.3c0-0.1,0-0.2,0.1-0.2v-0.3c0-0.1,0-0.2,0-0.3c0.1-0.1,0.1-0.2,0.1-0.3
	c0-0.1,0-0.2,0-0.3v-0.5C124.4,19.1,124.4,19,124.4,18.9z M147.6,21.9c-0.1,0-0.2-0.1-0.2,0c-0.1,0-0.2,0-0.3,0.1
	c-0.1,0.1-0.1,0.1-0.2,0.1c-0.1,0-0.1,0.1-0.2,0.1c-0.1,0-0.2,0.1-0.3,0.1c-0.1,0-0.2,0-0.3,0.1c-0.1,0-0.2,0-0.2,0
	c-0.1,0-0.2,0-0.3,0.1h-0.3H145c-0.1,0-0.2,0-0.3,0s-0.2,0-0.3,0h-0.6c-0.1,0-0.2,0-0.3,0c-0.1,0-0.1,0-0.3,0s-0.1,0-0.2,0
	c-0.1,0-0.1,0-0.3,0h-1.1c-0.1,0-0.1,0-0.2,0c-0.1,0-0.1,0-0.3,0c-0.1,0-0.2,0-0.3,0c-0.1,0-0.2-0.1-0.2-0.2l-0.2-0.2v-2.1
	c0-0.1,0-0.1,0-0.3v-0.5c0-0.1,0-0.1,0-0.3v-0.5c0-0.1,0-0.1,0-0.3c0-0.1,0-0.1,0-0.3c0-0.1,0-0.1,0-0.3c0-0.1,0-0.1,0-0.3v-0.5
	c0-0.1,0-0.1,0-0.3v-0.3c0-0.1,0-0.1,0-0.3v-0.3c0-0.1,0-0.1,0-0.3v-0.3c0-0.1,0-0.1,0-0.3v-0.8c0-0.1,0-0.1,0-0.3
	c0-0.1,0-0.1,0-0.3v-1.6c0-0.1,0-0.1,0-0.3s0-0.1,0-0.3v-0.5c0-0.1,0-0.1,0-0.3v-0.5c0-0.1,0-0.1,0-0.3V9.6c0-0.1,0-0.1,0-0.3
	c0-0.1,0-0.1,0-0.3V8.5c0-0.1,0-0.1,0-0.3c0-0.1,0-0.1,0-0.3V7.5c0-0.1,0-0.1,0-0.2V7c0-0.1,0-0.1,0-0.3s0-0.1,0-0.3
	c0-0.1,0-0.1,0-0.3V4.6c0-0.1,0-0.1,0-0.3c0-0.1,0-0.2,0-0.3V3.3c0-0.1,0-0.2,0-0.3V2.8c0-0.1,0.1-0.2,0.1-0.3c0-0.1,0-0.2,0-0.3
	c0-0.1,0-0.2,0.1-0.3c0-0.1,0-0.2,0-0.3c0-0.1,0.1-0.2,0.1-0.2l0.1-0.3c0.1-0.1,0.1-0.1,0.1-0.2c0-0.1,0-0.2,0-0.2
	c0-0.1-0.1-0.1-0.2-0.2c-0.1,0-0.2,0-0.2,0h-2.2c-0.1,0-0.2,0-0.3,0c-0.1,0-0.2,0-0.3,0h-0.8h-0.3h-0.3h-0.3h-0.3h-0.3h-0.3h-0.3
	H135c-0.1,0-0.2,0-0.2,0c0,0-0.1,0.1-0.2,0.2s0,0.2,0,0.2c0,0.1,0,0.2,0,0.3c0.1,0.1,0.1,0.1,0.1,0.2c0,0.1,0.1,0.1,0.1,0.2
	c0,0.1,0,0.2,0.1,0.3c0,0.1,0,0.2,0,0.3c0,0.1,0,0.2,0.1,0.3c0,0.1,0,0.2,0,0.3V3c0,0.1,0,0.2,0,0.3c0,0.1,0,0.2,0,0.3v0.8
	c0,0.1,0,0.1,0,0.3s0,0.1,0,0.3v1.6c0,0.1,0,0.1,0,0.3c0,0.1,0,0.1,0,0.3v0.3c0,0.1,0,0.1,0,0.3c0,0.1,0,0.1,0,0.3v0.3
	c0,0.1,0,0.1,0,0.2s0,0.1,0,0.3v0.3c0,0.1,0,0.1,0,0.3v0.3c0,0.1,0,0.1,0,0.3v0.8c0,0.1,0,0.1,0,0.3c0,0.1,0,0.1,0,0.3v1
	c0,0.1,0,0.1,0,0.3s0,0.1,0,0.3v1.8c0,0.1,0,0.1,0,0.3c0,0.1,0,0.1,0,0.3c0,0.1,0,0.1,0,0.3c0,0.1,0,0.1,0,0.3c0,0.1,0,0.1,0,0.3
	v0.3c0,0.1,0,0.1,0,0.3V18c0,0.1,0,0.1,0,0.3c0,0.1,0,0.1,0,0.3v1c0,0.1,0,0.1,0,0.3v0.3c0,0.1,0,0.1,0,0.3v0.3c0,0.1,0,0.1,0,0.3
	s0,0.1,0,0.3v0.3c0,0.1,0,0.1,0,0.3c0,0.1,0,0.1,0,0.2v1c0,0.1,0,0.2,0,0.3c0,0.1,0,0.2,0,0.3v0.3c0,0.1,0,0.2,0,0.3
	c0,0.1,0,0.2,0,0.3c0,0.1,0,0.2-0.1,0.3v0.3c-0.1,0.1-0.1,0.2-0.1,0.3c0,0.1,0,0.2,0,0.3c0,0.1-0.1,0.2-0.1,0.3
	c-0.1,0.1-0.1,0.1-0.1,0.2c0,0.1-0.1,0.2-0.1,0.2c0,0.1-0.1,0.2,0,0.3c0,0.1,0,0.2,0,0.2c0,0,0.1,0.1,0.1,0.2c0.1,0,0.2,0,0.2,0h0.3
	h0.3h0.3h0.3h0.3h0.3h0.3h6.3c0.1,0,0.2,0,0.2,0h0.6h0.3h0.3h0.3c0.1,0,0.2,0,0.3,0c0.1,0,0.2,0,0.3,0c0.1,0,0.2,0.1,0.3,0
	c0.1,0,0.1,0.1,0.2,0.1c0.1,0,0.2,0.1,0.3,0c0.1,0,0.2,0,0.3-0.1c0.1,0,0.2-0.1,0.2-0.2c0-0.1,0-0.2,0.1-0.3c0-0.1,0-0.2,0-0.3
	c0-0.1,0-0.2,0.1-0.3c0-0.1,0-0.2,0-0.3c0-0.1,0.1-0.2,0-0.3c0-0.1,0-0.2,0.1-0.3c0-0.1,0-0.1,0-0.2c0-0.1,0-0.2,0-0.3
	c0-0.1,0-0.2,0.1-0.3c0-0.1,0-0.2,0-0.3c0-0.1,0-0.2,0-0.3c0-0.1,0.1-0.2,0-0.3c0-0.1,0-0.2,0.1-0.3c0-0.2,0.1-0.3,0.1-0.5
	c0-0.1,0-0.2,0.1-0.3c0-0.1,0-0.2,0-0.3c0,0,0-0.1,0-0.2C147.7,22.1,147.6,22,147.6,21.9z M175.4,27.1c0,0.1,0,0.2,0,0.3
	c0,0.1-0.1,0.1-0.1,0.2c0,0-0.1,0-0.2,0c-0.1,0-0.2,0-0.3,0c-0.1,0-0.2-0.1-0.3-0.1l-0.3,0l-0.2,0l-0.3,0l-0.3,0l-0.3,0l-0.3,0
	l-0.3,0l-0.3,0l-0.3,0l-0.3,0l-0.2,0l-0.3,0l-0.3,0l-0.3,0l-0.3,0l-0.3,0l-0.3,0l-0.3,0c-0.1,0-0.2,0-0.2,0c-0.1,0-0.2,0-0.3-0.1
	c-0.1,0-0.1-0.1-0.2-0.2c-0.1-0.1-0.1-0.1-0.1-0.2c0-0.1,0-0.2,0-0.2c0-0.1,0-0.2,0.1-0.3c0-0.1,0.1-0.2,0-0.3c0-0.1,0-0.2,0-0.3
	v-0.3c0-0.1,0-0.2,0-0.3v-0.3c0-0.1,0-0.2,0-0.3v-0.3c0-0.1,0-0.2,0-0.3c0-0.1-0.1-0.2,0-0.3c0-0.1,0-0.2,0-0.3c0,0,0-0.2,0-0.3
	c0-0.1,0-0.1,0-0.2c0-0.1,0-0.2,0-0.3c0-0.1,0-0.2,0-0.2v-0.3c0-0.1-0.1-0.1-0.1-0.2c0-0.1-0.1-0.2-0.1-0.3
	c-0.1-0.1-0.1-0.1-0.2-0.2c-0.1-0.1-0.2-0.1-0.3-0.1l-0.2,0l-0.3,0l-0.3,0l-0.3,0l-0.3,0c-0.1,0-0.1,0-0.3,0c-0.1,0-0.1,0-0.2-0.1
	c-0.1,0-0.1,0-0.3,0s-0.1,0-0.3-0.1c-0.1,0-0.1,0-0.3,0l-0.3,0c-0.1,0-0.1,0-0.2-0.1l-0.3,0l-0.3,0l-0.3,0l-0.3,0
	c-0.1,0-0.2,0-0.3,0.1c-0.1,0-0.2,0.1-0.3,0.2c-0.1,0.1-0.1,0.2-0.1,0.3c0,0.1-0.1,0.1,0,0.2c0,0.1-0.1,0.2,0,0.3c0,0.1,0,0.1,0,0.2
	c0,0.1,0,0.2,0,0.3c0,0.1,0,0.1,0,0.2c0,0.1-0.1,0.2,0,0.3c0,0.1,0,0.2-0.1,0.3v0.3c0,0.1-0.1,0.2,0,0.3v0.3c0,0.1,0,0.2,0,0.3v0.5
	c0,0.1,0,0.2,0,0.3v0.3c0,0.1,0,0.2,0.1,0.3s0,0.2,0.1,0.3c0,0.1,0.1,0.1,0,0.2c0,0.1,0,0.1-0.1,0.2l-0.2,0.2c-0.1,0-0.2,0-0.3,0
	l-0.3,0l-0.3,0l-0.2,0l-0.3,0l-0.3,0l-0.3,0l-0.3,0l-0.3,0l-0.3,0l-0.3,0l-0.2,0l-0.3,0l-0.3,0l-0.3,0l-0.3,0l-0.3,0l-0.3,0l-0.3,0
	l-0.3,0c0,0-0.1,0-0.2,0c-0.1,0-0.2,0-0.3-0.1c-0.1,0-0.2,0-0.2,0c-0.1,0-0.1-0.1-0.1-0.2c0-0.1,0-0.2,0-0.3c0-0.1,0-0.1,0.1-0.2
	c0.1-0.1,0.1-0.2,0.2-0.2c0,0,0.1-0.2,0.1-0.2c0-0.1,0.1-0.1,0.1-0.2l0.1-0.3c0-0.1,0-0.1,0.1-0.2c0-0.1,0-0.2,0.1-0.3
	c0-0.1,0.1-0.2,0-0.3c0-0.1,0.1-0.1,0.1-0.2c0-0.1,0-0.2,0-0.3c0-0.1,0-0.2,0-0.3c0-0.1,0.1-0.2,0-0.3c0-0.1,0-0.2,0.1-0.3v-0.3
	c0-0.1,0.1-0.1,0.1-0.2c0.1-0.1,0-0.2,0-0.3c0-0.1,0-0.1,0-0.3l0.1-0.3c0-0.2,0.1-0.3,0.1-0.5v-0.3l0.1-0.3c0-0.1,0-0.1,0-0.3
	c0-0.1,0-0.1,0-0.3c0-0.1,0-0.2,0-0.3c0-0.1,0-0.1,0-0.2c0-0.1,0.1-0.2,0-0.3c0-0.1,0.1-0.2,0-0.3l0.1-0.3c0-0.1,0-0.2,0-0.3
	c0-0.1,0-0.1,0-0.3c0-0.1,0-0.1,0-0.3l0.1-0.3c0-0.1,0-0.1,0-0.3c0-0.1,0-0.1,0.1-0.2v-0.3c0-0.1,0.1-0.1,0-0.2l0.1-0.3
	c0-0.1,0-0.2,0-0.3c0-0.1,0-0.1,0.1-0.3v-0.3c0-0.2,0.1-0.3,0.1-0.5c0-0.1,0.1-0.2,0-0.3c0-0.1,0.1-0.1,0.1-0.2c0-0.1,0-0.2,0-0.3
	c0-0.1,0-0.1,0-0.3c0-0.1,0.1-0.2,0-0.3c0-0.1,0-0.1,0-0.3l0.1-0.3c0-0.1,0-0.1,0-0.3l0.1-0.3c0-0.1,0-0.1,0-0.3
	c0-0.2,0.1-0.3,0.1-0.5c0-0.1,0-0.1,0-0.2c0-0.1,0.1-0.2,0-0.3l0.1-0.3v-0.3l0.1-0.3v-0.3c0-0.1,0.1-0.1,0.1-0.3
	c0-0.1,0.1-0.2,0-0.3c0-0.1,0-0.1,0-0.3s0-0.1,0.1-0.2c0-0.1,0-0.2,0-0.3c0-0.1,0-0.1,0.1-0.3s0-0.1,0-0.3s0-0.1,0-0.3
	c0-0.1,0.1-0.1,0.1-0.3c0-0.1,0.1-0.2,0-0.3c0-0.2,0.1-0.3,0.1-0.5c0-0.1,0.1-0.2,0-0.3c0-0.1,0.1-0.1,0.1-0.2c0-0.1,0-0.2,0-0.3
	c0-0.1,0.1-0.2,0-0.3c0-0.1,0-0.1,0-0.3c0-0.1,0-0.2,0-0.3c0-0.1,0-0.1,0-0.3c0-0.1,0.1-0.2,0-0.3l0.1-0.3c0-0.1,0-0.2,0-0.3V5.2
	c0-0.1,0-0.1,0-0.2c0-0.1,0.1-0.2,0-0.3c0-0.1,0-0.2,0.1-0.3c0-0.1,0-0.2,0-0.3c0-0.1,0-0.2,0-0.3V3.6c0-0.1,0-0.2,0-0.3V3.1
	c0-0.1,0-0.2,0-0.3V2.5c0-0.1,0-0.2,0-0.3c0-0.1,0-0.2,0-0.3c0-0.1,0-0.2-0.1-0.3c0-0.1,0-0.2-0.1-0.3c0-0.1,0-0.2,0-0.2
	c0-0.1,0-0.2,0.1-0.2c0.1-0.1,0.1-0.1,0.2-0.1c0.1,0,0.1-0.1,0.2-0.1l0.3,0l0.3,0l0.3,0l0.3,0l0.3,0l0.3,0l0.3,0l0.3,0l0.3,0l0.3,0
	l0.3,0l0.3,0l0.3,0l0.3,0l0.3,0l0.3,0l0.3,0l0.3,0l0.3,0l0.3,0l0.3,0l0.3,0l0.3,0l0.3,0l0.3,0l0.3,0l0.3,0l0.3,0l0.3,0
	c0.1,0,0.2,0,0.3,0.1c0.1,0,0.1,0.1,0.2,0.2c0,0.1,0.1,0.1,0.1,0.2c0,0.1,0,0.2,0,0.2c0,0.1,0,0.2-0.1,0.3c0,0.1,0,0.2-0.1,0.3v0.3
	c0,0.1,0,0.2,0,0.3v0.5c0,0.1,0,0.2,0,0.3v0.3c0,0.1,0,0.2,0,0.3c0,0.1,0,0.2,0,0.3c0,0.1,0.1,0.2,0,0.3c0,0.1,0,0.2,0,0.3
	c0,0.1,0.1,0.2,0,0.3c0,0.1,0,0.1,0,0.3c0,0.1,0,0.1,0,0.2c0,0.1,0,0.1,0.1,0.3c0,0.2,0.1,0.4,0.1,0.5c0,0.1,0,0.2,0,0.3
	c0,0.1,0.1,0.2,0,0.3c0,0.2,0.1,0.4,0.1,0.5c0,0.1,0,0.1,0,0.3c0,0.1,0,0.1,0,0.3c0,0.1,0,0.1,0.1,0.2v0.3l0.1,0.3
	c0,0.1,0,0.2,0,0.3c0,0.1,0,0.1,0,0.3l0.1,0.3c0,0.1,0,0.1,0,0.3l0.1,0.3c0,0.1,0,0.2,0,0.3v0.3c0,0.1,0,0.1,0.1,0.2
	c0,0.1,0,0.2,0,0.3c0,0.1,0,0.2,0,0.3c0,0.1,0,0.1,0,0.3c0,0.1,0.1,0.2,0,0.3c0,0.1,0.1,0.2,0,0.3c0,0.1,0.1,0.2,0,0.3l0.1,0.3
	c0,0.1,0,0.2,0,0.3c0,0.1,0,0.2,0,0.3c0,0.1,0,0.2,0,0.2c0,0.1,0.1,0.2,0,0.3c0,0.1,0,0.1,0,0.3l0.1,0.3v0.3c0,0.1,0.1,0.1,0.1,0.3
	c0,0.1,0,0.1,0,0.3s0,0.1,0,0.3c0,0.1,0,0.2,0,0.3c0,0.1,0,0.1,0,0.3c0,0.1,0,0.1,0,0.2l0.1,0.3v0.3c0,0.1,0.1,0.2,0,0.3l0.1,0.3
	c0,0.1,0,0.2,0,0.3c0,0.1,0,0.1,0,0.3c0,0.1,0.1,0.2,0,0.3l0.1,0.3v0.3c0,0.1,0.1,0.1,0,0.2l0.1,0.3c0,0.1,0,0.2,0,0.3
	c0,0.1,0.1,0.2,0,0.3c0,0.1,0,0.1,0,0.3l0.1,0.3c0,0.1,0,0.2,0,0.3c0,0.1,0,0.1,0,0.3l0.1,0.3c0,0.1,0,0.1,0,0.2c0,0.1,0,0.1,0,0.3
	c0,0.1,0,0.2,0,0.3c0,0.1,0,0.1,0,0.3c0,0.1,0.1,0.2,0,0.3l0.1,0.3v0.3l0.1,0.3c0,0.1,0,0.1,0,0.3c0,0.1,0.1,0.1,0,0.2
	c0,0.1,0,0.2,0,0.3c0,0.1,0,0.2,0.1,0.3v0.3c0,0.1,0,0.2,0.1,0.3v0.3c0,0.1,0,0.2,0.1,0.3s0.1,0.1,0.1,0.2c0.1,0.1,0.1,0.2,0.1,0.3
	c0,0.1,0,0.2,0.1,0.3c0,0.1,0.1,0.1,0.1,0.2l0.1,0.3c0.1,0.1,0.1,0.1,0.1,0.2c0,0.1,0.1,0.1,0.1,0.2l0.2,0.2
	C175.4,27,175.4,27.1,175.4,27.1z M167.7,16.7c0-0.1,0-0.1,0-0.3c0-0.1,0-0.2,0-0.3c0-0.1,0-0.1-0.1-0.3c0-0.1,0-0.1,0-0.3
	c0-0.1,0-0.2,0-0.3c0-0.1,0-0.1-0.1-0.3v-0.3l-0.1-0.3c0-0.1,0-0.2,0-0.3c0-0.2-0.1-0.4-0.1-0.5v-0.3l-0.1-0.3c0-0.1,0-0.2,0-0.3
	c0-0.1-0.1-0.2,0-0.3c0-0.1-0.1-0.2,0-0.3c0-0.1,0-0.1,0-0.3c0-0.1,0-0.2,0-0.3v-0.3c0-0.1-0.1-0.2,0-0.3c0-0.1,0-0.1-0.1-0.3
	c0-0.1,0-0.1,0-0.3c0-0.1,0-0.1,0-0.3c0-0.1,0-0.1,0-0.3l-0.1-0.3c0-0.2-0.1-0.4-0.1-0.5V9.3c0-0.1-0.1-0.2,0-0.3c0-0.1,0-0.1,0-0.3
	c0-0.1,0-0.1,0-0.3c0-0.1,0-0.2,0-0.3c0-0.1,0-0.1,0-0.3V7.7c0-0.1-0.1-0.2,0-0.3c0-0.1-0.1-0.2,0-0.3c0-0.1-0.1-0.2-0.2-0.2
	c-0.1,0-0.2,0.1-0.2,0.2c0,0.1,0,0.1,0,0.3c0,0.1-0.1,0.2,0,0.3c0,0.1,0,0.1,0,0.3l-0.1,0.3c0,0.1,0,0.2,0,0.3v0.3
	c0,0.1-0.1,0.2,0,0.3c0,0.1-0.1,0.2,0,0.3c0,0.1,0,0.1,0,0.3c0,0.1-0.1,0.2,0,0.3c0,0.1,0,0.1,0,0.3v0.3c0,0.1,0,0.1,0,0.3
	s0,0.1,0,0.3c0,0.2-0.1,0.3-0.1,0.5c0,0.1,0,0.2,0,0.3v0.3c0,0.1-0.1,0.2,0,0.3c0,0.1,0,0.1,0,0.3c0,0.1,0,0.2,0,0.3
	c0,0.1,0,0.1,0,0.3c0,0.1-0.1,0.2,0,0.3c0,0.1,0,0.2,0,0.3c0,0.1-0.1,0.2,0,0.3c0,0.1-0.1,0.2,0,0.3l-0.1,0.3c0,0.1,0,0.2,0,0.3
	c0,0.1,0,0.1,0,0.3c0,0.1,0,0.1,0,0.3s0,0.1,0,0.3c0,0.1,0,0.1,0,0.3c0,0.1-0.1,0.2,0,0.3c0,0.1-0.1,0.2,0,0.3
	c0,0.2-0.1,0.3-0.1,0.5c-0.1,0.1,0,0.2,0,0.3v0c0,0.1,0.1,0.1,0.1,0.2c0.1,0.1,0.1,0.2,0.2,0.2c0.1,0,0.2,0,0.3,0
	c0.1,0,0.1,0,0.3,0.1l0.3,0l0.3,0l0.3,0l0.3,0l0.3,0l0.3,0c0.1,0,0.1,0,0.3,0c0.1,0,0.2,0,0.3,0c0.1,0,0.1-0.1,0.2-0.2
	c0.1-0.1,0.1-0.1,0.2-0.2V16.7z M201.1,5.7c0-0.1,0-0.2,0-0.3V5.2c0-0.1,0-0.2,0-0.3c0-0.1,0-0.2,0-0.3c0-0.1,0-0.2,0-0.3
	c0-0.1,0-0.2,0-0.3l0.1-0.3c0-0.1,0-0.1,0.1-0.2l0.1-0.3c0.1-0.1,0.1-0.1,0.1-0.2c0-0.1,0-0.2,0-0.2c0,0-0.1-0.1-0.2-0.1
	c-0.1-0.1-0.1-0.1-0.2-0.1l-0.3,0c-0.1,0-0.2,0-0.3,0c-0.1,0-0.2-0.1-0.3-0.1c-0.1,0-0.2,0-0.3,0s-0.2-0.1-0.3-0.1l-0.3,0l-0.3,0
	c-0.1,0-0.2,0-0.3,0s-0.2-0.1-0.3-0.1l-0.3,0l-0.3,0l-0.3,0l-0.3,0l-0.3,0l-0.3,0l-0.3,0l-0.3,0l-0.3,0l-0.3,0l-0.3,0
	c-0.1,0-0.2,0-0.2,0c0,0-0.1,0.1-0.1,0.2c0,0.1-0.1,0.1-0.1,0.2c0,0.1,0,0.2,0.1,0.3c0.1,0.1,0.1,0.1,0.2,0.2c0,0.1,0,0.1,0.1,0.2
	s0,0.2,0.1,0.3c0,0.1,0,0.2,0.1,0.3c0,0.1,0,0.2,0,0.3c0,0.1,0,0.2,0,0.3c0,0.1,0,0.2,0,0.3c0,0.1,0,0.2,0,0.3v0.3
	c0,0.1,0,0.2,0,0.3v0.6c0,0.1,0,0.1,0,0.3v0.3c0,0.1,0,0.1,0,0.3c0,0.1,0,0.1,0,0.3s0,0.1,0,0.3v1.9c0,0.1,0,0.1,0,0.3
	c0,0.1,0,0.1,0,0.3v0.6c0,0.1,0,0.1,0,0.3c0,0.1,0,0.1,0,0.3c0,0.1-0.1,0.2-0.2,0.2c-0.1,0-0.2-0.1-0.2-0.1
	c-0.1-0.1-0.1-0.1-0.1-0.2c-0.1-0.1-0.1-0.1-0.2-0.2c-0.1-0.1-0.1-0.2-0.1-0.3c0-0.1-0.1-0.2-0.1-0.2c-0.1-0.1-0.1-0.1-0.2-0.2
	c0-0.1,0-0.1-0.1-0.2c-0.1-0.1-0.1-0.1-0.2-0.2c-0.1-0.1-0.1-0.1-0.1-0.2c0-0.1-0.1-0.2-0.1-0.2c-0.1-0.1-0.1-0.1-0.1-0.2
	c-0.1-0.1-0.1-0.1-0.1-0.2c-0.1-0.1-0.1-0.1-0.2-0.2s0-0.1-0.1-0.2l-0.1-0.3c-0.1-0.1-0.1-0.1-0.2-0.2c0-0.1-0.1-0.2-0.1-0.2
	c-0.1-0.1-0.1-0.1-0.1-0.2C193,7.1,193,7.1,192.9,7c0-0.1-0.1-0.1-0.1-0.2c0-0.1-0.1-0.2-0.1-0.2c0-0.1-0.1-0.2-0.1-0.2
	c-0.1-0.1-0.1-0.1-0.1-0.2c-0.1-0.1,0-0.1-0.1-0.3c0-0.1-0.1-0.2-0.1-0.2c-0.1-0.1-0.1-0.1-0.2-0.2c0-0.1,0-0.1-0.1-0.2
	c-0.1-0.1-0.1-0.1-0.2-0.2c0-0.1-0.1-0.1-0.1-0.2c0-0.1-0.1-0.2-0.1-0.2c-0.1-0.1-0.1-0.1-0.1-0.2c-0.1-0.1-0.1-0.1-0.1-0.2
	c-0.1-0.1-0.1-0.1-0.1-0.2c-0.1-0.1-0.1-0.1-0.2-0.2s-0.1-0.1-0.1-0.2c-0.1-0.1-0.1-0.1-0.1-0.2c-0.1-0.1,0-0.1-0.1-0.3
	c0-0.1-0.1-0.2-0.1-0.2c-0.1-0.1-0.1-0.1-0.2-0.2c0,0-0.1-0.1-0.1-0.1c0-0.1-0.1-0.1-0.2-0.1c-0.1,0-0.1-0.1-0.2-0.1l-0.3,0l-0.3,0
	l-0.3,0l-0.2,0l-0.3,0l-0.3,0c-0.1,0-0.1,0-0.3,0s-0.1-0.1-0.3-0.1s-0.1,0-0.3,0s-0.1-0.1-0.2-0.1l-0.3,0l-0.3,0l-0.3,0
	c-0.1,0-0.1,0-0.3,0s-0.1-0.1-0.3-0.1l-0.3,0c-0.1,0-0.1,0-0.2,0.1c-0.1,0-0.1,0.1-0.2,0.1c0,0.1,0,0.1,0,0.2c0,0.1,0,0.2,0,0.3
	c0.1,0.1,0.1,0.1,0.1,0.2c0,0.1,0.1,0.2,0.1,0.2c0,0.1,0,0.2,0.1,0.3c0,0.1,0,0.2,0.1,0.3c0,0.1,0,0.2,0,0.3c0,0.1,0,0.2,0,0.3v0.3
	c0,0.1,0.1,0.2,0,0.3c0,0.1,0,0.2,0,0.3v0.3c0,0.1,0,0.2,0,0.3c0,0.1,0,0.2,0,0.3c0,0.1,0,0.1,0,0.3c0,0.1,0,0.1,0,0.3
	c0,0.1,0,0.1,0,0.3V7c0,0.1,0,0.1,0,0.3v0.3c0,0.1,0,0.1,0,0.3V8c0,0.1,0,0.1,0,0.3s0,0.1,0,0.3v0.8c0,0.1,0,0.1,0,0.2
	c0,0.1,0,0.1,0,0.3v0.3c0,0.1,0,0.1,0,0.3v0.3c0,0.1,0,0.1,0,0.3v0.3c0,0.1,0,0.1,0,0.3c0,0.1,0,0.1,0,0.3v0.5c0,0.1,0,0.1,0,0.3
	c0,0.1,0,0.1,0,0.3V13c0,0.1,0,0.1,0,0.3s0,0.1,0,0.3V14c0,0.1,0,0.1,0,0.3v0.5c0,0.1,0,0.1,0,0.3s0,0.1,0,0.3s0,0.1,0,0.3v1.3
	c0,0.1,0,0.1,0,0.3c0,0.1,0,0.1,0,0.3V18c0,0.1,0,0.1,0,0.3v0.3c0,0.1,0,0.1,0,0.3v0.5c0,0.1,0,0.1,0,0.3s0,0.1,0,0.3
	c0,0.1,0,0.1,0,0.3c0,0.1,0,0.1,0,0.3v2.8c0,0.1,0,0.1,0,0.3v0.3c0,0.1,0,0.1,0,0.3v0.8c0,0.1,0,0.2,0,0.3s0,0.2,0,0.3
	c0,0.1,0,0.2,0,0.3v0.3c0,0.1,0,0.2,0,0.3c0,0.1,0,0.2-0.1,0.3c0,0.1,0,0.2-0.1,0.3c0,0.1,0,0.2-0.1,0.2c0,0.1,0,0.2-0.1,0.3
	c0,0.1-0.1,0.1-0.1,0.2c0,0.1-0.1,0.2-0.1,0.3c0,0.1,0,0.2,0,0.2c0,0.1,0.1,0.1,0.2,0.2c0.1,0,0.2,0.1,0.2,0.1l0.3,0l0.3,0l0.3,0
	l0.3,0l0.3,0l0.3,0l0.3,0c0.1,0,0.2,0.1,0.3,0.1s0.2,0,0.3,0l0.3,0l0.3,0l0.3,0l0.3,0l0.3,0l0.3,0l0.3,0l0.3,0l0.3,0l0.3,0l0.3,0
	c0.1,0,0.2,0,0.2,0c0.1,0,0.1-0.1,0.2-0.2c0-0.1,0-0.1,0-0.2c0-0.1,0-0.2-0.1-0.2l-0.1-0.3c0,0,0-0.2-0.1-0.3
	c-0.1-0.1-0.1-0.1-0.1-0.2c-0.1-0.1-0.1-0.2-0.1-0.3c0-0.1-0.1-0.2,0-0.3c0-0.1,0-0.2,0-0.3c0-0.1,0-0.1,0-0.3c0-0.1,0-0.2,0-0.3
	v-0.8c0-0.1,0-0.2,0-0.3c0-0.1,0-0.1,0-0.3V24c0-0.1,0-0.1,0-0.2v-0.3c0-0.1,0-0.1,0-0.3s0-0.1,0-0.3c0-0.1,0-0.1,0-0.3v-0.3
	c0-0.1,0-0.1,0-0.3s0-0.1,0-0.3v-1c0-0.1,0-0.1,0-0.3c0-0.1,0-0.1,0-0.3v-1c0-0.1,0-0.1,0-0.3s0-0.1,0-0.3c0-0.1,0-0.1,0-0.3
	c0-0.1,0-0.1,0-0.3v-0.5c0-0.1,0-0.1,0-0.3c0-0.1,0-0.1,0-0.3v-0.5c0-0.1,0-0.1,0-0.3c0-0.1,0-0.1,0-0.3v-0.3c0-0.1,0-0.1,0-0.3
	v-0.3c0-0.1,0-0.1,0-0.3s0-0.1,0-0.3c0-0.1,0-0.1,0-0.3c0-0.1,0-0.1,0-0.3s0-0.1,0-0.3c0-0.1,0-0.1,0-0.3c0-0.1,0-0.1,0-0.3v-0.8
	c0-0.1,0-0.1,0-0.2c0-0.1,0-0.1,0-0.3v-0.5c0-0.1,0-0.2,0.1-0.2c0.1,0,0.2,0,0.3,0.1c0.1,0.1,0.1,0.1,0.1,0.2c0,0.1,0.1,0.1,0.1,0.2
	c0.1,0.1,0.1,0.1,0.2,0.2c0.1,0.1,0,0.1,0.1,0.2l0.1,0.3c0.1,0.1,0.1,0.1,0.2,0.2c0,0.1,0.1,0.1,0.1,0.2s0.1,0.1,0.1,0.2
	c0.1,0.1,0.1,0.1,0.1,0.2c0.1,0.1,0.1,0.1,0.1,0.2c0.1,0.1,0.1,0.1,0.2,0.2s0.1,0.1,0.1,0.2c0,0.1,0.1,0.2,0.1,0.2
	c0.1,0.1,0.1,0.2,0.2,0.2l0.1,0.3c0.1,0.1,0.1,0.1,0.2,0.2c0,0.1,0.1,0.2,0.1,0.2c0.1,0.1,0.1,0.2,0.2,0.2c0.1,0.1,0.1,0.1,0.1,0.2
	c0.1,0.1,0,0.1,0.1,0.2c0.1,0.1,0.1,0.1,0.2,0.2c0,0.1,0,0.1,0.1,0.2c0.1,0.1,0.1,0.1,0.2,0.2s0.1,0.1,0.1,0.2
	c0,0.1,0.1,0.1,0.1,0.2c0.1,0.1,0,0.1,0.1,0.3c0,0.1,0.1,0.1,0.1,0.2c0.1,0.1,0.1,0.2,0.1,0.3c0.1,0.1,0.1,0.1,0.1,0.2
	c0.1,0.1,0.1,0.2,0.2,0.2c0.1,0.1,0.1,0.1,0.1,0.2c0.1,0.1,0.1,0.1,0.1,0.2c0.1,0.1,0.1,0.1,0.1,0.2c0.1,0.1,0.1,0.1,0.2,0.2
	c0.1,0.1,0.1,0.2,0.1,0.4v0.8c0,0.1,0,0.1,0,0.3c0,0.1,0,0.1,0,0.3v1c0,0.1,0,0.1,0,0.3c0,0.1,0,0.1,0,0.3s0,0.1,0,0.3
	c0,0.1,0,0.1,0,0.3v1c0,0.1,0,0.1,0,0.3v0.3c0,0.1,0,0.2,0,0.3c0,0.1,0,0.2,0,0.3v0.5c0,0.1,0,0.2,0,0.3v0.3c0,0.1,0,0.2,0,0.3
	c0,0.1,0,0.2-0.1,0.3c0,0.1,0,0.2,0,0.3c0,0.1,0,0.2-0.1,0.3s-0.1,0.1-0.1,0.2c0,0.1-0.1,0.1-0.1,0.2c0,0.1-0.1,0.2,0,0.3v0.2
	c0,0.1,0.1,0.1,0.2,0.2c0.1,0,0.1,0.1,0.2,0.1l0.3,0l0.3,0l0.3,0l0.3,0l0.3,0l0.3,0c0.1,0,0.2,0.1,0.3,0.1s0.2,0,0.3,0l0.3,0l0.3,0
	l0.3,0l0.3,0l0.3,0l0.3,0l0.3,0l0.3,0l0.3,0l0.3,0l0.3,0l0.3,0c0.1,0,0.2,0,0.2,0c0.1,0,0.1-0.1,0.2-0.2c0-0.1,0-0.1,0-0.2
	c0-0.1,0-0.2-0.1-0.2l-0.1-0.3c0,0,0-0.2-0.1-0.3c-0.1-0.1-0.1-0.1-0.1-0.2c0-0.1,0-0.2-0.1-0.3c0-0.1,0-0.2,0-0.3
	c0-0.1,0-0.2,0-0.3s0-0.2,0-0.3v-0.3c0-0.1,0-0.2,0-0.3v-0.5c0-0.1,0-0.2,0-0.3s0-0.1,0-0.3V24c0-0.1,0-0.1,0-0.3v-0.3
	c0-0.1,0-0.1,0-0.3s0-0.1,0-0.3v-0.2c0-0.1,0-0.1,0-0.3v-1.3c0-0.1,0-0.1,0-0.3s0-0.1,0-0.3v-0.3c0-0.1,0-0.1,0-0.3s0-0.1,0-0.3
	c0-0.1,0-0.1,0-0.3v-0.3c0-0.1,0-0.1,0-0.3v-0.5c0-0.1,0-0.1,0-0.3s0-0.1,0-0.3v-3.4c0-0.1,0-0.1,0-0.3s0-0.1,0-0.3v-1.3
	c0-0.1,0-0.1,0-0.3v-0.3c0-0.1,0-0.1,0-0.3v-1.3c0-0.1,0-0.1,0-0.3s0-0.1,0-0.3V8.6c0-0.1,0-0.1,0-0.3c0-0.1,0-0.1,0-0.3
	c0-0.1,0-0.1,0-0.3V7.6c0-0.1,0-0.1,0-0.3c0-0.1,0-0.1,0-0.3c0-0.1,0-0.1,0-0.3V5.7z M226.1,27.4l-0.2,0.2c-0.1,0.1-0.2,0.1-0.2,0.2
	l-0.2,0.2l-0.2,0.2c-0.1,0.1-0.1,0.1-0.2,0.2c-0.1,0-0.2,0.1-0.2,0.2c-0.1,0-0.2,0.1-0.2,0.1l-0.2,0.2c-0.1,0-0.2,0-0.3,0.1
	c-0.1,0-0.1,0.1-0.2,0.2c-0.1,0-0.2,0-0.2,0.1l-0.3,0.1c0,0-0.1,0-0.2,0.1c-0.1,0-0.2,0.1-0.2,0.1c-0.1,0-0.2,0-0.3,0l-0.3,0.1
	c-0.1,0-0.2,0-0.2,0.1c-0.1,0-0.2,0-0.3,0c-0.1,0-0.2,0-0.3,0.1c-0.1,0-0.2,0-0.3,0.1c-0.1,0-0.2,0-0.3,0l-0.3,0c-0.1,0-0.1,0-0.2,0
	c-0.1,0-0.2,0-0.3,0.1l-0.3,0c-0.1,0-0.2,0-0.3,0s-0.2,0-0.3,0l-0.3,0c-0.1,0-0.2,0-0.3,0c-0.1,0-0.2-0.1-0.3-0.1l-0.3,0
	c-0.1,0-0.2,0-0.3,0l-0.3,0c-0.1,0-0.1,0-0.3,0s-0.1-0.1-0.3-0.1l-0.3,0l-0.3,0l-0.3,0l-0.3,0l-0.3,0l-0.3,0l-0.3,0l-0.3,0l-0.3,0
	l-0.3,0l-0.3,0l-0.3,0l-0.3,0l-0.3,0l-0.3,0l-0.3,0c-0.1,0-0.2,0-0.2-0.1c-0.1-0.1-0.1-0.1-0.1-0.2c0-0.1-0.1-0.1-0.1-0.2
	c0-0.1,0-0.2,0.1-0.2c0-0.1,0-0.2,0.1-0.3l0.1-0.3c0.1-0.1,0.1-0.1,0.1-0.2c0-0.1,0-0.2,0.1-0.3c0-0.1,0-0.2,0-0.3
	c0-0.1,0.1-0.2,0-0.3c0-0.1,0-0.2,0-0.3c0-0.1,0-0.2,0-0.3c0-0.1,0.1-0.2,0-0.3v-0.3c0-0.1,0-0.2,0-0.3v-0.8c0-0.1,0-0.1,0-0.3v-0.3
	c0-0.1,0-0.1,0-0.3v-1c0-0.1,0-0.1,0-0.3v-0.3c0-0.1,0-0.1,0-0.3s0-0.1,0-0.3s0-0.1,0-0.3c0-0.2,0-0.2,0-0.3c0-0.1,0-0.1,0-0.3
	s0-0.1,0-0.3c0-0.1,0-0.1,0-0.3c0-0.1,0-0.1,0-0.3v-0.5c0-0.1,0-0.1,0-0.3v-0.5c0-0.1,0-0.1,0-0.3c0-0.1,0-0.1,0-0.3v-0.5
	c0-0.1,0-0.1,0-0.3v-0.8c0-0.1,0-0.1,0-0.3s0-0.1,0-0.3v-0.3c0-0.1,0-0.1,0-0.3v-0.3c0-0.1,0-0.1,0-0.3v-0.3c0-0.1,0-0.1,0-0.3
	s0-0.1,0-0.3v-0.5c0-0.1,0-0.1,0-0.3c0-0.1,0-0.1,0-0.3c0-0.1,0-0.1,0-0.3s0-0.1,0-0.3s0-0.1,0-0.3c0-0.1,0-0.1,0-0.3v-1.3
	c0-0.1,0-0.1,0-0.3v-0.3c0-0.1,0-0.1,0-0.3c0-0.1,0-0.1,0-0.3V9.3c0-0.1,0-0.1,0-0.3V8.8c0-0.1,0-0.1,0-0.3V8.2c0-0.1,0-0.1,0-0.3
	c0-0.1,0-0.1,0-0.3s0-0.1,0-0.3c0-0.1,0-0.1,0-0.3c0-0.1,0-0.2,0-0.3V5.8c0-0.1-0.1-0.2,0-0.3c0-0.1-0.1-0.2-0.1-0.3
	c0-0.1,0-0.2,0-0.3c0-0.1,0-0.2-0.1-0.2c0-0.1,0-0.2,0-0.3c0-0.1-0.1-0.1-0.1-0.2c0-0.1-0.1-0.2-0.1-0.2c-0.1-0.1-0.1-0.2-0.1-0.3
	c0-0.1,0-0.1,0-0.2c0-0.1,0.1-0.1,0.2-0.2c0.1,0,0.1,0,0.2,0l0.3,0l0.3,0l0.3,0l0.3,0l0.3,0l0.3,0l0.3,0l0.3,0l0.3,0l0.3,0
	c0.1,0,0.1,0.1,0.3,0.1s0.1,0,0.3,0l0.3,0c0.1,0,0.1,0.1,0.3,0.1s0.1,0,0.3,0l0.3,0l0.3,0l0.3,0l0.3,0l0.3,0l0.3,0
	c0.1,0,0.2,0.1,0.3,0.1l0.3,0c0.1,0,0.2,0.1,0.3,0.1c0.1,0,0.2,0,0.3,0.1l0.3,0c0.1,0,0.2,0,0.3,0.1c0.1,0,0.2,0.1,0.3,0.1
	c0.1,0,0.2,0,0.3,0.1c0.1,0,0.2,0,0.2,0.1c0.1,0,0.2,0.1,0.3,0.1s0.2,0.1,0.3,0.1c0.1,0,0.2,0.1,0.3,0.1c0.1,0,0.2,0,0.2,0.1
	c0.1,0,0.2,0.1,0.3,0.1c0.1,0,0.2,0.1,0.3,0.1s0.1,0.1,0.2,0.1c0.1,0.1,0.2,0.1,0.3,0.1c0.1,0,0.1,0.1,0.2,0.1c0.1,0,0.2,0,0.3,0.1
	c0.1,0.1,0.1,0.1,0.2,0.1c0.1,0,0.2,0.1,0.2,0.1c0.1,0.1,0.2,0.1,0.2,0.2c0.1,0,0.2,0.1,0.2,0.1c0.1,0,0.2,0.1,0.2,0.1
	c0.1,0.1,0.2,0.1,0.2,0.2c0.1,0.1,0.1,0.1,0.2,0.1c0.1,0.1,0.1,0.2,0.2,0.2s0.1,0.1,0.2,0.2c0,0.1,0.1,0.1,0.2,0.2l0.2,0.2
	c0.1,0.1,0.2,0.1,0.2,0.2c0.1,0.1,0.1,0.1,0.1,0.2c0.1,0.1,0.1,0.1,0.2,0.2c0,0.1,0.1,0.2,0.1,0.2c0.1,0.1,0.1,0.2,0.2,0.2
	c0.1,0.1,0.1,0.1,0.1,0.2c0,0.1,0.1,0.1,0.2,0.2c0,0.1,0.1,0.2,0.1,0.2c0,0.1,0,0.2,0.1,0.3c0.1,0.1,0.1,0.1,0.1,0.2
	c0,0.1,0.1,0.1,0.1,0.2s0,0.2,0.1,0.3c0.1,0.1,0.1,0.1,0.1,0.2c0.1,0.1,0.1,0.2,0.1,0.3c0,0.1,0.1,0.2,0.1,0.2c0,0.1,0,0.2,0.1,0.3
	c0,0.1,0,0.2,0.1,0.3c0,0.1,0,0.1,0,0.2c0,0.1,0,0.2,0.1,0.3c0,0.1,0,0.2,0.1,0.3c0,0.1,0,0.2,0,0.3c0,0.1,0.1,0.1,0.1,0.2
	c0,0.1,0.1,0.2,0,0.3c0,0.1,0,0.2,0,0.3c0,0.1,0,0.2,0.1,0.3v0.3c0,0.1,0.1,0.2,0,0.3c0,0.1,0,0.2,0,0.3c0,0.1,0,0.2,0,0.3
	c0,0.1,0,0.1,0,0.2v0.5c0,0.1,0.1,0.2,0.1,0.3c0,0.1,0,0.2,0,0.3v0.5c0,0.1,0,0.2,0,0.3v0.3c0,0.1,0,0.2,0,0.3c0,0.1,0,0.2,0,0.3
	c0,0.1,0,0.2,0,0.3s0,0.2,0,0.3h0l0,0.3c0,0.1,0,0.2,0,0.3s0,0.2,0,0.3c0,0.1,0,0.2,0,0.3v0.5c0,0.1,0,0.2,0,0.3v0.5
	c0,0.1,0,0.2,0,0.3s0,0.2,0,0.3c0,0.1,0,0.2,0,0.3c0,0.1,0,0.2,0,0.3c0,0.1,0,0.1,0,0.2c0,0.1,0,0.2,0,0.3c0,0.1,0,0.2,0,0.3v0.3
	c-0.1,0.1-0.1,0.2-0.1,0.3c0,0.1-0.1,0.2,0,0.3c0,0.1,0,0.2-0.1,0.3c0,0.1,0,0.2,0,0.3c0,0.1,0,0.1,0,0.2c0,0.1,0,0.2-0.1,0.3
	c0,0.1,0,0.2,0,0.3c0,0.1-0.1,0.1-0.1,0.2c0,0.1,0,0.2,0,0.3c0,0.1,0,0.2-0.1,0.3s-0.1,0.1-0.1,0.2c0,0.1,0,0.2-0.1,0.3
	c0,0.1,0,0.2-0.1,0.2l-0.1,0.3c0,0.1,0,0.2-0.1,0.2c0,0.1-0.1,0.1-0.1,0.2c0,0.1,0,0.2-0.1,0.3c0,0.1-0.1,0.1-0.2,0.2
	s-0.1,0.1-0.1,0.2c0,0.1-0.1,0.1-0.1,0.2s-0.1,0.1-0.1,0.2c0,0.1-0.1,0.1-0.2,0.2c0,0-0.1,0.1-0.2,0.2c-0.1,0.1-0.1,0.1-0.2,0.2
	C226.3,27.3,226.2,27.4,226.1,27.4z M224.1,16c0-0.1,0-0.2,0-0.3s0-0.2,0-0.3v-0.5c0-0.1,0-0.2,0-0.3v-0.3c0-0.1,0-0.2-0.1-0.3v-0.2
	c0-0.1,0-0.2,0-0.3c0-0.1,0-0.2,0-0.3v-0.3c0-0.1-0.1-0.2-0.1-0.3c0-0.1,0-0.2,0-0.3c0-0.1,0-0.2,0-0.3c0-0.1,0-0.2-0.1-0.3
	c0-0.1-0.1-0.1-0.1-0.2c0-0.1,0-0.2-0.1-0.3c0-0.1,0-0.2-0.1-0.2c0-0.1,0-0.2-0.1-0.3c0-0.1,0-0.2-0.1-0.3s-0.1-0.1-0.1-0.2
	c0-0.1,0-0.2-0.1-0.3c-0.1-0.1-0.1-0.1-0.1-0.2c-0.1-0.1-0.1-0.1-0.1-0.2c0-0.1-0.1-0.2-0.2-0.2c0,0,0-0.1-0.1-0.2
	c0,0-0.1-0.1-0.1-0.2L221.8,9l-0.2-0.2c-0.1-0.1-0.2-0.1-0.2-0.1c-0.1,0-0.1-0.1-0.2-0.1s-0.1-0.1-0.2-0.2c-0.1,0-0.2-0.1-0.2-0.1
	l-0.3-0.1c-0.1,0-0.2-0.1-0.3-0.1C220.1,8,220,8,219.9,8c-0.1,0-0.2-0.1-0.3-0.1c-0.1,0-0.2,0-0.2-0.1l-0.3,0c-0.1,0-0.2,0-0.3,0
	c0,0-0.2,0.1-0.2,0.1c-0.1,0.1-0.1,0.1-0.1,0.2c-0.1,0.1-0.1,0.2-0.1,0.3V9c0,0.1,0,0.1,0,0.3v0.3c0,0.1,0,0.1,0,0.3v0.8
	c0,0.1,0,0.1,0,0.3s0,0.1,0,0.3v1.1c0,0.1,0,0.1,0,0.3v0.3c0,0.1,0,0.1,0,0.3c0,0.1,0,0.1,0,0.3c0,0.1,0,0.1,0,0.3v0.5
	c0,0.1,0,0.1,0,0.3v0.3c0,0.1,0,0.1,0,0.3c0,0.1,0,0.1,0,0.3v0.6c0,0.1,0,0.1,0,0.3c0,0.1,0,0.1,0,0.3s0,0.1,0,0.3v0.3
	c0,0.1,0,0.1,0,0.3l0,0c0,0.1,0,0.1,0,0.3s0,0.1,0,0.3c0,0.1,0,0.1,0,0.3c0,0.1,0,0.1,0,0.3v0.3c0,0.1,0,0.1,0,0.3v0.3
	c0,0.1,0,0.1,0,0.3v0.3c0,0.1,0,0.1,0,0.3v0.3c0,0.1,0,0.1,0,0.3s0,0.1,0,0.3c0,0.1,0,0.1,0,0.3s0,0.1,0,0.3c0,0.1,0,0.1,0,0.3
	c0,0.1,0,0.1,0,0.3v1c0,0.1,0,0.1,0,0.3v0.3c0,0.1,0,0.1,0,0.3v0.3c0,0.2,0,0.2,0,0.3s0,0.1,0,0.3V25c0,0.1,0,0.2,0.1,0.3
	c0,0.1,0.1,0.2,0.1,0.2l0.3,0.1c0.1,0,0.2,0,0.3,0.1l0.3,0c0.1,0,0.2,0,0.2,0c0.1,0,0.2,0,0.3,0s0.2,0,0.3,0c0.1,0,0.2,0,0.3,0
	c0.1,0,0.2-0.1,0.2-0.1l0.3-0.1c0.1,0,0.2,0,0.2-0.1c0.1,0,0.2-0.1,0.2-0.1c0.1-0.1,0.1-0.1,0.2-0.2l0.2-0.2l0.2-0.2
	c0.1-0.1,0.1-0.1,0.1-0.2c0,0,0.1-0.1,0.2-0.2c0-0.1,0.1-0.1,0.1-0.2c0.1-0.1,0.1-0.1,0.1-0.2l0.1-0.3c0-0.1,0.1-0.1,0.1-0.2
	c0,0,0-0.1,0.1-0.2l0.1-0.3c0-0.1,0-0.2,0-0.2l0.1-0.3c0-0.1,0-0.2,0-0.3c0-0.1,0-0.2,0.1-0.3c0-0.1,0-0.1,0-0.2
	c0-0.1,0-0.2,0.1-0.3c0-0.1,0-0.2,0-0.3c0-0.1,0-0.2,0-0.3c0-0.1,0-0.2,0.1-0.3v-0.2c0-0.1,0.1-0.2,0-0.3c0-0.1,0-0.2,0-0.3
	c0-0.1,0-0.2,0-0.3c0-0.1,0.1-0.2,0-0.3c0-0.1,0-0.2,0-0.3v-0.3c0-0.1,0-0.2,0-0.3v-2.4C224,16.2,224.1,16.1,224.1,16z M267.7,20.2
	l0.3,0.1c0.1,0,0.2,0,0.3,0l0.3,0.1c0,0,0.2,0.1,0.2,0.1c0.1,0.1,0.1,0.1,0.2,0.1c0.1,0,0.1,0,0.2-0.1c0.1-0.1,0.3-0.2,0.3-0.3
	c0-0.1,0-0.2,0-0.3s0-0.2,0-0.3s0-0.2,0-0.3s0-0.2,0-0.3c0-0.1,0-0.2,0-0.3s0-0.2,0-0.3c0-0.1,0-0.2,0-0.3v-0.3c0-0.1,0-0.2,0-0.3
	v-0.3c0-0.1,0-0.1,0-0.2v-1.8c0-0.1,0-0.2,0-0.2c-0.1-0.1-0.1-0.1-0.2-0.2c-0.1,0-0.2,0-0.2,0c-0.1,0-0.2,0-0.2,0l-0.3,0.1
	c-0.1,0.1-0.1,0.1-0.2,0.1c-0.1,0-0.2,0.1-0.3,0.1c-0.1,0-0.2,0-0.3,0.1c-0.1,0-0.2,0-0.3,0c-0.1,0-0.2,0-0.3,0s-0.2,0-0.3,0
	c-0.1,0-0.2,0-0.3,0c-0.1,0-0.2,0.1-0.3,0h-0.3h-0.3h-0.3c-0.1,0-0.1,0-0.2,0c-0.1,0-0.1,0-0.2,0h-0.2c-0.1,0-0.2,0-0.3,0
	c-0.1,0-0.2-0.1-0.2-0.1c-0.1,0-0.1-0.1-0.1-0.2c0-0.1-0.1-0.2,0-0.3v-0.3c0-0.1,0-0.1,0-0.3v-0.8c0-0.1,0-0.1,0-0.3
	c0-0.1,0-0.1,0-0.3c0-0.1,0-0.1,0-0.3v-0.3c0-0.1,0-0.1,0-0.3s0-0.1,0-0.3v-0.5c0-0.1,0-0.1,0-0.3s0-0.1,0-0.3s0-0.1,0-0.3v-0.3
	c0-0.1,0-0.1,0-0.3s0-0.1,0-0.3c0-0.1,0-0.1,0.1-0.2c0.1-0.2,0.2-0.3,0.4-0.3c0.1,0,0.2-0.1,0.3,0c0.1,0,0.1,0,0.2,0s0.1,0,0.3,0
	h0.3h0.3h0.2h0.3h0.3h0.3h0.2c0.1,0,0.1,0,0.3,0h0.3h0.3c0.1,0,0.2,0,0.3,0h0.3h0.3c0.1,0,0.2,0,0.2,0c0.1,0,0.2,0,0.3,0
	c0.1,0,0.2,0,0.3,0c0.1,0,0.2,0,0.3,0c0.1,0,0.2,0,0.3,0.1c0.1,0,0.2,0,0.3,0c0.1,0,0.1,0,0.2,0.1l0.3,0.1c0,0,0.1,0,0.2,0.1
	c0.1,0,0.1,0.1,0.2,0.1c0.1,0,0.2,0,0.2-0.1c0.1,0,0.1-0.1,0.1-0.1c0-0.1,0-0.2,0-0.2c0-0.1,0-0.2,0-0.3c0-0.1,0-0.2,0-0.3
	c0-0.1,0-0.2-0.1-0.3V8.7c0-0.1,0-0.2-0.1-0.3c0-0.1,0-0.2,0-0.3S271.2,8,271.2,8c0-0.1,0-0.1,0-0.2c0-0.1,0-0.2,0-0.3
	c0-0.1-0.1-0.2,0-0.3c0-0.1,0-0.1,0-0.2C271,6.9,271,6.8,271,6.7c0-0.1,0-0.2,0-0.3c-0.1-0.1-0.1-0.2-0.1-0.3c0-0.1,0-0.2,0-0.3
	c0-0.1,0-0.2,0-0.3c0-0.1-0.1-0.2-0.1-0.2c-0.1-0.1-0.1-0.2-0.2-0.2c-0.1,0-0.2-0.1-0.3,0c-0.1,0-0.2,0-0.3,0c-0.1,0-0.2,0-0.3,0
	c-0.1,0-0.2,0-0.3,0c-0.1,0-0.2,0-0.2,0c-0.1,0-0.2,0.1-0.3,0h-0.3h-0.3H268h-0.3h-0.3h-0.3h-0.3h-0.3h-0.3H266h-0.2h-0.3h-0.3H265
	h-0.3c-0.1,0-0.2,0-0.3,0s-0.2,0-0.3,0h-0.3h-0.3h-0.3h-0.2h-0.3h-0.3h-0.3H262h-0.3h-0.3h-0.3h-0.3h-0.3h-0.2h-0.3h-0.3l-0.3,0
	h-0.3l-0.3,0l-0.3,0l-0.3,0c-0.1,0-0.2,0-0.2,0c-0.1,0.1-0.1,0.1-0.1,0.2c0,0-0.1,0.1-0.1,0.2c0,0.1,0,0.2,0.1,0.3
	c0.1,0.1,0.1,0.1,0.1,0.2c0,0.1,0,0.2,0.1,0.3s0.1,0.1,0.1,0.2c0,0.1,0,0.2,0,0.3c0,0.1,0.1,0.2,0,0.3c0,0.1,0.1,0.2,0,0.3
	c0,0.1,0,0.2,0,0.3c0,0.1,0,0.2,0,0.3v0.3c0,0.1,0,0.2,0,0.3s0,0.2,0,0.3c0,0.1,0,0.2,0,0.3v0.3c0,0.1,0,0.1,0,0.3v0.3
	c0,0.1,0,0.1,0,0.3c0,0.1,0,0.1,0,0.3v0.3c0,0.1,0,0.1,0,0.3c0,0.1,0,0.1,0,0.3c0,0.1,0,0.1,0,0.3c0,0.1,0,0.1,0,0.3V12
	c0,0.1,0,0.1,0,0.3s0,0.1,0,0.3v0.3c0,0.1,0,0.1,0,0.2c0,0.1,0,0.1,0,0.3c0,0.1,0,0.1,0,0.3c0,0.1,0,0.1,0,0.3v0.8
	c0,0.1,0,0.1,0,0.3c0,0.1,0,0.1,0,0.3v0.5c0,0.1,0,0.1,0,0.3v0.3c0,0.1,0,0.1,0,0.3v0.3c0,0.1,0,0.1,0,0.3v0.3c0,0.1,0,0.1,0,0.3
	s0,0.1,0,0.3s0,0.1,0,0.3v0.3c0,0.1,0,0.1,0,0.3v0.5c0,0.1,0,0.1,0,0.3s0,0.1,0,0.3c0,0.1,0,0.1,0,0.3v0.3c0,0.1,0,0.1,0,0.3v0.3
	c0,0.1,0,0.1,0,0.3c0,0.1,0,0.1,0,0.3v0.3c0,0.1,0,0.1,0,0.3c0,0.1,0,0.1,0,0.3v2.4c0,0.1,0,0.1,0,0.3c0,0.1,0,0.1,0,0.3v0.3
	c0,0.1,0,0.1,0,0.3v0.3c0,0.1,0,0.1,0,0.3s0,0.1,0,0.3s0,0.1,0,0.3c0,0.1,0,0.1,0,0.2c0,0.1,0,0.1,0,0.3v0.5c0,0.1,0,0.1,0,0.3
	c0,0.1,0,0.2,0,0.3s0,0.2,0,0.3s0,0.2,0,0.3c0,0.1-0.1,0.2,0,0.3V29c0,0.1,0,0.2,0,0.3c0,0.1-0.1,0.2-0.1,0.3c0,0.1,0,0.2,0,0.3
	c0,0.1,0,0.2,0,0.3c0,0.1-0.1,0.2-0.1,0.2c0,0.1,0,0.2-0.1,0.3l-0.1,0.3c-0.1,0.1-0.1,0.1-0.1,0.2c0,0.1,0,0.2,0,0.2
	c0,0.1,0.1,0.1,0.2,0.1c0.1,0.1,0.1,0.1,0.2,0.2l0.3,0h0.3l0.3,0l0.3,0h0.3h0.3l0.3,0h0.3h0.3h0.3h0.3h0.3h0.3h0.3h0.3h0.3h0.3h0.3
	h0.3h0.3h0.3c0.1,0,0.2,0,0.2,0c0,0,0.1-0.1,0.2-0.2c0-0.1,0-0.1,0-0.2c0-0.1,0-0.2-0.1-0.2l-0.1-0.3c0-0.1-0.1-0.1-0.1-0.2
	s0-0.2-0.1-0.3c0-0.1,0-0.2,0-0.3c0-0.1,0-0.2,0-0.3s0-0.2,0-0.3c0-0.1,0-0.2,0-0.3s0-0.2,0-0.3v-0.3c0-0.1,0-0.2,0-0.3s0-0.2,0-0.3
	V27c0-0.1,0-0.1,0-0.3v-0.3c0-0.1,0-0.1,0-0.3v-0.5c0-0.1,0-0.1,0-0.3v-0.3c0-0.1,0-0.1,0-0.3v-1.6c0-0.1,0-0.1,0-0.3s0-0.1,0-0.3
	V22c0-0.1,0-0.1,0-0.3v-1.1c0-0.1,0-0.2,0.1-0.3c0-0.1,0.1-0.2,0.1-0.2c0.1-0.1,0.1-0.1,0.2-0.1c0.1,0,0.2-0.1,0.3,0
	c0.1,0,0.1,0,0.2,0h0.2h0.2h0.3c0.1,0,0.2,0,0.3,0h0.3c0.1,0,0.2,0,0.3,0h0.3h0.3c0.1,0,0.2,0.1,0.3,0
	C267.5,20.2,267.6,20.2,267.7,20.2z M287.7,10.4v-0.3c0-0.1,0-0.2,0-0.2c0-0.1,0.1-0.2,0.1-0.2c0.1,0,0.1-0.1,0.2-0.1
	c0.1,0,0.2-0.1,0.3-0.1l0.3,0l0.3,0l0.3,0c0.1,0,0.1,0,0.3-0.1s0.1,0,0.3,0c0.1,0,0.1-0.1,0.3-0.1l0.3,0l0.3,0l0.3,0l0.3,0l0.3,0
	c0.1,0,0.1,0,0.3,0l0.3,0c0.1,0,0.2-0.1,0.3,0l0.3,0l0.3,0l0.3,0c0.1,0,0.2,0,0.3,0c0.1,0,0.2,0,0.2,0c0.1,0,0.2,0,0.3,0.1
	c0.1,0,0.2-0.1,0.3,0c0.1,0,0.2,0,0.3,0.1c0.1,0,0.2,0,0.3,0.1c0,0,0.1,0.1,0.2,0.1c0.1,0,0.2,0.1,0.2,0.1c0.1,0,0.1,0.1,0.2,0.1
	c0.1,0,0.2,0,0.3-0.1c0,0,0.1-0.1,0.1-0.1c0-0.1,0-0.1,0-0.2c0-0.1,0-0.2-0.1-0.3c0-0.1,0-0.2,0-0.3c0-0.1,0-0.2-0.1-0.3V8.4
	c0-0.1,0-0.2-0.1-0.3c0-0.1,0-0.2,0-0.3c0-0.1,0-0.2-0.1-0.3c0-0.1,0-0.1,0-0.2c0-0.1-0.1-0.2,0-0.3c0-0.1-0.1-0.2,0-0.3
	c-0.1-0.1-0.1-0.2-0.1-0.3c0-0.1,0-0.2,0-0.3c0-0.1-0.1-0.2,0-0.3c0-0.1,0-0.2-0.1-0.3c0-0.1,0-0.2,0-0.3c0-0.1,0-0.2,0-0.3
	c0-0.1-0.1-0.1-0.1-0.2c0-0.1-0.1-0.1-0.2-0.2c-0.1,0-0.2-0.1-0.3-0.1c-0.1,0-0.2,0-0.3,0c-0.1,0-0.2,0.1-0.3,0.1
	c-0.1,0-0.2,0.1-0.2,0.1c-0.1,0-0.2,0.1-0.3,0.1c-0.1,0-0.2,0-0.3,0.1l-0.3,0c-0.1,0-0.2,0.1-0.3,0.1c-0.1,0-0.2,0-0.3,0l-0.3,0
	l-0.3,0c-0.1,0-0.2,0.1-0.3,0.1c-0.1,0-0.2,0-0.3,0l-0.3,0l-0.3,0l-0.3,0l-0.3,0l-0.3,0l-0.3,0c-0.1,0-0.2,0.1-0.3,0.1s-0.2,0-0.3,0
	l-0.3,0l-0.3,0l-0.3,0l-0.2,0l-0.3,0l-0.3,0l-0.3,0l-0.3,0l-0.3,0l-0.3,0l-0.3,0l-0.3,0l-0.3,0l-0.3,0c-0.1,0-0.2,0-0.3,0
	s-0.2,0-0.3,0l-0.3,0l-0.3,0h-0.3l-0.3,0H283h-0.3h-0.3h-0.3c-0.1,0-0.2,0-0.2,0.1l-0.1,0.1c0,0.1-0.1,0.1-0.1,0.2
	c0,0.1,0,0.2,0.1,0.3c0.1,0.1,0.1,0.1,0.1,0.2c0,0.1,0.1,0.2,0.1,0.2c0,0.1,0.1,0.2,0,0.3l0.1,0.3c0,0.1,0,0.2,0,0.3v0.3
	c0,0.1,0.1,0.2,0,0.3c0,0.1,0,0.2,0,0.3v1.1c0,0.1,0,0.1,0,0.3v0.8c0,0.1,0,0.1,0,0.3c0,0.1,0,0.1,0,0.3v0.5c0,0.1,0,0.1,0,0.3v0.5
	c0,0.1,0,0.1,0,0.3v3.1c0,0.1,0,0.1,0,0.3c0,0.1,0,0.1,0,0.3v0.5c0,0.1,0,0.1,0,0.3s0,0.1,0,0.3v0.5c0,0.1,0,0.1,0,0.3v0.3
	c0,0.1,0,0.1,0,0.3s0,0.1,0,0.3c0,0.1,0,0.1,0,0.3v0.3c0,0.1,0,0.1,0,0.3v0.5c0,0.1,0,0.1,0,0.3v1c0,0.1,0,0.1,0,0.3s0,0.1,0,0.3V22
	c0,0.1,0,0.1,0,0.3s0,0.1,0,0.3v1.8c0,0.1,0,0.1,0,0.3v0.5c0,0.1,0,0.1,0,0.3c0,0.1,0,0.1,0,0.3c0,0.1,0,0.1,0,0.3v1.5
	c0,0.1,0,0.1,0,0.3c0,0.1,0,0.2,0,0.3s0,0.2,0,0.3v0.8c0,0.1,0,0.2,0,0.3c0,0.1,0,0.2,0,0.3c0,0.1,0,0.2-0.1,0.3c0,0.1,0,0.2,0,0.3
	c0,0.1,0,0.2-0.1,0.3s-0.1,0.1-0.1,0.2l-0.1,0.3c0,0,0,0.1-0.1,0.2c0,0.1,0,0.2,0.1,0.2c0,0,0.1,0.1,0.1,0.2c0.1,0,0.2,0,0.2,0
	l0.3,0l0.3,0h0.3h0.3l0.3,0h0.3l0.3,0l0.3,0l0.3,0h0.2l0.3,0l0.3,0l0.3,0l0.3,0l0.3,0l0.3,0l0.3,0l0.3,0l0.3,0l0.3,0l0.2,0l0.3,0
	l0.3,0l0.3,0l0.3,0l0.3,0l0.3,0l0.3,0l0.3,0l0.3,0l0.3,0l0.3,0l0.2,0l0.3,0l0.3,0l0.3,0c0.1,0,0.2-0.1,0.3,0c0.1,0,0.2,0,0.3,0
	l0.3,0l0.3,0l0.3,0c0.1,0,0.2,0.1,0.3,0.1c0.1,0,0.2,0,0.2,0.1l0.3,0c0.1,0,0.2-0.1,0.3-0.1c0.1,0,0.2-0.1,0.2-0.1
	c0.1-0.1,0.1-0.2,0.1-0.3c0-0.1,0-0.2,0.1-0.3c0-0.1,0-0.2,0-0.3c0-0.1,0-0.2,0-0.3c0-0.1,0.1-0.2,0-0.3c0-0.1,0-0.2,0.1-0.2
	c0-0.1,0-0.2,0-0.3c0-0.1,0-0.2,0.1-0.3c0-0.1,0-0.2,0-0.3v-0.3c0.1-0.1,0.1-0.2,0.1-0.3c0-0.1,0-0.2,0-0.3c0-0.1,0-0.2,0-0.3
	c0-0.1,0-0.2,0.1-0.3c0-0.1,0-0.2,0-0.3c0-0.1,0.1-0.2,0-0.3c0.1-0.1,0.1-0.2,0.1-0.3c0-0.1,0-0.2,0-0.2c-0.1-0.1-0.1-0.1-0.2-0.1
	c-0.1-0.1-0.1-0.1-0.2-0.1c-0.1,0-0.2,0.1-0.2,0.1c-0.1,0.1-0.1,0.1-0.2,0.1c-0.1,0-0.1,0.1-0.2,0.1c-0.1,0-0.2,0.1-0.3,0.1
	c-0.1,0-0.2,0-0.3,0.1c-0.1,0-0.2,0-0.3,0.1c-0.1,0-0.2,0-0.2,0.1c-0.1,0-0.2,0-0.3,0.1c-0.1,0-0.2,0.1-0.3,0.1l-0.3,0l-0.3,0
	l-0.3,0l-0.3,0c-0.1,0-0.2,0.1-0.3,0.1c-0.1,0-0.1,0-0.3,0c-0.1,0-0.1,0.1-0.3,0.1l-0.3,0c-0.1,0-0.1,0-0.3,0l-0.3,0l-0.3,0
	c-0.1,0-0.1,0.1-0.3,0.1l-0.2,0l-0.3,0l-0.3,0l-0.3,0c-0.1,0-0.1,0-0.3,0c-0.1,0-0.2,0-0.3,0c-0.1,0-0.2-0.1-0.2-0.2
	c0,0-0.1-0.2-0.1-0.2c0-0.1-0.1-0.1,0-0.2v-1.1c0-0.1,0-0.1,0-0.3V25c0-0.1,0-0.1,0-0.3c0-0.1,0-0.1,0-0.3s0-0.1,0-0.3v-1.3
	c0-0.1,0-0.1,0-0.3s0-0.1,0-0.3v-0.5c0-0.1,0-0.1,0-0.3c0-0.1,0-0.1,0-0.3V21c0-0.1,0-0.1,0-0.3c0-0.1,0-0.1,0-0.3v-0.3
	c0-0.1,0-0.2,0-0.2c0-0.1,0.1-0.2,0.1-0.2c0.1-0.1,0.1-0.1,0.2-0.2c0.1,0,0.2-0.1,0.3-0.1c0.1,0,0.1,0,0.3,0l0.3,0
	c0.1,0,0.1,0,0.3-0.1c0.1,0,0.1,0,0.3,0c0.1,0,0.2-0.1,0.3-0.1l0.3,0c0.1,0,0.2,0,0.3,0l0.3,0c0.1,0,0.2,0,0.3,0c0.1,0,0.2,0,0.3,0
	c0.1,0,0.2,0,0.3,0c0.1,0,0.2,0,0.3,0.1c0.1,0,0.2,0,0.3,0c0.1,0,0.2,0,0.3,0.1c0.1,0,0.1,0.1,0.2,0.1s0.2,0,0.3,0.1
	c0,0,0.1,0.1,0.2,0.1c0.1,0,0.2,0,0.2-0.1c0.1,0,0.1-0.1,0.2-0.2c0-0.1,0-0.1,0-0.2v-3.4c0-0.1,0-0.2,0-0.3s0-0.2,0-0.3V15
	c0-0.1,0-0.2,0-0.3c0,0-0.1-0.1-0.2-0.2l-0.2,0c-0.1,0-0.2,0-0.2,0.1c-0.1,0.1-0.2,0-0.3,0.1c-0.1,0.1-0.1,0.1-0.2,0.1
	c-0.1,0.1-0.2,0.1-0.3,0.1c-0.1,0-0.2,0.1-0.3,0.1c-0.1,0-0.2,0.1-0.3,0.1c-0.1,0-0.2,0-0.3,0.1c-0.1,0-0.2,0.1-0.3,0.1l-0.3,0
	c-0.1,0-0.2,0-0.3,0.1c-0.1,0-0.2,0-0.3,0c-0.1,0-0.2,0.1-0.3,0.1l-0.3,0l-0.3,0l-0.3,0l-0.3,0l-0.3,0c-0.1,0-0.2,0-0.3,0
	c-0.1,0-0.2-0.1-0.2-0.2c0,0-0.1-0.1-0.2-0.2v-1c0-0.1,0-0.1,0-0.3v-0.5c0-0.1,0-0.1,0-0.3v-0.5c0-0.1,0-0.1,0-0.3s0-0.1,0-0.3v-0.7
	c0-0.1,0-0.1,0-0.3v-0.3C287.7,10.5,287.7,10.5,287.7,10.4z M320.1,22v-0.5c0-0.1,0-0.2,0-0.3s0-0.2,0-0.3v-0.3c0-0.1-0.1-0.2,0-0.3
	c0-0.1,0-0.2-0.1-0.3c0-0.1,0-0.2,0-0.3c0-0.1,0-0.2,0-0.3c0-0.1,0-0.2-0.1-0.3c0-0.1,0-0.1,0-0.2c0-0.1,0-0.2-0.1-0.3
	c0-0.1-0.1-0.2,0-0.3c0-0.1-0.1-0.1-0.1-0.2c0-0.1,0-0.2-0.1-0.3c0-0.1-0.1-0.1-0.1-0.2c0-0.1-0.1-0.2-0.1-0.2c0-0.1,0-0.2-0.1-0.3
	c-0.1-0.1-0.1-0.1-0.2-0.2c-0.1-0.1-0.1-0.1-0.1-0.2l-0.2-0.2l-0.1-0.2c0,0-0.1-0.1-0.2-0.2c-0.1-0.1-0.1-0.1-0.2-0.2
	c0,0-0.1-0.1-0.1-0.2l-0.2-0.2l-0.2-0.2l-0.2-0.2c0-0.1-0.2-0.1-0.2-0.2c-0.1,0-0.1-0.1-0.2-0.2c0,0-0.1-0.1-0.2-0.2l-0.2-0.2
	c-0.1,0-0.2-0.1-0.2-0.1l-0.2-0.2c-0.1-0.1-0.2-0.1-0.2-0.2c0,0-0.2-0.1-0.2-0.1c-0.1-0.1-0.1-0.1-0.2-0.2c-0.1,0-0.1-0.1-0.2-0.2
	c-0.1,0-0.2-0.1-0.2-0.1c-0.1-0.1-0.1-0.1-0.2-0.2c-0.1,0-0.2-0.1-0.2-0.1c-0.1,0-0.2-0.1-0.2-0.2c-0.1,0-0.2-0.1-0.2-0.2
	c-0.1,0-0.1-0.1-0.2-0.1l-0.2-0.2c-0.1,0-0.2-0.1-0.2-0.1c-0.1,0-0.2-0.1-0.2-0.2c0,0-0.2-0.1-0.2-0.1l-0.2-0.2
	c-0.1-0.1-0.2-0.1-0.2-0.2l-0.2-0.2c0-0.1-0.1-0.1-0.2-0.2c0,0-0.1-0.1-0.2-0.2c0-0.1-0.1-0.1-0.1-0.2c-0.1-0.1-0.1-0.1-0.2-0.2
	c-0.1-0.1-0.1-0.1-0.1-0.2l-0.1-0.3c0,0,0-0.1-0.1-0.2s0-0.2-0.1-0.3c0-0.1,0-0.1-0.1-0.2v-0.3c0-0.1,0-0.2,0-0.3s0-0.2,0-0.3V9.6
	c0-0.1,0-0.2,0-0.3c0-0.1,0-0.2,0-0.3c0.1-0.1,0.1-0.2,0.1-0.3c0-0.1,0.1-0.2,0.1-0.2c0-0.1,0.1-0.2,0.1-0.2
	c0.1-0.1,0.1-0.2,0.2-0.2c0,0,0.2-0.1,0.2-0.2c0,0,0.1-0.1,0.2-0.2s0.2-0.1,0.3-0.1c0.1-0.1,0.1-0.1,0.2-0.2c0.1,0,0.2-0.1,0.3-0.1
	c0.1-0.1,0.2-0.1,0.3-0.1c0.1-0.1,0.2,0,0.3,0c0.1,0,0.2-0.1,0.3-0.1l0.3,0l0.3,0c0.1,0,0.2,0,0.3,0.1c0.1,0,0.2,0,0.2,0
	c0.1,0,0.2,0,0.3,0c0.1,0,0.2,0,0.3,0c0.1,0,0.2,0,0.3,0.1c0.1,0,0.2,0,0.3,0.1c0.1,0,0.1,0,0.2,0.1s0.2,0,0.3,0.1
	c0.1,0,0.1,0.1,0.2,0.1c0.1,0,0.2,0.1,0.2,0.1l0.3,0.1c0,0,0.1,0.1,0.2,0.2c0.1,0,0.2,0.1,0.2,0.1c0.1,0,0.1,0.1,0.2,0.2
	c0,0,0.1,0.1,0.2,0.2c0.1,0,0.1,0.1,0.2,0.1c0.1,0,0.2-0.1,0.3-0.1c0.1-0.1,0.1-0.1,0.1-0.2c0-0.1,0.1-0.2,0-0.3c0-0.1,0-0.1,0-0.3
	s0-0.1,0-0.3V6.9l-0.1-0.3V6.1c0-0.1,0-0.1,0-0.3c0-0.1,0-0.1,0-0.3V5.3c0-0.1,0-0.2,0-0.3V4.8c0-0.1,0-0.2,0-0.3V4
	c0-0.1,0-0.1,0-0.3c0-0.1-0.1-0.2,0-0.3c0-0.1,0-0.2,0-0.2c0-0.1-0.1-0.1-0.2-0.1c0,0-0.1,0-0.2,0c-0.1,0-0.2,0.1-0.2,0.1
	c0,0-0.1,0.1-0.2,0.1c-0.1,0-0.2,0.1-0.3,0.1l-0.3,0c-0.1,0-0.2,0-0.3,0c-0.1,0-0.2,0.1-0.3,0c-0.1,0-0.2,0-0.2,0l-0.3,0
	c-0.1,0-0.2,0-0.3,0c-0.1,0-0.2,0-0.3,0c-0.1,0-0.2,0-0.3,0c-0.1,0-0.2,0-0.2,0c-0.1,0-0.2,0-0.3,0l-0.3,0c-0.1,0-0.2,0-0.3,0
	c-0.1,0-0.2,0-0.3,0l-0.2,0l-0.3,0l-0.3,0l-0.3,0l-0.3,0c-0.1,0-0.2,0.1-0.3,0.1l-0.3,0c-0.1,0-0.2,0.1-0.3,0.1
	c-0.1,0-0.2,0-0.3,0.1l-0.3,0c-0.1,0.1-0.1,0.1-0.2,0.1c-0.1,0.1-0.2,0.1-0.3,0.1c-0.1,0-0.2,0-0.3,0.1c-0.1,0-0.2,0.1-0.3,0.1
	c0,0-0.1,0.1-0.2,0.1c-0.1,0.1-0.2,0.1-0.3,0.1c-0.1,0.1-0.1,0.1-0.2,0.1c-0.1,0-0.2,0.1-0.2,0.1c-0.1,0-0.2,0.1-0.2,0.2
	c-0.1,0-0.2,0.1-0.2,0.1c-0.1,0.1-0.2,0.1-0.2,0.2c-0.1,0-0.2,0.1-0.2,0.1c-0.1,0.1-0.1,0.1-0.2,0.2c-0.1,0.1-0.2,0.1-0.2,0.2
	c-0.1,0.1-0.1,0.1-0.2,0.2c-0.1,0.1-0.1,0.1-0.2,0.2c0,0-0.1,0.1-0.2,0.2c0,0,0,0.1-0.1,0.2c0,0.1-0.1,0.2-0.1,0.2
	c-0.1,0.1-0.1,0.1-0.1,0.2c0,0.1-0.1,0.1-0.1,0.2c0,0.1,0,0.2-0.1,0.3c-0.1,0.1-0.1,0.1-0.1,0.2L306.1,8c0,0.1,0,0.2-0.1,0.2
	c0,0.1,0,0.2,0,0.3c0,0.1,0,0.2,0,0.3c0,0.1-0.1,0.2,0,0.3c0,0.1,0,0.2,0,0.3c0,0.1-0.1,0.1,0,0.2c0,0.1,0,0.2,0,0.3
	c0,0.1-0.1,0.2,0,0.3c0,0.1,0,0.2,0,0.3s0,0.2,0,0.3v0.8c0,0.1,0,0.2,0,0.3c0,0.1,0,0.2,0,0.3v0.3c0,0.1,0.1,0.2,0,0.3
	c0,0.1,0,0.2,0.1,0.3c0,0.1,0,0.2,0,0.3c0,0,0,0.2,0,0.3c0.1,0.1,0.1,0.1,0.1,0.2c0.1,0.1,0.1,0.2,0.1,0.3c0,0.1,0.1,0.1,0.1,0.2
	s0,0.2,0.1,0.3s0.1,0.1,0.1,0.2c0,0.1,0.1,0.1,0.1,0.2c0,0.1,0,0.2,0.1,0.3c0.1,0.1,0.1,0.1,0.2,0.2c0.1,0.1,0.1,0.1,0.1,0.2
	c0,0,0.1,0.2,0.1,0.2s0.1,0.1,0.2,0.2c0,0.1,0.1,0.1,0.2,0.2c0,0,0.1,0.1,0.2,0.2c0,0,0.1,0.1,0.1,0.2l0.2,0.2c0,0,0.1,0.1,0.2,0.2
	s0.1,0.1,0.2,0.2c0.1,0.1,0.2,0.1,0.2,0.2s0.1,0.1,0.2,0.2c0,0,0.1,0.1,0.2,0.1c0.1,0,0.2,0.1,0.2,0.2c0.1,0.1,0.1,0.1,0.2,0.2
	c0.1,0,0.2,0.1,0.2,0.1c0.1,0,0.2,0.1,0.2,0.2c0.1,0,0.2,0.1,0.2,0.2c0.1,0,0.1,0.1,0.2,0.1s0.1,0.1,0.2,0.1s0.1,0.1,0.2,0.1
	c0.1,0,0.2,0.1,0.2,0.1c0.1,0.1,0.1,0.1,0.2,0.2c0.1,0,0.1,0.1,0.2,0.1c0.1,0,0.2,0.1,0.2,0.1c0.1,0.1,0.1,0.1,0.2,0.2
	c0.1,0,0.1,0.1,0.2,0.2l0.3,0.1l0.2,0.2c0.1,0,0.1,0.1,0.2,0.2l0.2,0.2c0,0,0.2,0.1,0.2,0.1c0.1,0.1,0.1,0.1,0.2,0.2
	c0,0,0.1,0.1,0.2,0.2c0.1,0.1,0.1,0.1,0.1,0.2c0,0,0.1,0.2,0.1,0.2c0,0,0.1,0.1,0.2,0.2l0.1,0.2c0.1,0.1,0.1,0.1,0.1,0.2
	c0.1,0.1,0.1,0.2,0.1,0.3c0,0.1,0.1,0.1,0.1,0.2c0,0.1,0,0.2,0.1,0.3v0.8c0,0.1,0,0.2,0,0.3c0,0.2-0.1,0.4-0.1,0.5
	c0,0.1,0,0.2-0.1,0.2c0,0.1,0,0.2-0.1,0.3c0,0,0,0.1-0.1,0.2s-0.1,0.1-0.1,0.2c0,0.1-0.1,0.2-0.1,0.2c0,0.1-0.1,0.2-0.2,0.2
	c0,0-0.1,0.1-0.1,0.2c-0.1,0.1-0.2,0.1-0.2,0.2c-0.1,0.1-0.1,0.1-0.2,0.2c0,0.1-0.2,0.1-0.2,0.2c0,0-0.2,0.1-0.2,0.2
	c0,0-0.2,0.1-0.2,0.2c-0.1,0.1-0.1,0.1-0.2,0.1l-0.3,0.2c-0.1,0-0.2,0.1-0.2,0.1c-0.1,0-0.2,0-0.3,0.1c-0.1,0-0.2,0.1-0.3,0.1
	l-0.3,0c-0.1,0-0.2,0-0.3,0.1l-0.2,0l-0.3,0l-0.3,0c-0.1,0-0.2,0-0.3,0c-0.2,0-0.4,0-0.6,0c-0.1,0-0.2,0-0.2,0c-0.1,0-0.2,0-0.3-0.1
	c-0.1,0-0.2,0-0.2,0c-0.1,0-0.2-0.1-0.3-0.1c-0.1,0-0.1-0.1-0.2-0.1l-0.3-0.1c0,0-0.2,0-0.2-0.1c-0.1,0-0.2-0.1-0.2-0.1
	c-0.1,0-0.2-0.1-0.2-0.1c0,0-0.2-0.1-0.2-0.1c0,0-0.1-0.1-0.2-0.2c-0.1,0-0.1-0.1-0.2-0.1c-0.1-0.1-0.1-0.1-0.2-0.1
	c-0.1,0-0.2,0.1-0.3,0.1c-0.1,0-0.1,0.1-0.2,0.2c0,0.1-0.1,0.1,0,0.2V26c0,0.1,0.1,0.2,0,0.3c0,0.1,0,0.2,0,0.3v0.3
	c0,0.1,0,0.1,0,0.3c0,0.1,0,0.2,0,0.3v0.5c0,0.1,0.1,0.2,0,0.3v0.3c0,0.1,0.1,0.1,0.1,0.3v0.3c0,0.1,0,0.1,0,0.3v0.5
	c0,0.1,0.1,0.2,0,0.3c0,0.1,0,0.1,0,0.3c0,0.1,0,0.1,0,0.3c0,0.1,0.1,0.2,0.1,0.2c0,0.1,0.1,0.1,0.2,0.2c0.1,0,0.2,0,0.3,0
	c0.1,0,0.2-0.1,0.3-0.1c0.1,0,0.2-0.1,0.3-0.1c0.1,0,0.2,0,0.3-0.1c0.1,0,0.1-0.1,0.2-0.1l0.3,0l0.3,0l0.3,0l0.3,0
	c0.1,0,0.2,0,0.3,0l0.3,0c0.1,0,0.1,0.1,0.2,0.1c0.1,0,0.2,0,0.3,0l0.3,0c0.1,0,0.2,0,0.3,0c0.1,0,0.2,0,0.3,0
	c0.1,0,0.2-0.1,0.3-0.1c0.1,0,0.2,0,0.3,0l0.3,0c0.1,0,0.2,0,0.3,0l0.3,0c0.1,0,0.2-0.1,0.3-0.1l0.3,0c0.1,0,0.2-0.1,0.3-0.1
	c0.1,0,0.2-0.1,0.3-0.1l0.3,0c0.1-0.1,0.2-0.1,0.3-0.1c0.1,0,0.2-0.1,0.3-0.1c0.1,0,0.2-0.1,0.3-0.1c0.1,0,0.1-0.1,0.2-0.1
	c0.1-0.1,0.2-0.1,0.3-0.1c0.1,0,0.2-0.1,0.2-0.2c0.1-0.1,0.2-0.1,0.3-0.1c0.1,0,0.2-0.1,0.2-0.2c0.1-0.1,0.2-0.1,0.3-0.1
	c0.1-0.1,0.1-0.1,0.2-0.2c0.1-0.1,0.2-0.1,0.2-0.2c0.1,0,0.2-0.1,0.2-0.2c0.1,0,0.2-0.1,0.2-0.2c0-0.1,0.1-0.1,0.2-0.2l0.2-0.2
	c0.1-0.1,0.1-0.1,0.2-0.2c0.1-0.1,0.2-0.1,0.2-0.2c0.1-0.1,0.2-0.2,0.2-0.2c0.1-0.1,0.1-0.2,0.2-0.2l0.2-0.2c0-0.1,0.1-0.2,0.1-0.2
	c0.1-0.1,0.1-0.2,0.2-0.2c0.1-0.1,0.1-0.2,0.2-0.2c0-0.1,0-0.2,0.1-0.2c0.1-0.1,0.1-0.2,0.2-0.2c0-0.1,0.1-0.2,0.1-0.2
	c0-0.1,0-0.2,0.1-0.3c0-0.1,0-0.2,0.1-0.3c0-0.1,0.1-0.1,0.1-0.2c0.1-0.1,0.1-0.2,0.1-0.3c0-0.1,0.1-0.1,0.1-0.2l0.1-0.3
	c0-0.1,0-0.2,0-0.3c0-0.1,0-0.2,0-0.3s0-0.2,0-0.3c0-0.1,0-0.2,0.1-0.2v-0.3c0-0.1,0-0.2,0-0.3c0.1-0.1,0.1-0.2,0.1-0.3
	C320.1,22.2,320.1,22.1,320.1,22z"/>
</svg>
